<svg width="570" height="570" viewBox="0 0 570 570" fill="none" xmlns="http://www.w3.org/2000/svg">
<circle cx="285" cy="285" r="285" fill="#FFFBEF"/>
<path d="M507.484 105.854H74.959V248.817H507.484V105.854Z" fill="white"/>
<path d="M507.485 249.687H74.9599C74.7335 249.687 74.5164 249.597 74.3563 249.437C74.1963 249.277 74.1063 249.06 74.1063 248.834V105.854C74.1063 105.627 74.1963 105.41 74.3563 105.25C74.5164 105.09 74.7335 105 74.9599 105H507.485C507.712 105 507.929 105.09 508.089 105.25C508.249 105.41 508.339 105.627 508.339 105.854V248.834C508.339 249.06 508.249 249.277 508.089 249.437C507.929 249.597 507.712 249.687 507.485 249.687ZM75.8135 247.98H506.683V106.707H75.8135V247.98Z" fill="#D1D3D4"/>
<path d="M243.429 227.067H228.406C228.191 227.062 227.987 226.974 227.837 226.821C227.687 226.667 227.603 226.461 227.603 226.247V154.8C227.603 154.587 227.688 154.383 227.838 154.232C227.989 154.082 228.193 153.997 228.406 153.997H243.395C243.61 153.997 243.816 154.081 243.969 154.231C244.122 154.381 244.21 154.585 244.215 154.8V226.247C244.211 226.457 244.128 226.659 243.982 226.81C243.837 226.962 243.639 227.054 243.429 227.067ZM229.259 225.359H242.61V155.619H229.259V225.359Z" fill="#D1D3D4"/>
<path d="M271.085 227.067H256.113C255.895 227.067 255.687 226.98 255.533 226.827C255.379 226.673 255.293 226.464 255.293 226.247V184.283C255.293 184.066 255.379 183.858 255.533 183.704C255.687 183.55 255.895 183.464 256.113 183.464H271.085C271.302 183.464 271.511 183.55 271.664 183.704C271.818 183.858 271.904 184.066 271.904 184.283V226.179C271.914 226.292 271.9 226.406 271.863 226.513C271.826 226.621 271.767 226.719 271.69 226.803C271.613 226.886 271.519 226.953 271.415 226.998C271.311 227.044 271.198 227.067 271.085 227.067ZM256.915 225.359H270.265V185.171H256.915V225.359Z" fill="#D1D3D4"/>
<path d="M298.709 227.067H283.737C283.519 227.067 283.311 226.98 283.157 226.827C283.004 226.673 282.917 226.464 282.917 226.247V165.111C282.915 165.003 282.934 164.896 282.975 164.795C283.015 164.695 283.075 164.603 283.152 164.527C283.229 164.45 283.32 164.39 283.42 164.35C283.521 164.309 283.628 164.29 283.737 164.292H298.709C298.817 164.29 298.925 164.309 299.025 164.35C299.126 164.39 299.217 164.45 299.294 164.527C299.37 164.603 299.43 164.695 299.471 164.795C299.511 164.896 299.531 165.003 299.528 165.111V226.247C299.528 226.464 299.442 226.673 299.288 226.827C299.135 226.98 298.926 227.067 298.709 227.067ZM284.539 225.359H297.907V165.914H284.539V225.359Z" fill="#D1D3D4"/>
<path d="M326.366 227.066H311.376C311.16 227.062 310.954 226.974 310.801 226.822C310.649 226.669 310.561 226.463 310.557 226.247V200.024C310.557 199.807 310.643 199.598 310.797 199.445C310.95 199.291 311.159 199.205 311.376 199.205H326.366C326.472 199.205 326.578 199.226 326.677 199.267C326.775 199.309 326.864 199.369 326.939 199.446C327.014 199.522 327.073 199.612 327.112 199.712C327.151 199.811 327.17 199.917 327.168 200.024V226.247C327.168 226.461 327.084 226.667 326.934 226.821C326.784 226.974 326.58 227.062 326.366 227.066ZM312.196 225.359H325.546V200.826H312.196V225.359Z" fill="#D1D3D4"/>
<path d="M354.004 227.067H339.015C338.799 227.062 338.593 226.974 338.44 226.822C338.287 226.669 338.2 226.463 338.195 226.247V165.111C338.195 164.894 338.282 164.686 338.435 164.532C338.589 164.378 338.797 164.292 339.015 164.292H354.004C354.222 164.292 354.43 164.378 354.584 164.532C354.737 164.686 354.824 164.894 354.824 165.111V226.247C354.819 226.463 354.732 226.669 354.579 226.822C354.426 226.974 354.22 227.062 354.004 227.067ZM339.834 225.359H353.185V165.914H339.834V225.359Z" fill="#D1D3D4"/>
<path d="M353.646 130.66H328.294C328.068 130.66 327.851 130.57 327.691 130.41C327.53 130.25 327.441 130.032 327.441 129.806C327.441 129.58 327.53 129.362 327.691 129.202C327.851 129.042 328.068 128.952 328.294 128.952H353.646C353.873 128.952 354.09 129.042 354.25 129.202C354.41 129.362 354.5 129.58 354.5 129.806C354.5 130.032 354.41 130.25 354.25 130.41C354.09 130.57 353.873 130.66 353.646 130.66Z" fill="#D1D3D4"/>
<path d="M353.646 136.259H328.294C328.178 136.276 328.059 136.268 327.946 136.235C327.833 136.202 327.729 136.145 327.64 136.068C327.551 135.991 327.48 135.896 327.431 135.789C327.382 135.682 327.356 135.566 327.356 135.448C327.356 135.331 327.382 135.215 327.431 135.108C327.48 135.001 327.551 134.906 327.64 134.829C327.729 134.752 327.833 134.695 327.946 134.662C328.059 134.629 328.178 134.621 328.294 134.637H353.646C353.763 134.621 353.881 134.629 353.994 134.662C354.107 134.695 354.211 134.752 354.3 134.829C354.389 134.906 354.461 135.001 354.509 135.108C354.558 135.215 354.584 135.331 354.584 135.448C354.584 135.566 354.558 135.682 354.509 135.789C354.461 135.896 354.389 135.991 354.3 136.068C354.211 136.145 354.107 136.202 353.994 136.235C353.881 136.268 353.763 136.276 353.646 136.259Z" fill="#D1D3D4"/>
<path d="M344.838 141.859H328.295C328.078 141.859 327.869 141.773 327.716 141.619C327.562 141.465 327.476 141.257 327.476 141.039C327.48 140.823 327.568 140.618 327.72 140.465C327.873 140.312 328.079 140.224 328.295 140.22H344.838C345.052 140.224 345.256 140.313 345.406 140.466C345.556 140.619 345.64 140.825 345.64 141.039C345.643 141.146 345.624 141.252 345.584 141.352C345.545 141.451 345.486 141.542 345.412 141.618C345.337 141.694 345.248 141.755 345.149 141.796C345.051 141.838 344.945 141.859 344.838 141.859Z" fill="#D1D3D4"/>
<path d="M255.071 118.128H229.719C229.502 118.128 229.293 118.042 229.14 117.888C228.986 117.735 228.9 117.526 228.9 117.309C228.897 117.201 228.917 117.093 228.957 116.993C228.998 116.892 229.058 116.801 229.134 116.724C229.211 116.648 229.302 116.588 229.403 116.547C229.503 116.507 229.611 116.487 229.719 116.49H255.071C255.178 116.49 255.284 116.511 255.382 116.552C255.481 116.594 255.57 116.654 255.645 116.731C255.72 116.807 255.778 116.897 255.818 116.997C255.857 117.096 255.876 117.202 255.874 117.309C255.874 117.523 255.79 117.729 255.64 117.883C255.49 118.036 255.286 118.124 255.071 118.128Z" fill="#D1D3D4"/>
<path d="M246.247 123.711H229.721C229.494 123.711 229.277 123.621 229.117 123.461C228.957 123.301 228.867 123.084 228.867 122.858C228.867 122.631 228.957 122.414 229.117 122.254C229.277 122.094 229.494 122.004 229.721 122.004H246.247C246.473 122.004 246.69 122.094 246.85 122.254C247.01 122.414 247.1 122.631 247.1 122.858C247.1 123.084 247.01 123.301 246.85 123.461C246.69 123.621 246.473 123.711 246.247 123.711Z" fill="#D1D3D4"/>
<path d="M320.732 174.979C312.742 174.979 305.777 166.084 300.245 158.897C296.541 154.168 292.972 149.712 290.736 149.763C288.107 149.763 284.505 151.932 280.697 154.134C275.576 157.122 269.635 160.502 264.154 160.212C253.911 159.648 234.551 136.942 233.732 135.969C233.656 135.894 233.596 135.805 233.554 135.707C233.513 135.609 233.492 135.504 233.492 135.397C233.492 135.291 233.513 135.185 233.554 135.087C233.596 134.989 233.656 134.9 233.732 134.825C233.888 134.675 234.096 134.591 234.312 134.591C234.529 134.591 234.737 134.675 234.893 134.825C235.08 135.064 254.577 157.975 264.154 158.487C269.276 158.76 274.825 155.517 279.793 152.632C283.788 150.327 287.56 148.142 290.599 148.056H290.702C293.809 148.056 297.189 152.358 301.44 157.804C306.938 164.855 313.835 173.63 321.142 173.169C327.544 172.862 330.6 167.297 333.843 161.407C337.087 155.517 340.126 149.934 346.545 148.722C346.755 148.687 346.971 148.735 347.146 148.856C347.321 148.977 347.443 149.162 347.484 149.371C347.504 149.475 347.503 149.582 347.481 149.686C347.459 149.79 347.416 149.888 347.356 149.976C347.295 150.063 347.218 150.137 347.129 150.195C347.04 150.252 346.94 150.291 346.835 150.31C341.184 151.385 338.299 156.626 335.277 162.26C331.965 168.287 328.449 174.518 321.227 174.877L320.732 174.979Z" fill="#D1D3D4"/>
<path d="M366.827 227.067H216.335C216.119 227.062 215.913 226.975 215.76 226.822C215.608 226.669 215.52 226.463 215.516 226.247C215.516 226.03 215.602 225.821 215.756 225.668C215.909 225.514 216.118 225.428 216.335 225.428H366.827C366.934 225.428 367.04 225.449 367.138 225.49C367.236 225.532 367.326 225.592 367.4 225.669C367.475 225.745 367.534 225.836 367.573 225.935C367.613 226.034 367.632 226.14 367.629 226.247C367.629 226.462 367.545 226.668 367.395 226.821C367.245 226.974 367.041 227.062 366.827 227.067Z" fill="#D1D3D4"/>
<path d="M234.655 138.684C233.999 138.687 233.357 138.496 232.81 138.136C232.262 137.776 231.833 137.262 231.576 136.659C231.319 136.056 231.246 135.391 231.366 134.746C231.485 134.102 231.793 133.507 232.249 133.037C232.705 132.566 233.291 132.241 233.931 132.102C234.572 131.962 235.239 132.015 235.85 132.254C236.46 132.492 236.987 132.905 237.363 133.442C237.74 133.978 237.95 134.614 237.967 135.269C237.967 136.157 237.621 137.011 237.003 137.648C236.385 138.286 235.542 138.657 234.655 138.684ZM234.655 133.664C234.317 133.664 233.987 133.765 233.706 133.952C233.425 134.14 233.207 134.406 233.077 134.718C232.948 135.03 232.914 135.374 232.98 135.705C233.046 136.036 233.209 136.34 233.447 136.579C233.686 136.818 233.99 136.98 234.322 137.046C234.653 137.112 234.996 137.078 235.308 136.949C235.62 136.82 235.887 136.601 236.074 136.32C236.262 136.039 236.362 135.709 236.362 135.372C236.362 134.919 236.182 134.485 235.862 134.164C235.542 133.844 235.107 133.664 234.655 133.664Z" fill="#D1D3D4"/>
<path d="M346.698 153.007C346.047 152.99 345.415 152.783 344.881 152.411C344.347 152.038 343.933 151.518 343.692 150.913C343.451 150.308 343.392 149.646 343.523 149.009C343.654 148.371 343.97 147.786 344.43 147.325C344.89 146.865 345.476 146.55 346.113 146.418C346.751 146.287 347.413 146.346 348.018 146.587C348.623 146.829 349.143 147.242 349.516 147.776C349.888 148.31 350.095 148.942 350.112 149.593C350.126 150.045 350.048 150.495 349.881 150.916C349.715 151.337 349.464 151.719 349.144 152.039C348.824 152.359 348.442 152.61 348.021 152.776C347.6 152.943 347.15 153.021 346.698 153.007ZM346.698 148.005C346.36 148.005 346.03 148.105 345.749 148.293C345.468 148.48 345.25 148.747 345.12 149.059C344.991 149.371 344.957 149.714 345.023 150.045C345.089 150.376 345.252 150.681 345.49 150.919C345.729 151.158 346.033 151.321 346.365 151.387C346.696 151.452 347.039 151.419 347.351 151.289C347.663 151.16 347.93 150.941 348.117 150.661C348.305 150.38 348.405 150.05 348.405 149.712C348.405 149.259 348.225 148.825 347.905 148.505C347.585 148.185 347.15 148.005 346.698 148.005Z" fill="#D1D3D4"/>
<path d="M110.606 271.079H174.524C183.965 271.079 193.019 274.829 199.694 281.504C206.37 288.18 210.12 297.234 210.12 306.674V445.967H74.959V306.691C74.9568 302.011 75.8775 297.377 77.6686 293.053C79.4596 288.729 82.0858 284.8 85.3968 281.492C88.7078 278.185 92.6387 275.562 96.9644 273.775C101.29 271.988 105.926 271.072 110.606 271.079Z" fill="white"/>
<path d="M210.087 446.838H74.9599C74.7335 446.838 74.5164 446.748 74.3563 446.588C74.1963 446.427 74.1063 446.21 74.1063 445.984V306.691C74.1154 297.017 77.9649 287.742 84.8091 280.904C91.6533 274.066 100.932 270.225 110.607 270.225H174.525C184.194 270.234 193.464 274.079 200.301 280.916C207.138 287.753 210.983 297.023 210.992 306.691V445.984C210.989 446.1 210.964 446.214 210.917 446.32C210.87 446.426 210.803 446.521 210.719 446.601C210.634 446.68 210.535 446.742 210.426 446.783C210.318 446.824 210.202 446.842 210.087 446.838ZM75.8135 445.13H209.233V306.691C209.22 297.477 205.553 288.644 199.037 282.128C192.522 275.612 183.689 271.946 174.474 271.932H110.607C101.385 271.932 92.5403 275.593 86.0163 282.111C79.4923 288.629 75.8226 297.47 75.8135 306.691V445.13Z" fill="#121116"/>
<path d="M69.6327 324.754C71.7895 324.754 73.9251 325.179 75.9177 326.004C77.9103 326.829 79.7208 328.039 81.2459 329.564C82.7709 331.089 83.9807 332.9 84.806 334.892C85.6314 336.885 86.0562 339.021 86.0562 341.177V445.984H53.175V341.16C53.1773 339.002 53.6049 336.866 54.4334 334.873C55.2619 332.88 56.475 331.07 58.0035 329.546C59.5319 328.022 61.3457 326.815 63.3411 325.993C65.3366 325.17 67.4745 324.749 69.6327 324.754Z" fill="white"/>
<path d="M86.0059 446.838H53.1759C52.9495 446.838 52.7324 446.748 52.5723 446.588C52.4123 446.428 52.3223 446.21 52.3223 445.984V341.16C52.4634 336.674 54.3446 332.42 57.5677 329.296C60.7907 326.173 65.1028 324.426 69.5909 324.426C74.079 324.426 78.391 326.173 81.6141 329.296C84.8372 332.42 86.7184 336.674 86.8595 341.16V445.984C86.8595 446.21 86.7695 446.428 86.6095 446.588C86.4494 446.748 86.2322 446.838 86.0059 446.838ZM54.0296 445.13H85.1522V341.16C85.0185 337.123 83.3204 333.295 80.4167 330.486C77.513 327.676 73.631 326.106 69.5909 326.106C65.5508 326.106 61.6688 327.676 58.7651 330.486C55.8614 333.295 54.1633 337.123 54.0296 341.16V445.13Z" fill="#121116"/>
<path d="M215.448 324.754C219.804 324.754 223.981 326.484 227.061 329.564C230.141 332.644 231.871 336.822 231.871 341.177V445.984H199.024V341.16C199.029 336.808 200.761 332.635 203.841 329.558C206.92 326.482 211.095 324.754 215.448 324.754Z" fill="white"/>
<path d="M231.819 446.838H199.023C198.798 446.833 198.584 446.742 198.425 446.583C198.265 446.424 198.174 446.209 198.17 445.984V341.16C198.17 336.578 199.99 332.184 203.23 328.944C206.47 325.704 210.865 323.883 215.447 323.883C220.029 323.883 224.423 325.704 227.664 328.944C230.904 332.184 232.724 336.578 232.724 341.16V445.984C232.722 446.1 232.696 446.214 232.65 446.32C232.603 446.426 232.535 446.521 232.451 446.601C232.367 446.68 232.267 446.742 232.159 446.783C232.05 446.824 231.935 446.842 231.819 446.838ZM199.826 445.13H230.965V341.16C230.965 337.031 229.325 333.071 226.405 330.151C223.485 327.231 219.525 325.59 215.396 325.59C211.266 325.59 207.306 327.231 204.386 330.151C201.466 333.071 199.826 337.031 199.826 341.16V445.13Z" fill="#121116"/>
<path d="M199.023 366.308H86.0049V396.731H199.023V366.308Z" fill="white"/>
<path d="M199.023 397.584H86.005C85.7786 397.584 85.5615 397.494 85.4014 397.334C85.2413 397.174 85.1514 396.957 85.1514 396.73V366.308C85.1514 366.081 85.2413 365.864 85.4014 365.704C85.5615 365.544 85.7786 365.454 86.005 365.454H199.023C199.25 365.454 199.467 365.544 199.627 365.704C199.787 365.864 199.877 366.081 199.877 366.308V396.73C199.877 396.843 199.855 396.954 199.812 397.057C199.769 397.161 199.706 397.255 199.627 397.334C199.548 397.413 199.453 397.476 199.35 397.519C199.246 397.562 199.135 397.584 199.023 397.584ZM86.8586 395.877H198.17V367.161H86.8586V395.877Z" fill="#121116"/>
<path d="M199.023 396.73H86.0049V445.984H199.023V396.73Z" fill="white"/>
<path d="M199.023 446.837H86.005C85.78 446.833 85.5654 446.742 85.4062 446.583C85.2471 446.423 85.1557 446.209 85.1514 445.984V396.73C85.1514 396.504 85.2413 396.287 85.4014 396.127C85.5615 395.967 85.7786 395.877 86.005 395.877H199.023C199.25 395.877 199.467 395.967 199.627 396.127C199.787 396.287 199.877 396.504 199.877 396.73V445.984C199.877 446.096 199.855 446.207 199.812 446.311C199.769 446.414 199.706 446.508 199.627 446.587C199.548 446.667 199.453 446.73 199.35 446.772C199.246 446.815 199.135 446.837 199.023 446.837ZM86.8586 445.13H198.17V397.584H86.8586V445.13Z" fill="#121116"/>
<path d="M397.846 271.079H461.765C466.439 271.079 471.068 271.999 475.387 273.788C479.705 275.577 483.629 278.199 486.935 281.504C490.24 284.81 492.862 288.734 494.651 293.053C496.44 297.371 497.361 302 497.361 306.674V445.967H362.251V306.691C362.249 302.016 363.168 297.385 364.955 293.064C366.743 288.744 369.365 284.818 372.671 281.511C375.976 278.203 379.901 275.58 384.221 273.79C388.54 272 393.171 271.079 397.846 271.079Z" fill="white"/>
<path d="M497.362 446.838H362.252C362.026 446.838 361.809 446.748 361.648 446.588C361.488 446.428 361.398 446.21 361.398 445.984V306.692C361.407 297.026 365.25 287.758 372.083 280.922C378.916 274.086 388.182 270.239 397.848 270.225H461.766C471.42 270.257 480.668 274.112 487.487 280.946C494.305 287.78 498.138 297.038 498.147 306.692V445.984C498.148 446.199 498.067 446.406 497.922 446.565C497.776 446.723 497.576 446.82 497.362 446.838ZM363.106 445.13H496.44V306.692C496.431 297.479 492.768 288.645 486.255 282.129C479.742 275.613 470.911 271.946 461.698 271.932H397.848C388.635 271.946 379.803 275.613 373.29 282.129C366.777 288.645 363.115 297.479 363.106 306.692V445.13Z" fill="#121116"/>
<path d="M356.875 324.754C361.231 324.754 365.408 326.484 368.488 329.564C371.568 332.644 373.299 336.822 373.299 341.177V445.984H340.469V341.16C340.473 336.81 342.203 332.64 345.279 329.564C348.355 326.488 352.525 324.758 356.875 324.754Z" fill="white"/>
<path d="M373.297 446.838H340.467C340.24 446.838 340.023 446.748 339.863 446.588C339.703 446.428 339.613 446.21 339.613 445.984V341.16C339.754 336.674 341.635 332.42 344.859 329.296C348.082 326.173 352.394 324.426 356.882 324.426C361.37 324.426 365.682 326.173 368.905 329.296C372.128 332.42 374.009 336.674 374.15 341.16V445.984C374.15 446.21 374.06 446.428 373.9 446.588C373.74 446.748 373.523 446.838 373.297 446.838ZM341.32 445.13H372.443V341.16C372.309 337.123 370.611 333.295 367.708 330.486C364.804 327.676 360.922 326.106 356.882 326.106C352.842 326.106 348.96 327.676 346.056 330.486C343.152 333.295 341.454 337.123 341.32 341.16V445.13Z" fill="#121116"/>
<path d="M502.739 324.754C507.095 324.754 511.272 326.484 514.352 329.564C517.432 332.644 519.162 336.822 519.162 341.177V445.984H486.315V341.16C486.32 336.808 488.052 332.635 491.132 329.558C494.211 326.482 498.386 324.754 502.739 324.754Z" fill="white"/>
<path d="M519.147 446.838H486.317C486.09 446.838 485.873 446.748 485.713 446.588C485.553 446.428 485.463 446.21 485.463 445.984V341.16C485.604 336.674 487.485 332.42 490.708 329.296C493.931 326.173 498.243 324.426 502.732 324.426C507.22 324.426 511.532 326.173 514.755 329.296C517.978 332.42 519.859 336.674 520 341.16V445.984C520 446.21 519.91 446.428 519.75 446.588C519.59 446.748 519.373 446.838 519.147 446.838ZM487.17 445.13H518.293V341.16C518.159 337.123 516.461 333.295 513.557 330.486C510.654 327.676 506.772 326.106 502.732 326.106C498.692 326.106 494.81 327.676 491.906 330.486C489.002 333.295 487.304 337.123 487.17 341.16V445.13Z" fill="#121116"/>
<path d="M486.316 366.308H373.298V396.731H486.316V366.308Z" fill="white"/>
<path d="M486.315 397.584H373.297C373.071 397.584 372.854 397.494 372.694 397.334C372.533 397.174 372.443 396.957 372.443 396.73V366.308C372.443 366.081 372.533 365.864 372.694 365.704C372.854 365.544 373.071 365.454 373.297 365.454H486.315C486.542 365.454 486.759 365.544 486.919 365.704C487.079 365.864 487.169 366.081 487.169 366.308V396.73C487.169 396.957 487.079 397.174 486.919 397.334C486.759 397.494 486.542 397.584 486.315 397.584ZM374.151 395.877H485.462V367.161H374.151V395.877Z" fill="#121116"/>
<path d="M486.316 396.731H373.298V445.984H486.316V396.731Z" fill="white"/>
<path d="M486.315 446.837H373.297C373.071 446.837 372.854 446.748 372.694 446.587C372.533 446.427 372.443 446.21 372.443 445.984V396.73C372.443 396.504 372.533 396.287 372.694 396.127C372.854 395.967 373.071 395.877 373.297 395.877H486.315C486.542 395.877 486.759 395.967 486.919 396.127C487.079 396.287 487.169 396.504 487.169 396.73V445.984C487.169 446.21 487.079 446.427 486.919 446.587C486.759 446.748 486.542 446.837 486.315 446.837ZM374.151 445.13H485.462V397.584H374.151V445.13Z" fill="#121116"/>
<path d="M322.149 333.597H247.424V445.984H322.149V333.597Z" fill="white"/>
<path d="M322.149 446.838H247.424C247.199 446.833 246.984 446.742 246.825 446.583C246.666 446.424 246.575 446.209 246.57 445.984V333.597C246.57 333.371 246.66 333.154 246.82 332.994C246.98 332.834 247.198 332.744 247.424 332.744H322.149C322.376 332.744 322.593 332.834 322.753 332.994C322.913 333.154 323.003 333.371 323.003 333.597V445.984C322.998 446.209 322.907 446.424 322.748 446.583C322.589 446.742 322.374 446.833 322.149 446.838ZM248.278 445.13H321.296V334.519H248.278V445.13Z" fill="#121116"/>
<path d="M315.08 326.956H292.988V333.58H315.08V326.956Z" fill="#121116"/>
<path d="M315.08 334.519H292.989C292.762 334.519 292.545 334.429 292.385 334.269C292.225 334.109 292.135 333.892 292.135 333.666V327.025C292.135 326.798 292.225 326.581 292.385 326.421C292.545 326.261 292.762 326.171 292.989 326.171H315.08C315.306 326.171 315.524 326.261 315.684 326.421C315.844 326.581 315.934 326.798 315.934 327.025V333.666C315.934 333.892 315.844 334.109 315.684 334.269C315.524 334.429 315.306 334.519 315.08 334.519ZM293.842 332.812H314.226V327.878H293.842V332.812Z" fill="#121116"/>
<path d="M302.14 328.612C301.915 328.608 301.7 328.516 301.541 328.357C301.382 328.198 301.291 327.984 301.286 327.759V294.997C301.286 286.461 324.453 277.156 327.082 276.218C327.187 276.176 327.298 276.155 327.41 276.157C327.522 276.159 327.633 276.182 327.736 276.227C327.839 276.271 327.932 276.335 328.011 276.416C328.089 276.496 328.151 276.591 328.192 276.696C328.233 276.8 328.254 276.911 328.252 277.023C328.251 277.136 328.227 277.246 328.183 277.349C328.138 277.452 328.074 277.546 327.994 277.624C327.913 277.702 327.818 277.764 327.714 277.805C320.885 280.503 302.993 288.868 302.993 295.082V327.69C303.003 327.808 302.988 327.926 302.949 328.038C302.91 328.15 302.849 328.252 302.769 328.339C302.689 328.425 302.591 328.494 302.483 328.541C302.375 328.588 302.258 328.613 302.14 328.612Z" fill="#121116"/>
<path d="M329.183 278.674C332.221 277.743 334.444 276.205 334.148 275.241C333.852 274.276 331.15 274.25 328.112 275.181C325.074 276.113 322.851 277.65 323.147 278.615C323.443 279.579 326.145 279.606 329.183 278.674Z" fill="#121116"/>
<path d="M325.188 280.195C323.805 280.195 322.644 279.854 322.337 278.864C321.722 276.849 325.529 275.091 327.868 274.374C330.207 273.657 334.356 272.957 334.987 274.988C335.602 277.003 331.795 278.761 329.439 279.478C328.063 279.918 326.632 280.16 325.188 280.195ZM324.027 278.335C325.678 278.633 327.381 278.468 328.944 277.857C330.581 277.493 332.084 276.677 333.28 275.501C331.632 275.211 329.937 275.383 328.38 275.996C326.74 276.368 325.23 277.176 324.01 278.335H324.027Z" fill="#121116"/>
<path d="M279.623 326.956H257.531V333.58H279.623V326.956Z" fill="#121116"/>
<path d="M279.622 334.519H257.53C257.304 334.519 257.087 334.429 256.927 334.269C256.767 334.109 256.677 333.892 256.677 333.666V327.025C256.677 326.798 256.767 326.581 256.927 326.421C257.087 326.261 257.304 326.171 257.53 326.171H279.622C279.848 326.171 280.065 326.261 280.225 326.421C280.386 326.581 280.475 326.798 280.475 327.025V333.666C280.475 333.892 280.386 334.109 280.225 334.269C280.065 334.429 279.848 334.519 279.622 334.519ZM258.384 332.812H278.768V327.878H258.384V332.812Z" fill="#121116"/>
<path d="M270.42 328.612C270.194 328.612 269.977 328.522 269.817 328.362C269.657 328.202 269.567 327.985 269.567 327.759V294.997C269.567 287.297 259.084 277.652 258.965 277.549C258.882 277.473 258.815 277.381 258.767 277.279C258.72 277.177 258.693 277.066 258.688 276.954C258.684 276.841 258.701 276.729 258.74 276.623C258.778 276.517 258.837 276.42 258.914 276.337C258.99 276.254 259.082 276.187 259.184 276.139C259.286 276.092 259.397 276.065 259.509 276.06C259.622 276.056 259.734 276.073 259.84 276.112C259.946 276.15 260.043 276.21 260.126 276.286C260.57 276.713 271.274 286.529 271.274 295.065V327.69C271.281 327.807 271.264 327.925 271.224 328.035C271.185 328.146 271.123 328.247 271.044 328.333C270.964 328.419 270.868 328.488 270.761 328.536C270.653 328.584 270.538 328.61 270.42 328.612Z" fill="#121116"/>
<path d="M262.589 280.745C263.07 279.858 261.195 277.911 258.402 276.397C255.609 274.882 252.954 274.373 252.473 275.26C251.993 276.147 253.867 278.094 256.66 279.608C259.453 281.123 262.108 281.632 262.589 280.745Z" fill="#121116"/>
<path d="M261.474 282.039C259.63 281.853 257.848 281.271 256.25 280.332C254.099 279.154 250.701 276.679 251.708 274.818C252.596 273.111 255.908 274.049 258.811 275.62C260.104 276.301 261.294 277.164 262.345 278.181C263.71 279.615 263.642 280.571 263.335 281.134C263.141 281.445 262.864 281.695 262.534 281.855C262.205 282.015 261.838 282.079 261.474 282.039ZM253.279 275.706C254.324 277.003 255.617 278.078 257.083 278.87C258.549 279.661 260.157 280.153 261.815 280.315C260.871 278.93 259.558 277.836 258.025 277.157C256.613 276.232 254.967 275.728 253.279 275.706Z" fill="#121116"/>
<path d="M175.889 334.212C175.889 334.212 184.425 365.983 179.798 365.983H113.08V337.934L175.889 334.212Z" fill="#121116"/>
<path d="M179.801 366.837H113.083C112.858 366.833 112.643 366.741 112.484 366.582C112.325 366.423 112.234 366.208 112.229 365.983V337.934C112.229 337.716 112.312 337.506 112.461 337.348C112.61 337.189 112.814 337.093 113.032 337.08L175.841 333.358C176.035 333.354 176.225 333.413 176.382 333.527C176.54 333.641 176.655 333.804 176.711 333.99C177.975 338.702 184.086 362.381 181.201 366.12C181.042 366.343 180.832 366.525 180.589 366.649C180.345 366.774 180.075 366.838 179.801 366.837ZM113.937 365.13H179.801C181.389 364.208 179.306 350.533 175.243 335.117L114.022 338.736L113.937 365.13Z" fill="#121116"/>
<path d="M125.528 215.799C124.726 212.162 122.694 209.175 121.858 205.555C120.945 201.525 121.115 197.325 122.353 193.383C122.789 191.767 123.636 190.29 124.811 189.098C125.412 188.516 126.163 188.113 126.981 187.935C127.798 187.757 128.649 187.811 129.438 188.091C131.691 183.869 134.893 180.228 138.793 177.455C139.396 176.931 140.163 176.635 140.961 176.618C141.524 176.731 142.029 177.04 142.386 177.49C142.742 177.94 142.927 178.503 142.908 179.076C142.845 180.23 142.499 181.35 141.9 182.337C144.572 179.843 147.841 178.079 151.393 177.216C152.454 176.875 153.59 176.84 154.671 177.113C155.208 177.262 155.68 177.587 156.011 178.035C156.343 178.484 156.514 179.031 156.497 179.589C156.344 180.903 154.875 181.723 154.551 183.003C156.359 182.153 158.342 181.743 160.338 181.808C161.327 181.843 162.291 182.122 163.146 182.619C164 183.117 164.719 183.817 165.238 184.659C166.724 187.527 164.931 191.044 162.626 193.298C164.026 193.093 165.204 194.629 165.153 196.063C164.947 197.481 164.316 198.802 163.343 199.853C161.636 202.175 161.209 204.77 160.168 207.433C159.213 210.072 157.784 212.514 155.951 214.638C153.187 217.441 149.597 219.284 145.708 219.896C141.857 220.494 137.929 220.39 134.116 219.589C132.078 219.311 130.114 218.645 128.328 217.626C126.672 216.55 125.972 217.796 125.528 215.799Z" fill="white"/>
<path d="M141.149 221.177C138.754 221.157 136.365 220.917 134.013 220.46C131.875 220.149 129.814 219.442 127.935 218.377C127.556 218.134 127.121 217.993 126.672 217.967C125.631 217.848 124.965 217.506 124.675 215.987C124.263 214.275 123.692 212.606 122.967 211.002C122.171 209.307 121.536 207.541 121.072 205.726C120.111 201.539 120.288 197.171 121.585 193.076C122.058 191.316 122.982 189.71 124.265 188.415C124.894 187.82 125.655 187.382 126.486 187.135C127.316 186.889 128.193 186.842 129.045 186.998C131.353 182.949 134.516 179.454 138.315 176.755C139.082 176.091 140.067 175.732 141.081 175.747C141.877 175.884 142.595 176.306 143.101 176.935C143.607 177.564 143.866 178.356 143.83 179.162C143.847 179.372 143.847 179.583 143.83 179.794C146.078 178.215 148.594 177.058 151.256 176.379C152.483 176.028 153.785 176.028 155.012 176.379C155.738 176.598 156.37 177.053 156.809 177.671C157.248 178.289 157.469 179.036 157.436 179.794C157.364 180.416 157.122 181.007 156.736 181.501C157.95 181.151 159.215 181.018 160.475 181.108C161.62 181.162 162.733 181.502 163.712 182.099C164.69 182.696 165.503 183.529 166.075 184.523C167.594 187.442 166.263 190.72 164.368 193.059C164.544 193.169 164.709 193.294 164.863 193.434C165.27 193.804 165.593 194.259 165.808 194.766C166.023 195.273 166.126 195.82 166.109 196.371C165.919 197.973 165.226 199.473 164.129 200.656C163.106 202.139 162.354 203.792 161.909 205.538C161.653 206.358 161.397 207.246 161.073 208.031C160.084 210.773 158.596 213.308 156.685 215.509C153.807 218.44 150.069 220.377 146.015 221.04C144.4 221.232 142.772 221.278 141.149 221.177ZM126.621 216.192H126.86C127.578 216.244 128.272 216.479 128.874 216.874C130.571 217.809 132.421 218.433 134.337 218.718C138.045 219.495 141.863 219.594 145.605 219.008C149.294 218.435 152.697 216.679 155.302 214.006C157.059 212.001 158.425 209.685 159.331 207.177C159.656 206.375 159.912 205.59 160.151 204.804C160.652 202.861 161.496 201.022 162.643 199.375C163.529 198.479 164.124 197.337 164.35 196.098C164.339 195.791 164.259 195.492 164.118 195.22C163.976 194.948 163.776 194.712 163.531 194.527C163.422 194.414 163.288 194.327 163.14 194.274C162.992 194.22 162.834 194.202 162.677 194.22C162.495 194.246 162.31 194.213 162.147 194.128C161.985 194.042 161.854 193.907 161.773 193.742C161.69 193.575 161.662 193.386 161.693 193.202C161.723 193.018 161.811 192.848 161.943 192.717C164.06 190.651 165.631 187.596 164.385 185.12C163.96 184.388 163.36 183.772 162.639 183.328C161.918 182.884 161.098 182.626 160.253 182.576C158.403 182.504 156.562 182.885 154.892 183.686C154.742 183.753 154.575 183.776 154.412 183.753C154.249 183.729 154.096 183.659 153.971 183.552C153.845 183.445 153.753 183.304 153.705 183.147C153.657 182.989 153.654 182.821 153.697 182.662C153.934 181.942 154.318 181.279 154.824 180.715C155.21 180.341 155.488 179.869 155.627 179.35C155.627 178.684 155.046 178.035 154.397 177.813C153.471 177.597 152.502 177.639 151.598 177.933C148.192 178.771 145.059 180.47 142.498 182.867C142.344 182.996 142.151 183.07 141.95 183.076C141.749 183.081 141.552 183.018 141.391 182.897C141.23 182.776 141.116 182.604 141.066 182.41C141.015 182.215 141.033 182.009 141.115 181.825C141.64 180.959 141.955 179.983 142.037 178.974C142.037 178.274 141.542 177.42 140.893 177.369C140.303 177.415 139.745 177.655 139.305 178.052C135.514 180.754 132.404 184.302 130.223 188.415C130.117 188.613 129.941 188.763 129.728 188.836C129.516 188.909 129.284 188.899 129.079 188.808C128.448 188.601 127.772 188.571 127.125 188.722C126.478 188.872 125.884 189.197 125.409 189.661C124.333 190.743 123.566 192.093 123.189 193.571C121.995 197.364 121.836 201.407 122.728 205.282C123.139 206.989 123.711 208.652 124.436 210.25C125.232 211.957 125.867 213.735 126.331 215.56C126.433 216.038 126.518 216.14 126.535 216.14L126.621 216.192Z" fill="#121116"/>
<path d="M178.025 337.934C173.176 315.364 164.23 242.329 162.096 241.339C156.974 238.966 129.471 236.217 123.257 246.853C121.328 250.165 120.064 322.176 122.557 341.382L178.025 337.934Z" fill="white"/>
<path d="M122.557 342.253C122.341 342.251 122.134 342.173 121.971 342.032C121.809 341.892 121.701 341.697 121.669 341.485C119.193 322.296 120.388 250.012 122.505 246.409C129.181 235.022 157.504 238.266 162.472 240.537C163.803 241.151 165.015 247.878 170.53 285.573C173.517 306.06 176.624 327.229 178.878 337.746C178.905 337.869 178.905 337.997 178.879 338.121C178.852 338.245 178.8 338.361 178.724 338.463C178.648 338.564 178.55 338.646 178.438 338.705C178.326 338.764 178.202 338.798 178.076 338.804L122.608 342.219L122.557 342.253ZM146.219 240.076C137.222 240.076 127.251 241.783 124.025 247.297C122.318 250.712 120.832 319.171 123.325 340.443L176.949 337.114C174.695 326.239 171.691 305.701 168.788 285.898C165.937 266.486 162.728 244.514 161.55 242.124C156.579 240.64 151.405 239.949 146.219 240.076Z" fill="#121116"/>
<path d="M151.664 251.736L148.181 259.982L156.632 308.979L150.623 319.171L140.874 312.018L144.289 259.572L135.616 248.834L151.664 251.736Z" fill="#121116"/>
<path d="M150.624 320.025C150.447 320.026 150.274 319.973 150.129 319.871L140.381 312.718C140.264 312.632 140.171 312.518 140.108 312.387C140.046 312.256 140.016 312.112 140.022 311.967L143.437 259.862L134.901 249.363C134.801 249.224 134.747 249.056 134.747 248.885C134.747 248.713 134.801 248.546 134.901 248.407C134.989 248.256 135.121 248.136 135.28 248.062C135.439 247.989 135.616 247.966 135.789 247.997L151.836 250.899C151.965 250.924 152.086 250.977 152.193 251.054C152.299 251.13 152.387 251.229 152.451 251.343C152.506 251.458 152.534 251.583 152.534 251.71C152.534 251.837 152.506 251.963 152.451 252.077L149.037 260.084L157.487 308.911C157.509 309.112 157.467 309.315 157.368 309.491L151.358 319.735C151.298 319.836 151.216 319.924 151.119 319.991C151.022 320.059 150.911 320.105 150.795 320.127L150.624 320.025ZM141.764 311.608L150.3 317.925L155.678 308.808L147.261 260.118C147.22 259.962 147.22 259.797 147.261 259.64L150.334 252.385L137.598 250.08L144.82 259.043C144.957 259.21 145.025 259.424 145.008 259.64L141.764 311.608Z" fill="#121116"/>
<path d="M139.372 340.324L130.409 243.012L156.837 242.09L159.329 339.095L186.645 344.216C182.769 310.072 179.679 246.904 176.401 243.371C164.246 230.14 133.038 234.561 133.038 234.561C133.038 234.561 110.571 235.654 103.469 248.799C101.762 252.094 101.01 333.597 101.249 347.818L139.372 340.324Z" fill="#FF794E"/>
<path d="M154.772 234.22L156.189 243.439C156.189 243.439 154.738 256.875 144.597 254.519C141.543 253.736 138.694 252.302 136.245 250.316C133.797 248.33 131.806 245.839 130.41 243.012L129.112 218.633C129.112 218.633 136.59 214.57 134.234 198.283C142.549 201.765 151.648 202.944 160.576 201.697C160.576 201.697 164.179 218.462 163.035 226.315C162.854 228.412 161.915 230.371 160.395 231.826C158.874 233.281 156.875 234.132 154.772 234.22Z" fill="white"/>
<path d="M146.885 255.68C146.045 255.674 145.209 255.571 144.392 255.372C141.207 254.576 138.234 253.094 135.681 251.03C133.127 248.966 131.055 246.369 129.608 243.422C129.593 243.32 129.593 243.216 129.608 243.114L128.327 218.735C128.318 218.569 128.356 218.403 128.438 218.258C128.52 218.113 128.641 217.994 128.788 217.916C128.788 217.916 135.617 213.836 133.449 198.453C133.425 198.299 133.445 198.14 133.505 197.996C133.565 197.851 133.664 197.726 133.791 197.634C133.917 197.534 134.07 197.473 134.23 197.458C134.391 197.443 134.552 197.474 134.695 197.549C142.856 200.96 151.777 202.139 160.543 200.963C160.761 200.932 160.983 200.986 161.164 201.113C161.345 201.239 161.47 201.43 161.516 201.646C161.67 202.346 165.152 218.718 163.991 226.571C163.797 228.702 162.889 230.704 161.413 232.253C159.938 233.803 157.983 234.809 155.865 235.108L157.145 243.422C157.154 243.501 157.154 243.581 157.145 243.661C157.145 243.968 156.292 251.087 151.785 254.28C150.343 255.257 148.626 255.748 146.885 255.68ZM131.281 242.79C132.634 245.455 134.538 247.803 136.866 249.677C139.193 251.552 141.893 252.911 144.785 253.665C145.778 253.952 146.822 254.017 147.843 253.855C148.864 253.692 149.837 253.307 150.692 252.726C154.277 250.182 155.182 244.327 155.302 243.456L153.902 234.356C153.885 234.232 153.894 234.106 153.929 233.985C153.964 233.865 154.023 233.753 154.103 233.657C154.184 233.56 154.283 233.482 154.395 233.426C154.507 233.37 154.63 233.338 154.755 233.332C156.653 233.258 158.457 232.487 159.824 231.168C161.19 229.849 162.024 228.073 162.165 226.179C163.138 219.538 160.56 206.085 159.877 202.67C151.563 203.671 143.13 202.652 135.293 199.7C136.795 212.982 131.674 217.882 130.018 219.094L131.281 242.79Z" fill="#121116"/>
<path d="M149.565 211.599C149.565 211.599 154.379 220.443 152.979 221.842C151.579 223.242 147.857 221.842 147.857 221.842" fill="white"/>
<path d="M150.898 223.123C149.734 223.103 148.581 222.895 147.484 222.508C147.375 222.472 147.275 222.415 147.189 222.34C147.103 222.265 147.033 222.173 146.983 222.071C146.933 221.968 146.905 221.857 146.899 221.743C146.893 221.629 146.91 221.515 146.948 221.407C146.987 221.3 147.047 221.202 147.125 221.118C147.202 221.034 147.296 220.967 147.4 220.92C147.504 220.873 147.616 220.847 147.73 220.844C147.844 220.842 147.958 220.862 148.064 220.903C149.088 221.262 151.478 221.774 152.281 221.04C152.622 220.323 150.983 216.038 148.747 211.923C148.638 211.724 148.613 211.49 148.677 211.272C148.741 211.055 148.889 210.871 149.088 210.763C149.288 210.654 149.522 210.629 149.74 210.693C149.957 210.757 150.141 210.905 150.249 211.104C152.588 215.406 155.047 220.835 153.442 222.303C152.722 222.878 151.818 223.169 150.898 223.123Z" fill="#121116"/>
<path d="M144.894 212.197C145.44 212.174 145.84 211.132 145.787 209.87C145.734 208.608 145.248 207.603 144.701 207.626C144.155 207.649 143.755 208.691 143.808 209.953C143.861 211.216 144.347 212.22 144.894 212.197Z" fill="#121116"/>
<path d="M157.925 212.195C158.471 212.172 158.871 211.13 158.818 209.868C158.765 208.606 158.279 207.601 157.732 207.624C157.186 207.647 156.786 208.689 156.839 209.951C156.892 211.214 157.378 212.218 157.925 212.195Z" fill="#121116"/>
<path d="M135.618 214.45C134.745 212.922 133.586 211.577 132.203 210.489C131.479 209.847 130.571 209.447 129.608 209.345C128.816 209.347 128.041 209.571 127.372 209.994C126.374 210.583 125.512 211.375 124.842 212.32C124.171 213.264 123.707 214.339 123.479 215.474C123.254 216.526 123.295 217.618 123.599 218.65C124.168 220.253 125.287 221.602 126.757 222.457C128.213 223.295 129.76 223.965 131.367 224.454" fill="white"/>
<path d="M131.298 225.257C131.208 225.274 131.115 225.274 131.025 225.257C129.343 224.75 127.727 224.045 126.211 223.157C124.568 222.193 123.317 220.682 122.677 218.889C122.33 217.713 122.283 216.469 122.54 215.27C122.796 214.011 123.315 212.821 124.062 211.777C124.809 210.733 125.768 209.858 126.876 209.209C127.679 208.688 128.617 208.414 129.574 208.424C130.721 208.541 131.805 209.006 132.681 209.755C134.173 210.913 135.43 212.344 136.386 213.972C136.499 214.172 136.531 214.409 136.474 214.632C136.416 214.855 136.275 215.047 136.078 215.167C135.979 215.228 135.869 215.269 135.753 215.287C135.638 215.304 135.52 215.299 135.407 215.27C135.294 215.241 135.188 215.19 135.095 215.12C135.002 215.049 134.924 214.961 134.866 214.86C134.025 213.429 132.918 212.171 131.605 211.155C131.016 210.632 130.286 210.294 129.506 210.182C128.897 210.202 128.306 210.391 127.798 210.728C126.922 211.262 126.166 211.971 125.579 212.811C124.991 213.652 124.584 214.605 124.384 215.611C124.193 216.522 124.228 217.466 124.486 218.36C125 219.754 125.984 220.925 127.269 221.672C128.672 222.475 130.161 223.116 131.708 223.584C131.817 223.62 131.918 223.678 132.004 223.754C132.091 223.829 132.162 223.922 132.212 224.025C132.263 224.128 132.293 224.24 132.3 224.355C132.307 224.47 132.292 224.585 132.254 224.693C132.188 224.886 132.055 225.048 131.88 225.152C131.705 225.255 131.498 225.292 131.298 225.257Z" fill="#121116"/>
<path d="M154.772 234.22C148.929 235.13 142.947 234.149 137.7 231.42C137.7 231.42 146.373 244.753 156.053 242.876L154.772 234.22Z" fill="#121116"/>
<path d="M154.191 243.917C144.972 243.917 137.375 232.41 137.119 231.881C137.007 231.73 136.946 231.548 136.946 231.36C136.946 231.172 137.007 230.99 137.119 230.839C137.242 230.701 137.408 230.607 137.59 230.573C137.773 230.539 137.961 230.567 138.126 230.652C143.193 233.256 148.947 234.211 154.584 233.383C154.698 233.358 154.817 233.357 154.931 233.381C155.046 233.404 155.154 233.452 155.25 233.52C155.346 233.583 155.427 233.666 155.489 233.763C155.551 233.86 155.591 233.969 155.608 234.083L156.957 242.739C156.992 242.958 156.94 243.182 156.813 243.364C156.685 243.545 156.492 243.67 156.274 243.712C155.588 243.847 154.89 243.915 154.191 243.917ZM140.397 233.503C143.265 236.917 148.933 242.773 155.13 242.158L154.055 235.21C149.431 235.75 144.745 235.164 140.397 233.503Z" fill="#121116"/>
<path d="M141.901 218.24C140.253 218.24 138.642 217.752 137.272 216.836C135.902 215.921 134.834 214.62 134.204 213.097C133.573 211.575 133.408 209.9 133.729 208.284C134.051 206.668 134.844 205.183 136.01 204.018C137.175 202.853 138.659 202.059 140.275 201.738C141.891 201.416 143.566 201.581 145.089 202.212C146.611 202.843 147.912 203.91 148.828 205.28C149.743 206.65 150.232 208.261 150.232 209.909C150.227 212.117 149.348 214.234 147.787 215.795C146.225 217.357 144.109 218.236 141.901 218.24ZM141.901 203.336C140.601 203.336 139.33 203.722 138.249 204.444C137.168 205.166 136.326 206.193 135.828 207.394C135.331 208.595 135.2 209.916 135.454 211.191C135.708 212.466 136.334 213.637 137.253 214.557C138.172 215.476 139.343 216.102 140.618 216.356C141.893 216.609 143.215 216.479 144.416 215.981C145.617 215.484 146.643 214.642 147.366 213.561C148.088 212.48 148.473 211.209 148.473 209.909C148.469 208.167 147.775 206.498 146.543 205.266C145.312 204.035 143.642 203.341 141.901 203.336Z" fill="#121116"/>
<path d="M157.982 218.24C156.334 218.24 154.723 217.752 153.353 216.836C151.983 215.921 150.915 214.62 150.284 213.097C149.654 211.575 149.489 209.9 149.81 208.284C150.132 206.668 150.925 205.183 152.09 204.018C153.256 202.853 154.74 202.059 156.356 201.738C157.972 201.416 159.647 201.581 161.17 202.212C162.692 202.843 163.993 203.91 164.909 205.28C165.824 206.651 166.313 208.261 166.313 209.909C166.313 212.119 165.435 214.238 163.873 215.8C162.31 217.363 160.191 218.24 157.982 218.24ZM157.982 203.336C156.681 203.333 155.408 203.715 154.325 204.436C153.242 205.156 152.397 206.181 151.897 207.382C151.397 208.583 151.264 209.905 151.516 211.181C151.768 212.457 152.392 213.63 153.311 214.551C154.229 215.472 155.4 216.099 156.676 216.354C157.951 216.609 159.274 216.48 160.476 215.983C161.678 215.486 162.705 214.644 163.428 213.562C164.151 212.481 164.537 211.21 164.537 209.909C164.537 208.169 163.847 206.5 162.618 205.267C161.389 204.035 159.722 203.341 157.982 203.336Z" fill="#121116"/>
<path d="M236.941 250.712C236.411 249.704 240.355 244.446 240.765 243.234C242.449 238.829 244.156 234.425 245.886 230.02C246.248 228.632 247.096 227.42 248.277 226.606C248.501 226.467 248.765 226.407 249.028 226.435C249.796 226.537 249.933 227.596 249.864 228.364C249.606 231.432 249.133 234.479 248.447 237.481C251.589 232.615 254.901 227.835 258.332 223.157C258.861 222.423 259.578 221.621 260.483 221.723C260.77 221.787 261.041 221.91 261.279 222.083C261.517 222.256 261.717 222.477 261.866 222.73C263.174 224.839 263.694 227.343 263.334 229.798C262.72 237.498 258.776 244.378 254.508 250.643C252.442 253.665 250.889 256.789 248.977 259.914C248.584 260.545 244.777 265.633 245.084 266.247L236.941 250.712Z" fill="white"/>
<path d="M244.966 267.101C244.805 267.103 244.648 267.06 244.511 266.975C244.375 266.89 244.266 266.768 244.197 266.623C244.197 266.503 242.49 263.311 240.663 259.794C238.529 255.714 236.225 251.258 236.105 251.07C235.593 250.046 236.481 248.424 238.649 244.975C239.195 244.105 239.759 243.268 239.895 242.875L243.31 233.81L244.897 229.644C245.338 228.055 246.331 226.675 247.697 225.752C248.09 225.526 248.546 225.435 248.995 225.496C250.104 225.667 250.702 226.759 250.582 228.364C250.463 229.969 250.241 231.608 249.985 233.213C252.392 229.61 254.902 226.042 257.445 222.559C257.838 222.03 258.88 220.596 260.416 220.852C260.826 220.927 261.216 221.087 261.56 221.323C261.904 221.558 262.195 221.863 262.413 222.218C263.889 224.477 264.496 227.194 264.121 229.866C263.489 237.942 259.238 245.231 255.158 251.138C253.929 252.948 252.904 254.758 251.743 256.67C251.043 257.899 250.343 259.145 249.575 260.375C249.575 260.528 249.234 260.887 248.875 261.382C247.737 262.895 246.715 264.493 245.819 266.162V266.23C245.818 266.426 245.752 266.616 245.632 266.77C245.511 266.925 245.343 267.035 245.153 267.084L244.966 267.101ZM245.734 265.838L245.836 266.094C245.827 265.998 245.798 265.905 245.751 265.821L245.734 265.838ZM237.727 250.473L242.217 259.111L244.897 264.233C245.427 263.345 246.246 262.133 247.475 260.392C247.8 259.948 248.022 259.623 248.107 259.487C248.858 258.275 249.558 257.045 250.241 255.833C251.299 253.972 252.392 252.043 253.655 250.182C257.599 244.378 261.714 237.429 262.311 229.696C262.668 227.45 262.214 225.15 261.031 223.208C260.74 222.816 260.467 222.594 260.245 222.577C259.699 222.577 259.119 223.362 258.914 223.635C255.499 228.279 252.17 233.093 249.046 237.924C248.931 238.096 248.76 238.222 248.562 238.281C248.363 238.34 248.151 238.328 247.961 238.247C247.771 238.166 247.615 238.021 247.52 237.838C247.425 237.654 247.397 237.443 247.441 237.242C248.125 234.285 248.599 231.285 248.858 228.262C248.913 227.921 248.872 227.572 248.739 227.254H248.551C247.571 227.986 246.877 229.037 246.587 230.225L244.983 234.391C243.845 237.418 242.706 240.44 241.568 243.456C241.17 244.296 240.701 245.101 240.168 245.863C239.187 247.281 238.368 248.804 237.727 250.404V250.473Z" fill="#121116"/>
<path d="M176.522 243.405C176.522 243.405 203.24 264.267 208.738 266.998C214.235 269.73 234.175 243.405 234.175 243.405L252.306 258.906C252.306 258.906 225.724 300.238 208.755 299.589C191.785 298.941 170.547 269.645 170.547 269.645" fill="#FF794E"/>
<path d="M250.411 247.792H250.241C250.127 247.772 250.019 247.729 249.922 247.666C249.825 247.603 249.741 247.522 249.676 247.427C249.611 247.331 249.565 247.224 249.542 247.111C249.519 246.998 249.518 246.881 249.541 246.768C250.702 240.503 247.919 238.232 247.833 238.232C247.741 238.163 247.663 238.076 247.604 237.977C247.545 237.878 247.506 237.767 247.491 237.653C247.475 237.539 247.482 237.422 247.511 237.311C247.541 237.199 247.592 237.094 247.663 237.003C247.802 236.821 248.005 236.701 248.231 236.666C248.457 236.631 248.687 236.684 248.875 236.815C249.028 236.934 252.699 239.717 251.299 247.058C251.269 247.269 251.162 247.462 250.998 247.598C250.833 247.733 250.624 247.803 250.411 247.792Z" fill="#121116"/>
<path d="M149.872 228.176C147.936 228.175 146.033 227.674 144.346 226.723C142.66 225.773 141.247 224.403 140.243 222.747C140.12 222.559 140.076 222.33 140.12 222.109C140.165 221.888 140.295 221.694 140.482 221.569C140.574 221.505 140.677 221.46 140.786 221.436C140.896 221.412 141.008 221.411 141.118 221.432C141.228 221.452 141.333 221.495 141.426 221.556C141.519 221.618 141.599 221.698 141.66 221.791C142.862 223.791 144.741 225.292 146.956 226.022C149.172 226.753 151.576 226.663 153.731 225.769C153.937 225.677 154.171 225.67 154.382 225.75C154.593 225.83 154.764 225.99 154.857 226.196C154.945 226.402 154.95 226.635 154.87 226.845C154.791 227.055 154.633 227.226 154.43 227.322C152.978 227.891 151.432 228.181 149.872 228.176Z" fill="#121116"/>
<path d="M179.63 308.228H179.545C179.312 308.202 179.099 308.085 178.952 307.903C178.804 307.721 178.735 307.488 178.759 307.255L183.147 262.133C183.177 261.902 183.295 261.691 183.476 261.545C183.657 261.399 183.888 261.328 184.12 261.348C184.235 261.358 184.346 261.391 184.447 261.445C184.549 261.499 184.639 261.573 184.712 261.662C184.785 261.751 184.84 261.853 184.873 261.963C184.906 262.073 184.917 262.189 184.905 262.304L180.603 307.426C180.592 307.542 180.559 307.656 180.504 307.759C180.449 307.863 180.374 307.955 180.284 308.03C180.193 308.104 180.089 308.16 179.977 308.194C179.865 308.228 179.747 308.24 179.63 308.228Z" fill="#121116"/>
<path d="M129.436 326.239L140.943 277.481L189.24 281.168L175.89 334.212L129.436 326.239Z" fill="white"/>
<path d="M175.891 335.1H175.737L129.386 327.11C129.266 327.092 129.15 327.05 129.048 326.985C128.945 326.921 128.856 326.835 128.789 326.734C128.666 326.529 128.624 326.286 128.669 326.051L140.176 277.276C140.221 277.07 140.339 276.887 140.508 276.761C140.678 276.636 140.887 276.576 141.098 276.593L189.378 280.298C189.506 280.304 189.632 280.339 189.744 280.401C189.857 280.463 189.953 280.551 190.027 280.656C190.101 280.761 190.154 280.881 190.18 281.007C190.206 281.134 190.207 281.264 190.18 281.39L176.744 334.519C176.68 334.693 176.564 334.842 176.411 334.946C176.258 335.05 176.076 335.104 175.891 335.1ZM130.513 325.539L175.242 333.205L188.132 281.988L141.627 278.42L130.513 325.539Z" fill="#121116"/>
<path d="M119.605 305.497C119.605 305.497 131.128 297.746 135.311 296.226C140.945 294.161 146.186 293.546 146.92 296.482C147.654 299.419 145.537 306.726 143.267 308.433C140.996 310.14 136.096 311.608 133.331 314.289C130.565 316.969 119.673 320.384 119.673 320.384L119.605 305.497Z" fill="white"/>
<path d="M119.604 321.186C119.413 321.19 119.227 321.129 119.074 321.015C118.964 320.931 118.874 320.823 118.811 320.698C118.749 320.574 118.716 320.437 118.716 320.298V305.496C118.716 305.354 118.752 305.213 118.821 305.088C118.889 304.963 118.988 304.857 119.108 304.779C119.587 304.455 130.769 296.943 135.003 295.39C137.956 294.314 143.351 292.709 146.134 294.195C146.555 294.39 146.926 294.676 147.222 295.034C147.517 295.391 147.729 295.81 147.841 296.26C148.643 299.385 146.544 307.084 143.88 309.133C142.643 309.979 141.329 310.705 139.954 311.301C137.806 312.209 135.804 313.428 134.013 314.92C131.144 317.72 120.355 321.083 119.928 321.237L119.604 321.186ZM120.474 305.821V319.154C124.042 317.976 130.82 315.484 132.715 313.623C134.634 311.988 136.794 310.658 139.117 309.679C140.379 309.127 141.591 308.464 142.736 307.699C144.649 306.231 146.748 299.316 146.151 296.653C146.104 296.45 146.013 296.26 145.883 296.098C145.753 295.935 145.588 295.804 145.4 295.714C143.812 294.877 140.278 295.373 135.703 297.012C131.998 298.292 122.557 304.54 120.474 305.889V305.821Z" fill="#121116"/>
<path d="M105.485 245.146C105.485 245.146 50 290.609 50 315.347C50 340.085 121.277 323.149 121.277 323.149L122.557 300.05L86.2785 304.54L121.277 277.464L105.485 245.146Z" fill="#FF794E"/>
<path d="M115.268 424.234L119.433 439.804H135.942L134.491 415.647L115.268 424.234Z" fill="white"/>
<path d="M135.941 440.691H119.433C119.236 440.693 119.045 440.628 118.89 440.507C118.735 440.386 118.625 440.217 118.579 440.026L114.413 424.473C114.362 424.269 114.383 424.053 114.473 423.863C114.564 423.673 114.718 423.52 114.908 423.431L134.132 414.895C134.261 414.841 134.402 414.818 134.543 414.828C134.683 414.839 134.819 414.883 134.939 414.956C135.059 415.03 135.16 415.13 135.233 415.25C135.306 415.37 135.35 415.506 135.361 415.647L136.829 439.804C136.838 439.923 136.821 440.042 136.78 440.154C136.739 440.266 136.674 440.368 136.59 440.452C136.505 440.535 136.403 440.599 136.291 440.641C136.179 440.682 136.06 440.699 135.941 440.691ZM120.098 438.984H135.019L133.688 417.029L116.308 424.797L120.098 438.984Z" fill="#121116"/>
<path d="M133.893 347.887C131.281 332.078 107.448 328.407 103.538 343.977C96.3338 372.71 111.357 431.507 111.357 431.507L136.607 430.209C136.607 430.209 136.505 363.696 133.893 347.887Z" fill="#121116"/>
<path d="M111.357 432.36C111.167 432.363 110.982 432.302 110.83 432.188C110.679 432.073 110.57 431.912 110.521 431.729C109.906 429.321 95.5311 372.385 102.719 343.772C104.767 335.578 111.733 332.931 117.52 333.153C124.93 333.461 133.21 338.565 134.729 347.75C137.324 363.44 137.461 427.495 137.461 430.209C137.465 430.428 137.384 430.64 137.234 430.8C137.084 430.959 136.877 431.054 136.658 431.063L111.391 432.36H111.357ZM116.82 334.844C113.98 334.696 111.179 335.55 108.904 337.256C106.63 338.963 105.027 341.414 104.375 344.182C97.7164 370.729 110.384 423.995 112.006 430.619L135.753 429.407C135.753 421.758 135.463 362.637 133.056 348.023C131.673 339.743 124.161 335.134 117.452 334.861L116.82 334.844Z" fill="#121116"/>
<path d="M119.432 439.804C119.432 439.804 97.0501 460.564 103.879 463.705C110.708 466.846 135.941 451.584 135.941 451.584L135.821 437.67L119.432 439.804Z" fill="#121116"/>
<path d="M106.236 465.002C105.307 465.034 104.381 464.865 103.522 464.507C103.068 464.304 102.674 463.989 102.375 463.592C102.077 463.195 101.884 462.729 101.815 462.237C100.842 456.108 117.043 440.896 118.887 439.172C119.016 439.055 119.176 438.978 119.348 438.95L135.754 436.85C135.872 436.834 135.992 436.843 136.107 436.875C136.221 436.907 136.328 436.963 136.42 437.038C136.512 437.119 136.586 437.219 136.636 437.331C136.686 437.443 136.711 437.564 136.71 437.687L136.83 451.601C136.836 451.749 136.801 451.896 136.729 452.026C136.657 452.155 136.55 452.262 136.42 452.335C134.047 453.752 115.216 465.002 106.236 465.002ZM119.894 440.606C112.912 447.128 102.924 458.037 103.539 461.964C103.573 462.182 103.663 462.389 103.801 462.562C103.939 462.736 104.119 462.871 104.324 462.954C109.446 465.344 127.952 455.459 135.174 451.123L135.054 438.66L119.894 440.606Z" fill="#121116"/>
<path d="M180.652 424.234L176.487 439.804H159.961L161.429 415.647L180.652 424.234Z" fill="white"/>
<path d="M176.488 440.692H159.962C159.842 440.692 159.723 440.667 159.614 440.617C159.504 440.567 159.408 440.493 159.33 440.401C159.246 440.316 159.182 440.215 159.14 440.103C159.099 439.991 159.082 439.872 159.091 439.753L160.559 415.595C160.566 415.454 160.606 415.317 160.678 415.195C160.749 415.073 160.849 414.97 160.969 414.895C161.095 414.828 161.236 414.793 161.379 414.793C161.522 414.793 161.662 414.828 161.789 414.895L181.012 423.432C181.203 423.52 181.356 423.673 181.447 423.863C181.537 424.053 181.558 424.269 181.507 424.473L177.341 440.026C177.292 440.215 177.182 440.383 177.028 440.504C176.873 440.624 176.683 440.69 176.488 440.692ZM160.901 438.984H175.805L179.612 424.797L162.232 417.029L160.901 438.984Z" fill="#121116"/>
<path d="M159.963 350.106C162.438 333.034 185.69 324.122 190.01 347.887C195.319 377.029 183.181 427.717 183.181 427.717L157.572 425.241C157.572 425.241 157.487 367.178 159.963 350.106Z" fill="#121116"/>
<path d="M183.112 428.57H183.027L157.419 426.095C157.206 426.077 157.008 425.979 156.865 425.82C156.722 425.662 156.645 425.454 156.65 425.241C156.65 424.661 156.65 366.922 159.058 349.969C160.423 340.511 168.294 332.709 176.608 332.556C180.022 332.556 188.251 333.853 190.778 347.733C196.053 376.756 183.949 427.409 183.949 427.973C183.893 428.15 183.782 428.304 183.631 428.411C183.48 428.519 183.298 428.575 183.112 428.57ZM158.409 424.473L182.429 426.795C183.881 420.512 194.022 374.792 189.156 348.04C187.449 339.163 183.027 334.109 176.693 334.263C170.359 334.417 162.199 340.511 160.799 350.226C158.528 365.983 158.409 417.524 158.409 424.473Z" fill="#121116"/>
<path d="M176.488 439.804C176.488 439.804 195.267 456.978 188.439 460.154C181.61 463.329 159.877 451.618 159.877 451.618L160.013 437.704L176.488 439.804Z" fill="#121116"/>
<path d="M185.554 461.52C176.677 461.52 160.356 452.779 159.553 452.352C159.419 452.278 159.306 452.169 159.228 452.037C159.15 451.905 159.109 451.754 159.109 451.601L159.246 437.687C159.245 437.564 159.27 437.443 159.32 437.331C159.37 437.219 159.444 437.119 159.536 437.038C159.628 436.963 159.735 436.907 159.85 436.875C159.964 436.843 160.084 436.834 160.202 436.85L176.591 438.95C176.763 438.978 176.923 439.055 177.052 439.172C178.555 440.538 191.7 452.676 190.83 458.43C190.743 458.976 190.519 459.492 190.179 459.928C189.838 460.364 189.393 460.706 188.883 460.922C187.83 461.361 186.694 461.565 185.554 461.52ZM160.834 451.106C167.116 454.52 183.028 461.776 188.149 459.369C188.404 459.276 188.629 459.116 188.801 458.905C188.972 458.695 189.083 458.442 189.122 458.173C189.737 454.127 180.108 444.311 176.096 440.606L160.936 438.66L160.834 451.106Z" fill="#121116"/>
<path d="M178.006 266.23H163.256V269.798H178.006V266.23Z" fill="#121116"/>
<path d="M101.627 303.789C101.511 303.791 101.396 303.771 101.288 303.728C101.181 303.685 101.083 303.621 101 303.54C100.917 303.459 100.852 303.362 100.807 303.256C100.762 303.149 100.739 303.034 100.739 302.918V261.006C100.701 260.874 100.695 260.735 100.72 260.6C100.745 260.465 100.801 260.337 100.884 260.228C100.967 260.118 101.074 260.029 101.197 259.968C101.32 259.906 101.455 259.874 101.593 259.874C101.73 259.874 101.866 259.906 101.989 259.968C102.111 260.029 102.219 260.118 102.301 260.228C102.384 260.337 102.44 260.465 102.465 260.6C102.491 260.735 102.484 260.874 102.446 261.006V302.953C102.438 303.169 102.35 303.375 102.198 303.529C102.047 303.684 101.843 303.777 101.627 303.789Z" fill="#121116"/>
<path d="M76.8893 306.726C76.6751 306.727 76.4678 306.65 76.3072 306.508C76.1465 306.366 76.0438 306.17 76.0186 305.957C75.9893 305.727 76.0515 305.494 76.192 305.309C76.3324 305.124 76.5399 305.001 76.7698 304.967L122.438 299.18C122.559 299.145 122.685 299.137 122.809 299.156C122.933 299.174 123.052 299.22 123.156 299.289C123.261 299.357 123.35 299.448 123.417 299.554C123.483 299.66 123.526 299.78 123.542 299.904C123.558 300.029 123.547 300.155 123.51 300.275C123.473 300.395 123.41 300.505 123.327 300.598C123.243 300.691 123.14 300.766 123.025 300.815C122.91 300.865 122.785 300.89 122.66 300.887L77.0088 306.692L76.8893 306.726Z" fill="#121116"/>
<path d="M414.099 190.907L414.662 189.986C421.32 179.742 435.439 178.769 444.658 186.383C445.293 186.991 446.026 187.487 446.826 187.852C447.821 188.096 448.841 188.228 449.865 188.244C453.416 188.722 455.909 191.881 457.889 194.868C463.642 203.609 464.718 218.069 464.718 228.347C464.718 236.371 462.806 244.634 457.889 250.985C450.907 259.982 439.024 263.789 427.671 264.745C415.106 265.803 401.09 263.311 393.066 253.58C389.651 249.499 387.637 243.831 389.429 238.846C391 234.51 395.063 231.659 398.119 228.193C407.048 217.984 407.082 202.551 414.099 190.907Z" fill="white"/>
<path d="M422.295 265.974C409.269 265.974 398.513 261.826 392.248 254.229C389.055 250.353 386.375 244.19 388.441 238.505C389.838 235.379 391.921 232.607 394.536 230.396C395.474 229.474 396.448 228.518 397.301 227.528C402.235 221.928 404.369 214.792 406.64 207.229C408.125 201.365 410.339 195.709 413.23 190.395C413.435 190.071 413.622 189.747 413.827 189.439C415.341 187.076 417.343 185.064 419.699 183.539C422.054 182.014 424.709 181.01 427.485 180.596C430.627 180.135 433.831 180.342 436.888 181.204C439.944 182.066 442.785 183.563 445.223 185.598L445.479 185.803C445.893 186.269 446.408 186.633 446.986 186.867C447.563 187.101 448.187 187.198 448.808 187.152C449.184 187.152 449.559 187.152 449.918 187.254C453.862 187.766 456.542 191.112 458.659 194.322C463.285 201.339 465.624 212.777 465.607 228.347C465.607 234.817 464.378 244.088 458.574 251.599C450.652 261.843 437.387 264.933 427.656 265.752C425.88 265.906 424.053 265.974 422.295 265.974ZM414.954 191.437C412.158 196.61 410.013 202.109 408.569 207.809C406.35 215.236 404.045 222.918 398.821 228.876C397.916 229.901 396.909 230.891 395.935 231.83C393.549 233.839 391.636 236.352 390.336 239.188C388.629 244.088 390.967 249.431 393.75 252.931C400.425 261.04 412.735 264.984 427.502 263.738C436.841 262.952 449.525 259.999 456.986 250.37C462.449 243.302 463.61 234.493 463.61 228.347C463.61 213.187 461.39 202.107 457.003 195.432C455.125 192.598 452.803 189.661 449.679 189.252C449.355 189.235 449.03 189.235 448.706 189.252C447.869 189.287 447.035 189.143 446.258 188.831C445.481 188.519 444.779 188.046 444.199 187.442L443.96 187.237C441.754 185.367 439.178 183.985 436.401 183.181C433.623 182.378 430.707 182.172 427.843 182.576C425.341 182.943 422.947 183.842 420.821 185.211C418.695 186.58 416.887 188.389 415.517 190.515L414.954 191.42V191.437Z" fill="#121116"/>
<path d="M399.554 335.492C399.554 335.492 391.343 366.308 395.764 366.308H460.485V339.095L399.554 335.492Z" fill="#121116"/>
<path d="M460.485 367.161H395.713C395.442 367.16 395.176 367.095 394.935 366.97C394.695 366.845 394.487 366.665 394.33 366.444C391.53 362.808 397.455 339.829 398.667 335.271C398.723 335.082 398.841 334.917 399.002 334.802C399.163 334.688 399.357 334.631 399.554 334.639L460.588 338.241C460.805 338.254 461.009 338.35 461.158 338.509C461.308 338.667 461.39 338.877 461.39 339.095V366.308C461.388 366.424 461.363 366.538 461.316 366.644C461.269 366.75 461.201 366.845 461.117 366.925C461.033 367.004 460.933 367.066 460.825 367.107C460.716 367.147 460.601 367.166 460.485 367.161ZM400.203 336.431C396.277 351.284 394.262 364.532 395.781 365.454H459.632V339.846L400.203 336.431Z" fill="#121116"/>
<path d="M434.978 341.348L415.601 340.153L389.037 345.155C392.793 312.001 395.866 250.729 398.939 247.314C410.736 234.476 441.005 238.778 441.005 238.778C441.005 238.778 462.806 239.837 469.703 252.59C471.411 255.782 472.076 334.861 471.837 348.672L434.978 341.348Z" fill="#FFC631"/>
<path d="M422.806 245.607C419.562 249.687 407.663 342.594 407.663 342.594H440.868L445.7 243.456L422.806 245.607Z" fill="#121116"/>
<path d="M440.869 343.448H407.663C407.544 343.445 407.426 343.417 407.318 343.367C407.209 343.318 407.112 343.246 407.032 343.158C406.948 343.067 406.887 342.958 406.851 342.84C406.816 342.722 406.807 342.597 406.827 342.475C408.039 332.949 418.777 249.226 422.192 245.163C422.341 244.982 422.556 244.865 422.789 244.839L445.666 242.688C445.79 242.678 445.915 242.695 446.033 242.736C446.15 242.777 446.258 242.842 446.349 242.927C446.436 243.013 446.504 243.117 446.548 243.232C446.593 243.347 446.612 243.47 446.605 243.593L441.808 342.629C441.804 342.745 441.776 342.86 441.726 342.966C441.675 343.071 441.604 343.165 441.516 343.242C441.428 343.319 441.325 343.377 441.214 343.412C441.103 343.448 440.985 343.46 440.869 343.448ZM408.636 341.741H440.101L444.83 244.429L423.353 246.461C420.86 251.531 413.314 305.36 408.636 341.741Z" fill="#121116"/>
<path d="M436.806 222.406C437.6 221.08 438.643 219.92 439.879 218.991C440.511 218.415 441.314 218.062 442.166 217.984C442.863 217.982 443.546 218.184 444.13 218.565C445.006 219.081 445.763 219.777 446.351 220.607C446.94 221.437 447.346 222.381 447.544 223.379C447.741 224.306 447.706 225.268 447.442 226.179C446.947 227.61 445.961 228.82 444.659 229.593C443.378 230.324 442.014 230.897 440.596 231.301" fill="white"/>
<path d="M440.613 232.086C440.427 232.091 440.246 232.035 440.095 231.927C439.944 231.819 439.832 231.665 439.776 231.488C439.739 231.38 439.723 231.264 439.73 231.15C439.738 231.035 439.767 230.923 439.818 230.82C439.869 230.716 439.94 230.624 440.026 230.549C440.113 230.473 440.214 230.415 440.323 230.379C441.675 229.957 442.975 229.385 444.198 228.671C445.314 228.025 446.171 227.011 446.622 225.803C446.841 225.036 446.87 224.228 446.708 223.447C446.524 222.571 446.161 221.742 445.641 221.013C445.121 220.284 444.455 219.672 443.686 219.213C443.24 218.932 442.728 218.773 442.201 218.752C441.536 218.843 440.912 219.128 440.408 219.572C439.267 220.464 438.305 221.565 437.574 222.816C437.453 223.016 437.258 223.161 437.031 223.219C436.804 223.276 436.564 223.242 436.362 223.123C436.263 223.065 436.177 222.988 436.108 222.896C436.039 222.805 435.989 222.7 435.96 222.589C435.931 222.478 435.925 222.363 435.941 222.249C435.958 222.136 435.996 222.026 436.055 221.928C436.896 220.482 438.009 219.212 439.332 218.189C440.123 217.516 441.1 217.099 442.132 216.994C442.991 216.991 443.832 217.234 444.557 217.694C445.545 218.275 446.401 219.056 447.069 219.989C447.736 220.921 448.201 221.983 448.432 223.106C448.654 224.176 448.607 225.285 448.295 226.332C447.73 227.937 446.618 229.291 445.154 230.157C443.814 230.936 442.387 231.554 440.903 232C440.812 232.046 440.714 232.074 440.613 232.086Z" fill="#121116"/>
<path d="M467.656 376.841L454.323 437.926H438.309L435.458 358.984L467.656 376.841Z" fill="white"/>
<path d="M454.322 438.796H438.394C438.167 438.797 437.949 438.71 437.784 438.555C437.619 438.399 437.519 438.186 437.506 437.96L434.655 359.018C434.649 358.861 434.685 358.704 434.76 358.566C434.835 358.428 434.946 358.313 435.082 358.232C435.217 358.156 435.37 358.116 435.526 358.116C435.681 358.116 435.834 358.156 435.97 358.232L468.168 376.09C468.333 376.182 468.464 376.324 468.541 376.497C468.618 376.669 468.637 376.862 468.595 377.046L455.278 438.131C455.226 438.338 455.101 438.52 454.925 438.642C454.749 438.765 454.535 438.819 454.322 438.796ZM439.145 437.089H453.622L466.648 377.336L436.396 360.554L439.145 437.089Z" fill="#121116"/>
<path d="M454.321 437.926C454.321 437.926 471.889 458.703 469.413 461.127C464.206 466.249 438.308 449.381 438.308 449.381L438.427 435.877L454.321 437.926Z" fill="#121116"/>
<path d="M466.426 462.902C457.787 462.902 440.135 451.583 437.83 450.081C437.709 450.006 437.611 449.899 437.545 449.773C437.479 449.647 437.448 449.506 437.454 449.364L437.574 435.86C437.573 435.74 437.598 435.621 437.648 435.512C437.699 435.403 437.772 435.306 437.864 435.228C438.053 435.08 438.29 435.007 438.53 435.023L454.441 437.072C454.649 437.109 454.84 437.211 454.987 437.362C461.731 445.352 472.657 459.146 470.011 461.741C469.519 462.161 468.949 462.48 468.334 462.679C467.719 462.878 467.07 462.954 466.426 462.902ZM439.11 448.92C448.944 455.271 465.367 463.858 468.765 460.529C469.448 458.822 461.594 447.93 453.844 438.728L439.213 436.833L439.11 448.92Z" fill="#121116"/>
<path d="M378.777 373.683L398.974 437.277H415.005L407.664 364.532C407.664 364.532 415.312 348.894 399.025 356.218C382.738 363.542 378.777 373.683 378.777 373.683Z" fill="white"/>
<path d="M415.005 438.165H398.974C398.787 438.166 398.605 438.106 398.454 437.996C398.303 437.885 398.192 437.729 398.137 437.55L377.941 373.956C377.88 373.761 377.88 373.553 377.941 373.358C378.112 372.932 382.209 362.791 398.649 355.416C403.976 353.025 407.425 352.752 409.183 354.579C411.795 357.259 409.183 363.269 408.551 364.686L415.858 437.192C415.874 437.315 415.863 437.44 415.824 437.558C415.786 437.676 415.722 437.784 415.636 437.874C415.556 437.963 415.459 438.034 415.35 438.084C415.242 438.134 415.124 438.161 415.005 438.165ZM399.64 436.457H414.049L406.81 364.669C406.795 364.505 406.825 364.34 406.895 364.191C407.698 362.569 409.593 357.532 407.954 355.842C406.827 354.664 403.771 355.108 399.418 357.072C385.162 363.474 380.519 372.146 379.768 373.785L399.64 436.457Z" fill="#121116"/>
<path d="M398.973 437.926L383.045 458.191C389.669 461.264 415.004 449.381 415.004 449.381L414.885 435.877L398.973 437.926Z" fill="#121116"/>
<path d="M385.999 459.539C384.866 459.586 383.736 459.388 382.687 458.959C382.569 458.907 382.464 458.828 382.382 458.729C382.299 458.629 382.241 458.512 382.211 458.386C382.181 458.261 382.181 458.13 382.21 458.004C382.239 457.878 382.297 457.761 382.38 457.661L398.308 437.397C398.376 437.308 398.46 437.233 398.557 437.178C398.654 437.122 398.761 437.086 398.871 437.072L414.766 435.024C415.006 435.002 415.245 435.076 415.431 435.228C415.522 435.308 415.596 435.405 415.649 435.513C415.702 435.622 415.732 435.74 415.739 435.86L415.858 449.364C415.86 449.529 415.815 449.691 415.727 449.83C415.639 449.97 415.513 450.08 415.363 450.15C413.076 451.225 395.064 459.539 385.999 459.539ZM384.48 457.832C390.66 458.908 407.271 452.096 414.134 448.92L414.032 436.97L399.435 438.66L384.48 457.832Z" fill="#121116"/>
<path d="M397.42 339.095C397.42 339.095 381.56 335.8 378.641 374.315C378.641 374.315 395.849 377.166 426.648 381.519C458.795 386.06 467.792 389.782 467.792 389.782C467.792 389.782 481.825 353.794 469.192 335.492C456.558 317.191 397.42 339.095 397.42 339.095Z" fill="#121116"/>
<path d="M467.928 390.636C467.821 390.66 467.71 390.66 467.603 390.636C467.518 390.636 458.248 386.897 426.63 382.424C396.173 378.122 378.828 375.254 378.606 375.219C378.398 375.182 378.211 375.069 378.082 374.902C377.952 374.734 377.89 374.525 377.906 374.315C379.493 352.752 385.23 344.131 389.856 340.699C391.987 338.952 394.705 338.085 397.453 338.275C401.926 336.568 457.479 316.798 470.096 335.065C475.457 342.85 476.925 354.511 474.262 369.722C473.049 376.701 471.214 383.557 468.781 390.209C468.74 390.315 468.678 390.412 468.599 390.494C468.52 390.577 468.425 390.642 468.32 390.687C468.187 390.702 468.052 390.685 467.928 390.636ZM379.698 373.563C383.369 374.161 400.066 376.841 426.903 380.631C453.741 384.421 464.564 387.665 467.416 388.655C469.345 383.312 479.844 352.189 468.628 335.936C456.523 318.369 398.375 339.641 397.778 339.846C397.628 339.896 397.466 339.896 397.317 339.846C396.14 339.737 394.954 339.869 393.83 340.233C392.706 340.597 391.668 341.185 390.778 341.963C386.596 345.241 381.303 353.299 379.698 373.598V373.563Z" fill="#121116"/>
<path d="M423.301 235.108L421.986 249.363C421.986 249.363 426.322 254.331 432.144 254.792C434.815 255.02 437.488 254.381 439.767 252.969C442.046 251.558 443.809 249.449 444.795 246.956C445.495 234.186 446.502 221.45 446.621 208.697C446.663 208.423 446.602 208.143 446.451 207.912C446.304 207.788 446.129 207.702 445.942 207.661C445.755 207.619 445.56 207.623 445.375 207.673L441.619 208.134L441.261 201.066C440.309 202.22 439.485 203.473 438.802 204.804L428.337 203.883L427.125 197.549C426.448 198.555 426.113 199.752 426.169 200.963C426.032 202.124 425.554 203.456 424.462 203.763C423.951 203.882 423.419 203.882 422.908 203.763L415.038 202.209C415.038 202.209 413.621 223.481 413.723 225.274C414.082 232.615 423.301 235.108 423.301 235.108Z" fill="white"/>
<path d="M433.272 255.868H432.008C427.828 255.268 423.992 253.219 421.167 250.08C420.996 249.869 420.91 249.6 420.928 249.329L422.158 235.876C419.768 235.039 412.973 232.069 412.614 225.24C412.614 225.035 413.536 202.005 414.321 201.339C414.437 201.238 414.574 201.166 414.722 201.128C414.87 201.089 415.025 201.085 415.175 201.117L423.062 202.67C423.423 202.744 423.795 202.744 424.155 202.67C424.736 202.517 425.06 201.561 425.162 200.724V200.229C425.162 198.994 425.57 197.794 426.323 196.815C426.452 196.679 426.615 196.58 426.796 196.529C426.976 196.478 427.167 196.476 427.348 196.524C427.529 196.574 427.693 196.674 427.82 196.813C427.947 196.952 428.032 197.124 428.065 197.31L429.14 202.892L438.171 203.695C438.815 202.489 439.569 201.346 440.425 200.28C440.556 200.122 440.733 200.007 440.932 199.952C441.13 199.898 441.34 199.905 441.535 199.973C441.727 200.036 441.896 200.156 442.018 200.318C442.141 200.48 442.21 200.675 442.218 200.878L442.525 206.853L445.188 206.529C445.489 206.437 445.808 206.423 446.117 206.487C446.425 206.551 446.712 206.691 446.951 206.895C447.191 207.099 447.376 207.36 447.488 207.654C447.601 207.948 447.638 208.266 447.595 208.577C447.442 218.36 446.844 228.279 446.281 237.873C446.093 240.861 445.922 243.866 445.751 246.87C445.767 246.967 445.767 247.065 445.751 247.161C444.77 249.686 443.059 251.863 440.836 253.413C438.614 254.964 435.981 255.818 433.272 255.868ZM423.028 249.039C425.47 251.614 428.703 253.297 432.213 253.819C434.641 254.041 437.077 253.475 439.158 252.205C441.24 250.935 442.857 249.029 443.771 246.768L444.283 237.925C444.864 228.347 445.444 218.445 445.598 208.714H445.478L441.722 209.175C441.585 209.192 441.445 209.18 441.312 209.139C441.18 209.097 441.058 209.028 440.954 208.936C440.849 208.847 440.762 208.738 440.701 208.615C440.639 208.491 440.603 208.357 440.596 208.219L440.374 204.053C440.135 204.463 439.896 204.873 439.674 205.3C439.591 205.483 439.452 205.635 439.277 205.733C439.102 205.831 438.9 205.871 438.701 205.846L428.235 204.924C428.017 204.909 427.81 204.822 427.646 204.677C427.483 204.532 427.372 204.336 427.331 204.122L426.938 202.09C426.824 202.685 426.553 203.239 426.154 203.695C425.755 204.151 425.242 204.493 424.667 204.685C424.006 204.85 423.314 204.85 422.653 204.685L415.824 203.353C415.517 207.673 414.526 223.635 414.612 225.155C414.97 231.83 423.404 234.186 423.489 234.203C423.722 234.263 423.926 234.404 424.064 234.602C424.202 234.799 424.264 235.039 424.24 235.278L423.028 249.039Z" fill="#121116"/>
<path d="M440.1 219.06C440.763 217.504 441.935 216.22 443.425 215.419C444.914 214.619 446.632 214.349 448.295 214.655C452.358 215.714 451.863 220.374 450.276 223.191C449.791 224.07 449.138 224.844 448.352 225.469C447.567 226.093 446.665 226.555 445.699 226.828C444.734 227.102 443.723 227.18 442.727 227.06C441.731 226.94 440.768 226.623 439.896 226.128" fill="white"/>
<path d="M443.687 228.193C442.196 228.195 440.73 227.807 439.436 227.067C439.319 227.004 439.216 226.919 439.132 226.816C439.049 226.713 438.987 226.594 438.951 226.467C438.914 226.339 438.903 226.206 438.919 226.074C438.935 225.943 438.977 225.816 439.043 225.701C439.176 225.467 439.395 225.295 439.654 225.221C439.913 225.148 440.19 225.179 440.426 225.308C441.952 226.169 443.757 226.39 445.445 225.923C447.131 225.436 448.559 224.308 449.423 222.781C449.914 221.967 450.232 221.06 450.359 220.117C450.485 219.175 450.416 218.216 450.157 217.301C449.976 216.868 449.692 216.486 449.329 216.188C448.965 215.89 448.535 215.686 448.074 215.594C446.658 215.348 445.2 215.584 443.934 216.265C442.668 216.946 441.667 218.032 441.092 219.35C441.001 219.603 440.814 219.811 440.57 219.926C440.327 220.041 440.048 220.055 439.794 219.965C439.541 219.874 439.334 219.686 439.218 219.443C439.103 219.2 439.089 218.921 439.18 218.667C439.906 216.855 441.241 215.353 442.954 214.418C444.668 213.484 446.653 213.175 448.569 213.545C449.321 213.71 450.023 214.052 450.617 214.541C451.211 215.031 451.679 215.655 451.984 216.362C452.365 217.561 452.489 218.827 452.348 220.078C452.207 221.328 451.804 222.534 451.165 223.618C450.063 225.608 448.224 227.086 446.043 227.732C445.284 228 444.49 228.155 443.687 228.193Z" fill="#121116"/>
<path d="M424.548 210.285C424.548 210.285 418.573 217.114 419.58 218.462C420.588 219.811 424.002 219.521 424.002 219.521" fill="white"/>
<path d="M422.926 220.596C422.157 220.669 421.381 220.568 420.656 220.299C419.932 220.03 419.278 219.6 418.743 219.042C417.787 217.642 419.477 214.484 423.865 209.619C423.959 209.524 424.07 209.448 424.193 209.397C424.316 209.345 424.448 209.319 424.582 209.319C424.715 209.319 424.847 209.345 424.971 209.397C425.094 209.448 425.205 209.524 425.299 209.619C425.487 209.81 425.592 210.067 425.592 210.336C425.592 210.604 425.487 210.861 425.299 211.053C422.755 213.921 420.553 217.13 420.485 218.052C421.525 218.625 422.732 218.818 423.899 218.599C424.166 218.567 424.435 218.643 424.646 218.809C424.858 218.976 424.994 219.219 425.026 219.486C425.057 219.753 424.982 220.022 424.815 220.234C424.649 220.445 424.405 220.581 424.138 220.613C423.916 220.545 423.472 220.596 422.926 220.596Z" fill="#121116"/>
<path d="M423.302 235.108C427.48 235.89 431.8 235.145 435.475 233.008C435.475 233.008 432.06 242.807 422.585 242.824L423.302 235.108Z" fill="#121116"/>
<path d="M422.584 243.831C422.444 243.83 422.305 243.799 422.177 243.741C422.049 243.683 421.934 243.6 421.839 243.496C421.745 243.392 421.673 243.269 421.628 243.136C421.582 243.003 421.565 242.862 421.577 242.722L422.294 235.022C422.303 234.872 422.346 234.727 422.419 234.596C422.493 234.465 422.595 234.352 422.718 234.267C422.842 234.181 422.983 234.125 423.131 234.102C423.279 234.079 423.431 234.09 423.574 234.134C427.498 234.814 431.536 234.088 434.979 232.086C435.155 231.986 435.359 231.943 435.561 231.965C435.763 231.986 435.954 232.07 436.105 232.205C436.262 232.334 436.376 232.508 436.431 232.703C436.486 232.899 436.48 233.106 436.413 233.298C436.413 233.4 432.708 243.78 422.567 243.797L422.584 243.831ZM424.206 236.303L423.711 241.766C425.742 241.514 427.683 240.774 429.366 239.608C431.048 238.443 432.424 236.887 433.374 235.073C430.466 236.231 427.317 236.654 424.206 236.303Z" fill="#121116"/>
<path d="M432.921 211.202C432.926 209.958 432.486 208.947 431.939 208.945C431.392 208.944 430.945 209.951 430.941 211.196C430.937 212.44 431.377 213.451 431.924 213.453C432.471 213.454 432.917 212.447 432.921 211.202Z" fill="#121116"/>
<path d="M420.114 210.323C420.184 209.081 419.798 208.048 419.252 208.018C418.706 207.987 418.206 208.969 418.136 210.212C418.066 211.455 418.452 212.487 418.998 212.518C419.544 212.548 420.044 211.566 420.114 210.323Z" fill="#121116"/>
<path d="M425.043 225.035C423.413 225.003 421.799 224.709 420.263 224.164L419.768 223.994C419.508 223.944 419.277 223.795 419.124 223.578C418.971 223.362 418.908 223.095 418.948 222.833C418.99 222.577 419.129 222.348 419.336 222.192C419.542 222.037 419.801 221.966 420.058 221.996C420.343 222.051 420.623 222.131 420.895 222.235C424.309 223.413 428.714 224.062 431.326 218.684C431.447 218.447 431.655 218.267 431.907 218.181C432.158 218.095 432.434 218.11 432.674 218.223C432.793 218.281 432.9 218.362 432.987 218.462C433.075 218.561 433.142 218.677 433.184 218.802C433.227 218.927 433.245 219.06 433.237 219.192C433.228 219.324 433.194 219.453 433.135 219.572C432.507 221.201 431.394 222.598 429.947 223.575C428.5 224.551 426.789 225.061 425.043 225.035Z" fill="#121116"/>
<path d="M398.939 247.451C398.939 247.451 354.824 283.712 354.944 310.294C355.063 336.875 395.115 344.148 395.115 344.148L406.092 327.076C406.092 327.076 383.045 314.135 384.222 310.43C385.93 305.309 404.965 287.297 404.965 287.297L398.939 247.451Z" fill="#FFC631"/>
<path d="M437.625 310.277H437.471L417.104 307.204C416.973 307.185 416.846 307.14 416.732 307.072C416.618 307.005 416.519 306.915 416.439 306.809C416.36 306.703 416.303 306.582 416.27 306.453C416.238 306.325 416.231 306.191 416.25 306.06L419.255 285.675C419.301 285.414 419.445 285.181 419.658 285.022C419.87 284.863 420.135 284.792 420.399 284.822L440.783 287.844C440.914 287.862 441.04 287.907 441.154 287.975C441.268 288.042 441.368 288.132 441.447 288.238C441.527 288.345 441.584 288.465 441.617 288.594C441.649 288.723 441.656 288.856 441.637 288.987L438.632 309.372C438.603 309.619 438.484 309.848 438.299 310.014C438.114 310.181 437.874 310.274 437.625 310.277ZM418.401 305.496L436.771 308.211L439.486 289.824L421.116 287.11L418.401 305.496Z" fill="white"/>
<path d="M439.264 294.877H439.127L419.357 291.958C419.226 291.939 419.1 291.894 418.986 291.827C418.872 291.759 418.773 291.669 418.694 291.563C418.614 291.457 418.557 291.336 418.524 291.208C418.492 291.079 418.485 290.945 418.504 290.814C418.523 290.683 418.568 290.557 418.635 290.443C418.703 290.329 418.793 290.23 418.899 290.151C419.005 290.071 419.126 290.014 419.254 289.981C419.383 289.949 419.516 289.942 419.648 289.961L439.417 292.88C439.55 292.897 439.677 292.94 439.792 293.007C439.907 293.074 440.008 293.163 440.087 293.27C440.167 293.377 440.225 293.499 440.256 293.628C440.288 293.758 440.293 293.892 440.271 294.024C440.234 294.264 440.112 294.482 439.927 294.639C439.742 294.796 439.506 294.88 439.264 294.877Z" fill="white"/>
<path d="M429.858 281.442H429.772C429.572 281.425 429.381 281.35 429.223 281.225C429.065 281.101 428.947 280.933 428.885 280.742L418.214 247.69C418.134 247.432 418.159 247.152 418.284 246.913C418.408 246.673 418.623 246.492 418.88 246.41C419.134 246.329 419.409 246.352 419.646 246.473C419.882 246.595 420.061 246.805 420.144 247.058L430.063 277.788L445.786 246.922C445.844 246.803 445.925 246.697 446.025 246.609C446.125 246.522 446.241 246.456 446.367 246.415C446.492 246.373 446.625 246.358 446.757 246.369C446.889 246.379 447.017 246.417 447.135 246.478C447.372 246.598 447.552 246.808 447.635 247.061C447.718 247.313 447.698 247.589 447.579 247.827L430.762 280.895C430.677 281.061 430.547 281.2 430.387 281.297C430.228 281.393 430.044 281.443 429.858 281.442Z" fill="white"/>
<path d="M428.936 288.168H428.834C428.568 288.138 428.325 288.005 428.155 287.798C427.986 287.59 427.905 287.325 427.929 287.059L428.8 279.052C428.834 278.8 428.962 278.57 429.158 278.409C429.354 278.247 429.605 278.166 429.858 278.181C430.127 278.211 430.374 278.346 430.543 278.558C430.713 278.769 430.792 279.039 430.763 279.308L429.892 287.298C429.861 287.532 429.747 287.747 429.573 287.907C429.398 288.066 429.173 288.158 428.936 288.168Z" fill="white"/>
<path d="M469.703 252.658C469.703 252.658 515.457 311.864 504.411 326.069C493.365 340.273 449.439 342.424 449.439 342.424L448.414 323.166C448.414 323.166 473.34 322.859 474.603 315.911C475.866 308.962 460.484 279.154 460.484 279.154L469.703 252.658Z" fill="#FFC631"/>
<path d="M451.556 325.761C451.331 325.763 451.112 325.688 450.935 325.548C450.758 325.408 450.634 325.213 450.583 324.993C450.521 324.737 450.561 324.467 450.695 324.241C450.829 324.014 451.046 323.849 451.3 323.781C461.236 321.254 472.419 317.601 473.58 315.979C472.743 312.906 463.217 288.766 459.546 279.529C459.449 279.28 459.455 279.003 459.562 278.758C459.669 278.513 459.869 278.321 460.118 278.223C460.367 278.126 460.645 278.132 460.89 278.239C461.135 278.346 461.327 278.546 461.424 278.795C461.971 280.178 474.963 312.803 475.594 315.688C476.141 318.215 468.134 321.595 451.795 325.727L451.556 325.761Z" fill="#121116"/>
<path d="M423.115 319.205L395.116 356.269L436.79 365.898L459.82 324.703L423.115 319.205Z" fill="white"/>
<path d="M436.79 366.957H436.551L394.878 357.328C394.715 357.286 394.564 357.205 394.439 357.092C394.314 356.979 394.219 356.837 394.161 356.679C394.101 356.521 394.083 356.351 394.107 356.184C394.131 356.017 394.196 355.858 394.297 355.723L422.313 318.659C422.423 318.515 422.57 318.402 422.738 318.333C422.906 318.264 423.089 318.241 423.269 318.266L459.974 323.764C460.138 323.79 460.293 323.854 460.426 323.952C460.56 324.05 460.668 324.179 460.742 324.327C460.819 324.472 460.858 324.633 460.858 324.797C460.858 324.96 460.819 325.121 460.742 325.266L437.712 366.461C437.617 366.619 437.481 366.748 437.319 366.836C437.157 366.923 436.974 366.964 436.79 366.957ZM396.858 355.689L436.278 364.788L458.233 325.522L423.559 320.401L396.858 355.689Z" fill="#121116"/>
<path d="M406.093 330.268C407.032 331.071 427.416 327.588 422.277 330.268C417.138 332.949 410.805 335.492 410.805 335.492L400.834 348.74C400.937 348.621 395.474 342.697 397.539 339.095C399.605 335.492 406.093 330.268 406.093 330.268Z" fill="white"/>
<path d="M400.835 349.765C400.62 349.757 400.412 349.686 400.237 349.56C400.032 349.406 399.878 349.287 399.844 349.082C399.804 349.006 399.753 348.937 399.691 348.877C398.444 347.17 394.569 342.185 396.669 338.634C398.769 335.083 405.205 329.756 405.512 329.534C405.663 329.416 405.843 329.342 406.033 329.321C406.223 329.3 406.415 329.332 406.588 329.415C408.872 329.379 411.152 329.213 413.417 328.92C422.482 327.981 423.797 328.032 424.172 329.312C424.548 330.593 423.336 331.02 422.858 331.224C418.316 333.597 412.802 335.868 411.556 336.346L401.705 349.389C401.609 349.519 401.479 349.619 401.33 349.68C401.239 349.695 401.147 349.695 401.056 349.68L400.835 349.765ZM406.4 331.378C404.983 332.539 400.083 336.688 398.41 339.59C397.54 341.126 398.41 343.636 400.886 347.085C401.671 345.958 402.986 344.233 405.034 341.502L410.054 334.878C410.16 334.729 410.309 334.616 410.48 334.554C410.48 334.554 415.431 332.556 420.041 330.303C418.129 330.405 415.551 330.678 413.57 330.883C411.179 331.228 408.765 331.393 406.349 331.378H406.4Z" fill="#121116"/>
<path d="M391.888 317.549H391.802C391.538 317.528 391.293 317.403 391.12 317.201C390.948 317 390.861 316.738 390.88 316.474L394.978 260.904C394.988 260.771 395.025 260.642 395.086 260.524C395.147 260.406 395.23 260.301 395.332 260.215C395.434 260.13 395.551 260.065 395.678 260.025C395.805 259.985 395.938 259.97 396.07 259.982C396.202 259.99 396.331 260.025 396.449 260.084C396.567 260.143 396.672 260.225 396.758 260.326C396.844 260.426 396.909 260.542 396.949 260.668C396.989 260.794 397.004 260.926 396.992 261.057L392.895 316.611C392.877 316.866 392.764 317.105 392.577 317.279C392.39 317.453 392.143 317.55 391.888 317.549Z" fill="#121116"/>
</svg>
