<svg width="570" height="570" viewBox="0 0 570 570" fill="none" xmlns="http://www.w3.org/2000/svg">
<rect width="570" height="570" rx="285" fill="#FFFBEF"/>
<path d="M508.31 377.989C507.706 376.463 506.971 374.992 506.112 373.593C503.429 367.529 508.659 361.283 512.373 355.841C515.539 351.195 517.778 345.98 518.967 340.485C519.188 339.847 519.275 339.171 519.223 338.498C519.171 337.825 518.981 337.17 518.664 336.574C518.339 336.171 517.931 335.844 517.468 335.614C517.005 335.383 516.498 335.256 515.981 335.24C512.57 334.997 509.766 337.923 508.098 340.909C506.43 343.896 505.203 347.307 502.535 349.444C497.365 353.567 487.997 352.021 485.298 358.07C483.631 361.814 485.708 366.892 482.964 369.939C481.971 370.87 480.807 371.601 479.538 372.092C472.231 375.563 465.531 380.793 461.605 387.873C452.858 403.714 467.289 430.592 486.996 421.542C499.2 415.948 495.44 405.579 497.274 395.771C498.487 389.131 509.978 384.78 508.31 377.989Z" fill="#121116"/>
<path d="M479.157 424.104C476.578 424.062 474.037 423.478 471.7 422.388C469.362 421.299 467.28 419.73 465.589 417.782C458.085 409.672 456.039 396.377 460.951 387.464C465.498 379.156 473.427 374.123 479.217 371.364L479.46 371.243C480.551 370.817 481.55 370.184 482.401 369.379C483.75 367.863 483.765 365.71 483.796 363.406C483.677 361.47 483.956 359.53 484.614 357.706C486.312 353.871 490.42 352.84 494.407 351.854C497.141 351.383 499.747 350.351 502.063 348.823C503.874 347.123 505.301 345.056 506.246 342.759C506.625 341.986 507.02 341.243 507.444 340.47C508.52 338.545 511.492 334.103 516.039 334.406C516.668 334.422 517.284 334.577 517.845 334.86C518.406 335.143 518.898 335.547 519.283 336.043C519.667 336.73 519.902 337.489 519.975 338.272C520.048 339.056 519.957 339.845 519.708 340.591C518.488 346.177 516.209 351.478 512.992 356.205C512.598 356.796 512.174 357.403 511.749 358.009C508.399 362.799 504.579 368.242 506.792 373.168C507.055 373.723 507.354 374.26 507.687 374.775C508.272 375.677 508.726 376.657 509.036 377.686C510.067 381.885 506.716 385.129 503.457 388.297C501.032 390.647 498.515 393.072 498.015 395.771C497.611 398.278 497.388 400.811 497.348 403.35C497.06 410.809 496.787 417.843 487.313 422.193C484.764 423.413 481.982 424.064 479.157 424.104ZM515.539 335.983C512.083 335.983 509.627 339.651 508.717 341.273C508.308 342.001 507.929 342.789 507.55 343.502C506.524 345.978 504.972 348.202 503.002 350.02C500.528 351.707 497.721 352.844 494.771 353.355C490.981 354.31 487.404 355.205 485.994 358.373C485.424 360.007 485.187 361.739 485.296 363.466C485.296 365.937 485.296 368.514 483.508 370.44C482.535 371.397 481.381 372.15 480.112 372.653L479.869 372.774C474.276 375.427 466.666 380.354 462.269 388.237C457.722 396.574 459.601 409.096 466.696 416.751C469.092 419.57 472.362 421.506 475.986 422.25C479.609 422.995 483.378 422.505 486.691 420.859C495.317 416.888 495.559 410.612 495.787 403.32C495.821 400.725 496.049 398.135 496.469 395.574C497.06 392.405 499.743 389.798 502.351 387.297C505.382 384.265 508.338 381.521 507.505 378.201C507.233 377.315 506.835 376.472 506.322 375.7C505.969 375.126 505.645 374.534 505.352 373.926C502.805 368.166 506.868 362.36 510.446 357.251C510.87 356.645 511.295 356.054 511.689 355.462C514.789 350.892 516.991 345.773 518.177 340.379C518.552 339.291 518.486 338.1 517.995 337.059C517.736 336.746 517.412 336.493 517.045 336.318C516.679 336.142 516.279 336.049 515.873 336.043L515.539 335.983Z" fill="#121116"/>
<path d="M86.1234 382.688C80.6964 379.126 79.6504 371.758 76.5125 366.013C72.2224 358.221 63.8393 353.567 55.3956 350.854C53.9858 350.384 52.1515 350.081 51.2571 351.263C50.8418 351.904 50.6747 352.675 50.7872 353.431C51.2571 361.784 59.8827 368.014 60.1556 376.367C60.2617 381.021 57.715 385.948 59.8221 390.101C61.9292 394.255 67.5685 395.452 69.4028 399.621C70.6761 402.532 69.6605 405.867 69.6756 409.035C69.8575 430.622 109.287 432.577 117.928 416.463C121.824 409.217 118.943 400.319 114.107 394.3C105.952 384.144 95.507 388.843 86.1234 382.688Z" fill="#121116"/>
<path d="M94.6578 427.893C91.6252 427.906 88.6021 427.555 85.6532 426.847C75.2539 424.27 68.978 417.646 68.978 409.111C68.9924 408.098 69.0581 407.086 69.1751 406.079C69.5489 404.056 69.4081 401.97 68.7658 400.015C67.6826 398.121 66.1124 396.551 64.218 395.468C62.1227 394.247 60.3705 392.515 59.1245 390.435C57.6843 387.585 58.2604 384.447 58.8061 381.415C59.1671 379.766 59.3601 378.085 59.3822 376.397C59.2912 372.365 57.1234 368.818 54.8344 365.149C52.5453 361.481 50.2866 357.782 50.0289 353.476C49.916 352.537 50.136 351.588 50.6504 350.793C51.5903 349.581 53.2578 349.353 55.6227 350.141C66.128 353.613 73.3893 358.843 77.1791 365.74C78.1649 367.637 79.0356 369.591 79.7865 371.592C81.4541 375.806 83.0306 379.793 86.5324 382.082C90.3374 384.583 94.4304 385.25 98.387 385.887C103.996 386.797 109.787 387.736 114.698 393.861C119.246 399.455 122.9 408.823 118.594 416.842C114.577 424.316 104.436 427.893 94.6578 427.893ZM53.1972 351.187C52.9468 351.167 52.6951 351.205 52.4613 351.297C52.2275 351.389 52.0178 351.533 51.848 351.718C51.5549 352.227 51.4477 352.822 51.5448 353.401C51.7571 357.312 53.8793 360.738 56.0926 364.346C58.3059 367.954 60.7768 371.925 60.8829 376.352C60.8635 378.147 60.6603 379.935 60.2766 381.688C59.746 384.598 59.2457 387.357 60.4585 389.753C61.6016 391.548 63.1618 393.041 65.0063 394.103C67.1456 395.347 68.9063 397.15 70.0998 399.318C70.8567 401.494 71.0394 403.828 70.6303 406.094C70.5394 407.08 70.4484 408.08 70.4484 409.035C70.5394 420.283 81.3783 424.194 86.0322 425.316C97.2197 428.075 112.333 425.316 117.275 416.099C121.232 408.732 117.73 400 113.531 394.77C108.983 389.101 103.723 388.252 98.1596 387.357C94.0514 386.69 89.7917 385.993 85.7138 383.31C81.636 380.627 80.0746 376.367 78.3919 372.122C77.646 370.176 76.7803 368.277 75.7997 366.438C72.1917 359.904 65.1882 354.901 55.0921 351.566C54.4822 351.349 53.8439 351.221 53.1972 351.187Z" fill="#121116"/>
<path d="M115.047 358.161C115.198 354.629 117.29 351.46 117.775 347.958C118.958 339.181 110.302 332.799 104.602 325.978C98.5383 318.747 95.3548 309.651 91.8682 300.995C90.5948 297.842 89.1699 294.568 86.5018 292.46C83.8338 290.353 79.5286 289.914 77.2244 292.46C75.5265 294.325 75.4204 297.129 75.5872 299.661C76.0082 305.714 77.4431 311.653 79.8318 317.231C81.9692 322.233 84.9404 327.387 84.0006 332.754C83.2274 337.18 79.9682 340.652 77.4214 344.335C74.8747 348.019 72.8736 352.916 75.0414 356.872C76.33 359.298 78.8312 360.768 80.9839 362.466C85.0778 365.838 88.0787 370.349 89.6061 375.428C91.1336 380.507 91.1189 385.925 89.564 390.996C88.4572 393.597 87.6387 396.311 87.1234 399.091C86.6686 403.775 89.2457 408.262 92.5049 411.658C104.435 424.058 136.148 426.241 141.242 405.594C143.47 396.574 139.408 384.841 133.192 378.307C127.432 372.213 114.622 368.151 115.047 358.161Z" fill="#121116"/>
<path d="M117.594 421.739C107.908 421.739 97.751 418.131 91.9601 412.097C89.6256 409.672 85.8054 404.745 86.3815 398.939C86.6622 396.935 87.2076 394.978 88.0035 393.118C88.2916 392.36 88.5947 391.602 88.8373 390.814C90.3332 385.888 90.3414 380.631 88.8608 375.701C87.3802 370.771 84.4768 366.389 80.5149 363.103L79.1202 362.041C77.2052 360.826 75.5845 359.2 74.3754 357.281C71.8134 352.461 74.7998 346.867 76.8008 343.956C77.3466 343.168 77.9378 342.44 78.5138 341.592C80.5603 338.833 82.6826 335.967 83.2587 332.678C84.0015 328.403 82.0763 324.128 80.2268 320.005C79.863 319.186 79.4992 318.383 79.1505 317.564C76.7209 311.886 75.2703 305.838 74.8605 299.676C74.6785 297.19 74.7392 294.052 76.6947 291.915C79.3628 288.989 84.1228 289.61 86.9879 291.915C89.853 294.219 91.2021 297.342 92.5816 300.768L93.7186 303.648C96.7504 311.303 99.8884 319.232 105.194 325.523C106.392 326.948 107.771 328.403 109.09 329.813C114.214 335.225 119.52 340.834 118.534 348.095C118.251 349.741 117.794 351.351 117.17 352.9C116.452 354.595 115.997 356.389 115.821 358.221C115.533 364.694 121.278 368.605 126.842 372.38C129.32 373.933 131.635 375.731 133.754 377.746C140.621 384.886 144.169 396.908 142.001 405.685C140.151 413.158 134.633 418.479 126.463 420.677C123.565 421.411 120.584 421.768 117.594 421.739ZM81.4699 291.46C80.7836 291.437 80.1003 291.561 79.4653 291.822C78.8302 292.084 78.2579 292.477 77.7862 292.976C76.2703 294.674 76.1945 297.417 76.2703 299.6C76.6703 305.595 78.0797 311.478 80.4391 317.003C80.7877 317.807 81.1515 318.61 81.5154 319.414C83.4709 323.749 85.4871 328.236 84.6685 332.966C84.0318 336.619 81.8034 339.621 79.6508 342.531C79.0747 343.289 78.5138 344.063 77.9681 344.851C76.4522 346.958 73.4203 352.324 75.6336 356.599C76.7435 358.323 78.2183 359.783 79.954 360.874C80.4391 361.223 80.909 361.587 81.3789 361.95C85.5808 365.43 88.6602 370.074 90.23 375.298C91.7998 380.523 91.7899 386.095 90.2016 391.314C89.9439 392.102 89.6407 392.83 89.3376 393.679C88.6346 395.414 88.1607 397.233 87.9277 399.091C87.4123 404.29 90.9596 408.823 93.0971 411.051C100.358 418.631 114.866 422.178 126.099 419.162C131.495 417.646 138.378 414.144 140.561 405.276C142.819 396.18 138.332 384.614 132.693 378.732C130.644 376.799 128.41 375.073 126.023 373.578C120.399 369.757 114.032 365.437 114.335 358.115C114.54 356.123 115.052 354.175 115.851 352.339C116.449 350.876 116.881 349.351 117.14 347.792C118.034 341.258 112.986 335.922 108.044 330.753C106.71 329.328 105.315 327.872 104.088 326.402C98.615 319.914 95.4467 311.879 92.3694 304.103L91.2173 301.238C89.9288 298.009 88.5644 294.946 86.0935 293.006C84.7646 291.996 83.1393 291.452 81.4699 291.46Z" fill="#121116"/>
<path d="M373.847 428.06H480.204V329.009H373.847V428.06Z" fill="#FF794E"/>
<path d="M480.204 428.803H373.846C373.645 428.803 373.452 428.723 373.31 428.581C373.168 428.439 373.088 428.246 373.088 428.045V328.994C373.088 328.793 373.168 328.6 373.31 328.458C373.452 328.316 373.645 328.236 373.846 328.236H480.204C480.405 328.236 480.597 328.316 480.74 328.458C480.882 328.6 480.961 328.793 480.961 328.994V428.045C480.961 428.246 480.882 428.439 480.74 428.581C480.597 428.723 480.405 428.803 480.204 428.803ZM374.604 427.287H479.446V329.752H374.604V427.287Z" fill="#121116"/>
<path d="M237.154 428.045H343.512V282.364H237.154V428.045Z" fill="#FF794E"/>
<path d="M343.511 428.803H237.139C236.938 428.803 236.745 428.723 236.603 428.581C236.461 428.439 236.381 428.246 236.381 428.045V282.364C236.385 282.164 236.466 281.974 236.607 281.833C236.748 281.691 236.939 281.61 237.139 281.606H343.511C343.711 281.61 343.902 281.691 344.043 281.833C344.184 281.974 344.266 282.164 344.269 282.364V428.045C344.269 428.246 344.19 428.439 344.047 428.581C343.905 428.723 343.712 428.803 343.511 428.803ZM237.897 427.287H342.753V283.122H237.897V427.287Z" fill="#121116"/>
<path d="M100.448 428.045H206.806L206.806 206.81H100.448L100.448 428.045Z" fill="#FF794E"/>
<path d="M206.806 428.803H100.448C100.247 428.803 100.055 428.723 99.9124 428.581C99.7703 428.439 99.6904 428.246 99.6904 428.045V206.81C99.6904 206.609 99.7703 206.417 99.9124 206.274C100.055 206.132 100.247 206.052 100.448 206.052H206.806C207.007 206.052 207.2 206.132 207.342 206.274C207.484 206.417 207.564 206.609 207.564 206.81V428.045C207.564 428.144 207.544 428.243 207.506 428.335C207.468 428.427 207.412 428.51 207.342 428.581C207.271 428.651 207.188 428.707 207.096 428.745C207.004 428.783 206.905 428.803 206.806 428.803ZM101.206 427.287H206.048V207.568H101.206V427.287Z" fill="#121116"/>
<path d="M400.057 264.598V284.335H385.534L400.057 292.794V316.321H472.563V264.598H400.057Z" fill="white"/>
<path d="M472.565 317.079H400.058C399.858 317.075 399.668 316.994 399.526 316.853C399.385 316.711 399.304 316.521 399.3 316.321V293.233L385.156 284.987C385.014 284.902 384.903 284.774 384.841 284.621C384.779 284.467 384.768 284.298 384.811 284.138C384.854 283.978 384.948 283.837 385.079 283.736C385.21 283.634 385.37 283.579 385.535 283.577H399.3V264.598C399.304 264.398 399.385 264.207 399.526 264.066C399.668 263.925 399.858 263.843 400.058 263.84H472.565C472.766 263.84 472.959 263.919 473.101 264.062C473.243 264.204 473.323 264.397 473.323 264.598V316.321C473.323 316.522 473.243 316.715 473.101 316.857C472.959 316.999 472.766 317.079 472.565 317.079ZM400.816 315.563H471.807V265.356H400.816V284.335C400.816 284.536 400.736 284.729 400.594 284.871C400.452 285.013 400.259 285.093 400.058 285.093H388.34L400.467 292.142C400.582 292.208 400.677 292.303 400.744 292.417C400.81 292.532 400.845 292.662 400.846 292.794L400.816 315.563Z" fill="#121116"/>
<path d="M419.157 233.749C419.354 233.157 419.551 232.566 419.763 231.975C419.87 231.672 419.991 231.369 420.112 231.065C420.18 230.877 420.31 230.717 420.481 230.612C420.651 230.507 420.853 230.464 421.052 230.489C421.537 230.489 422.007 230.656 422.477 230.732C422.733 230.777 422.991 230.807 423.25 230.823C423.441 230.834 423.63 230.774 423.781 230.656C424.326 230.125 424.857 229.58 425.372 229.034C425.462 228.932 425.524 228.809 425.553 228.677C425.582 228.544 425.578 228.406 425.539 228.276C425.418 227.7 425.281 227.124 425.16 226.548C425.123 226.322 425.123 226.092 425.16 225.866C425.165 225.782 425.186 225.7 425.222 225.625C425.259 225.549 425.31 225.482 425.372 225.426C426.256 224.849 427.222 224.41 428.237 224.122C428.387 224.076 428.547 224.079 428.694 224.131C428.842 224.183 428.969 224.281 429.056 224.41C429.42 224.911 429.799 225.411 430.148 225.926C430.264 226.12 430.432 226.276 430.633 226.378C430.834 226.48 431.06 226.523 431.284 226.502C431.906 226.502 432.543 226.502 433.179 226.411C433.297 226.405 433.411 226.37 433.511 226.309C433.612 226.249 433.696 226.164 433.755 226.063C433.983 225.729 434.195 225.396 434.407 225.062C434.62 224.729 434.786 224.471 434.983 224.198C435.074 224.055 435.21 223.947 435.37 223.892C435.53 223.837 435.703 223.838 435.863 223.895C436.742 224.198 437.621 224.501 438.485 224.835C438.649 224.902 438.784 225.022 438.87 225.176C438.955 225.331 438.985 225.51 438.955 225.684C438.955 226.169 438.803 226.654 438.713 227.2C438.713 227.427 438.713 227.655 438.637 227.882C438.615 228.029 438.63 228.179 438.681 228.32C438.731 228.46 438.815 228.585 438.925 228.685C439.38 229.125 439.849 229.549 440.304 230.004C440.43 230.142 440.592 230.242 440.771 230.293C440.95 230.344 441.141 230.344 441.32 230.292L443.2 229.868C443.405 229.799 443.629 229.813 443.824 229.906C444.019 230 444.17 230.165 444.246 230.368C444.609 231.111 444.958 231.884 445.277 232.627C445.341 232.729 445.385 232.844 445.404 232.964C445.423 233.084 445.418 233.207 445.388 233.324C445.358 233.442 445.304 233.552 445.231 233.649C445.157 233.745 445.064 233.826 444.958 233.885C444.64 234.128 444.291 234.355 443.958 234.597L443.26 235.158C443.169 235.237 443.096 235.335 443.046 235.445C442.997 235.555 442.971 235.674 442.972 235.795C442.972 236.462 442.972 237.114 442.972 237.766C442.976 237.946 443.027 238.122 443.12 238.276C443.213 238.43 443.345 238.558 443.503 238.645L444.579 239.282C444.791 239.418 445.019 239.555 445.216 239.706C445.37 239.801 445.485 239.949 445.538 240.122C445.591 240.295 445.579 240.481 445.504 240.646C445.216 241.449 444.928 242.162 444.625 243.011C444.575 243.135 444.508 243.253 444.428 243.36C444.359 243.486 444.251 243.587 444.119 243.648C443.988 243.708 443.841 243.724 443.7 243.693L441.987 243.42H441.866C441.628 243.359 441.377 243.369 441.145 243.45C440.913 243.531 440.71 243.679 440.562 243.875C440.244 244.254 439.88 244.603 439.531 244.966C439.371 245.123 439.257 245.32 439.201 245.536C439.145 245.752 439.149 245.98 439.213 246.194C439.349 246.755 439.486 247.301 439.607 247.862C439.652 247.97 439.673 248.086 439.67 248.203C439.666 248.32 439.637 248.434 439.586 248.539C439.534 248.644 439.46 248.737 439.37 248.811C439.279 248.885 439.174 248.939 439.061 248.968C438.303 249.332 437.545 249.681 436.727 250.014C436.55 250.111 436.344 250.136 436.15 250.086C435.955 250.035 435.787 249.912 435.681 249.742C435.377 249.363 435.105 248.953 434.817 248.559C434.21 247.695 434.059 247.619 432.997 247.68H431.77C431.573 247.68 431.38 247.732 431.209 247.831C431.039 247.929 430.898 248.07 430.799 248.241C430.557 248.65 430.314 249.075 430.057 249.469C429.917 249.678 429.759 249.876 429.587 250.06C429.511 250.154 429.406 250.222 429.288 250.252C429.171 250.282 429.047 250.273 428.935 250.227L426.449 249.302C426.338 249.25 426.231 249.19 426.13 249.12C426 249.051 425.895 248.941 425.832 248.807C425.769 248.673 425.751 248.522 425.782 248.377L426.055 246.695C426.07 246.523 426.07 246.351 426.055 246.179C426.068 246.039 426.05 245.898 426 245.766C425.95 245.635 425.87 245.517 425.766 245.421L424.433 244.163C424.304 244.04 424.145 243.953 423.971 243.913C423.798 243.873 423.617 243.881 423.447 243.936L421.78 244.315C421.052 244.451 420.825 244.315 420.506 243.678C420.188 243.041 419.839 242.162 419.536 241.419C419.485 241.333 419.453 241.238 419.44 241.138C419.427 241.039 419.434 240.939 419.461 240.842C419.488 240.746 419.534 240.656 419.596 240.578C419.659 240.5 419.736 240.436 419.824 240.388C420.279 240.055 420.718 239.721 421.188 239.418C421.417 239.293 421.603 239.101 421.722 238.869C421.841 238.636 421.888 238.374 421.855 238.114C421.855 237.523 421.855 236.932 421.764 236.341C421.762 236.217 421.729 236.095 421.668 235.986C421.607 235.878 421.52 235.786 421.416 235.719L419.9 234.779C419.549 234.62 419.273 234.332 419.127 233.976L419.157 233.749ZM437.939 237.038C437.941 236.298 437.797 235.566 437.514 234.882C437.231 234.199 436.815 233.578 436.29 233.057C435.766 232.535 435.143 232.123 434.458 231.843C433.773 231.564 433.04 231.423 432.3 231.429C430.831 231.472 429.434 232.081 428.403 233.129C427.372 234.177 426.786 235.583 426.767 237.053C426.779 238.527 427.368 239.936 428.409 240.98C429.449 242.023 430.857 242.616 432.33 242.632C433.069 242.642 433.801 242.504 434.485 242.227C435.169 241.95 435.791 241.538 436.314 241.017C436.836 240.496 437.25 239.875 437.529 239.192C437.808 238.509 437.948 237.776 437.939 237.038Z" fill="white"/>
<path d="M429.132 251C428.971 250.998 428.812 250.967 428.662 250.909L426.176 249.984C426.026 249.92 425.883 249.839 425.752 249.742C425.494 249.589 425.288 249.364 425.158 249.094C425.029 248.824 424.982 248.522 425.024 248.226L425.297 246.528C425.312 246.387 425.312 246.244 425.297 246.103C425.297 245.982 425.297 245.952 425.297 245.937L423.948 244.678C423.905 244.65 423.855 244.634 423.804 244.634C423.752 244.634 423.702 244.65 423.66 244.678L422.447 244.966L421.992 245.073C421.78 245.152 421.555 245.188 421.329 245.179C421.103 245.17 420.881 245.116 420.676 245.02C420.472 244.924 420.288 244.788 420.137 244.62C419.985 244.452 419.869 244.255 419.794 244.042C419.43 243.284 419.112 242.526 418.794 241.737C418.635 241.405 418.603 241.026 418.704 240.672C418.804 240.318 419.03 240.012 419.339 239.812C419.794 239.469 420.264 239.135 420.749 238.812C420.861 238.755 420.953 238.665 421.01 238.553C421.067 238.441 421.087 238.314 421.068 238.19C421.068 237.811 421.068 237.432 421.068 237.038V236.417L419.552 235.446C419.055 235.192 418.667 234.767 418.46 234.249C418.453 234.168 418.453 234.087 418.46 234.006V233.794C418.444 233.714 418.444 233.632 418.46 233.551L418.612 233.066L419.067 231.763C419.173 231.444 419.309 231.126 419.43 230.823C419.56 230.482 419.802 230.194 420.115 230.007C420.429 229.82 420.796 229.744 421.159 229.792C421.477 229.792 421.81 229.883 422.144 229.944L422.826 230.065C422.967 230.073 423.109 230.073 423.25 230.065C423.806 229.587 424.337 229.081 424.842 228.549L424.645 227.715C424.569 227.382 424.494 227.063 424.433 226.73C424.362 226.432 424.336 226.126 424.357 225.82C424.372 225.621 424.432 225.428 424.531 225.254C424.631 225.081 424.768 224.933 424.933 224.82C425.866 224.201 426.889 223.731 427.965 223.425C428.261 223.331 428.58 223.337 428.873 223.441C429.166 223.545 429.416 223.741 429.587 224.001L429.966 224.517L430.709 225.517C430.86 225.744 430.951 225.775 431.148 225.76H432.422H433.074C433.18 225.547 433.316 225.35 433.438 225.138L433.817 224.562L434.302 223.85C434.49 223.582 434.761 223.383 435.072 223.282C435.384 223.18 435.72 223.183 436.03 223.289C436.924 223.592 437.803 223.895 438.683 224.244C439.001 224.367 439.269 224.594 439.442 224.889C439.616 225.183 439.685 225.527 439.638 225.866C439.638 226.214 439.532 226.548 439.471 226.897L439.395 227.366C439.395 227.564 439.395 227.776 439.304 227.988C439.28 228.051 439.28 228.122 439.304 228.185L439.622 228.473C439.986 228.807 440.35 229.155 440.699 229.519C440.79 229.61 440.85 229.64 441.032 229.519L442.897 229.095C443.269 228.972 443.674 228.998 444.028 229.168C444.381 229.337 444.655 229.637 444.792 230.004C445.156 230.762 445.504 231.52 445.838 232.293C446.038 232.654 446.092 233.078 445.991 233.478C445.89 233.877 445.64 234.224 445.292 234.446L444.671 234.901L444.276 235.174L443.625 235.689V236.219C443.625 236.705 443.625 237.205 443.625 237.735C443.624 237.788 443.638 237.84 443.664 237.885C443.691 237.931 443.73 237.968 443.776 237.993L444.231 238.251L444.868 238.63C445.114 238.778 445.352 238.939 445.58 239.115C445.859 239.312 446.063 239.597 446.159 239.925C446.255 240.252 446.238 240.602 446.111 240.919C445.823 241.707 445.535 242.435 445.231 243.284C445.162 243.449 445.076 243.606 444.974 243.754C444.817 244.005 444.59 244.206 444.32 244.33C444.051 244.454 443.751 244.496 443.458 244.451L441.745 244.163H441.578C441.474 244.13 441.363 244.134 441.261 244.172C441.159 244.211 441.073 244.282 441.017 244.375C440.775 244.648 440.517 244.921 440.259 245.179L439.956 245.482C439.887 245.549 439.838 245.635 439.814 245.728C439.79 245.822 439.792 245.92 439.82 246.012C439.971 246.573 440.108 247.134 440.229 247.71C440.295 247.9 440.323 248.102 440.311 248.303C440.299 248.504 440.247 248.7 440.158 248.881C440.069 249.061 439.945 249.222 439.793 249.355C439.642 249.487 439.465 249.587 439.274 249.651C438.486 250.03 437.758 250.378 436.909 250.712C436.58 250.879 436.202 250.92 435.844 250.828C435.487 250.736 435.176 250.517 434.969 250.212C434.711 249.893 434.468 249.544 434.226 249.211L434.074 248.999C433.65 248.392 433.65 248.392 432.922 248.438H431.694C431.62 248.435 431.546 248.454 431.482 248.491C431.417 248.529 431.365 248.584 431.33 248.65L431.088 249.059L430.572 249.908C430.402 250.154 430.215 250.387 430.012 250.606C429.774 250.836 429.463 250.976 429.132 251ZM423.796 243.102C424.242 243.106 424.671 243.279 424.994 243.587L426.328 244.83C426.516 245.001 426.662 245.213 426.754 245.45C426.846 245.686 426.882 245.941 426.858 246.194C426.858 246.391 426.858 246.588 426.858 246.786L426.586 248.468L426.783 248.559L429.147 249.454C429.271 249.323 429.383 249.181 429.481 249.029L429.966 248.241L430.224 247.816C430.377 247.546 430.597 247.32 430.862 247.158C431.127 246.997 431.429 246.905 431.74 246.892H432.983C433.469 246.784 433.978 246.844 434.426 247.061C434.875 247.278 435.237 247.641 435.454 248.089L435.605 248.301C435.833 248.62 436.06 248.938 436.303 249.241H436.439C437.227 248.923 437.955 248.574 438.758 248.21L438.91 248.12C438.902 248.059 438.902 247.998 438.91 247.938C438.789 247.392 438.667 246.846 438.531 246.316C438.43 245.975 438.424 245.613 438.512 245.269C438.6 244.925 438.779 244.611 439.031 244.36L439.35 244.027C439.577 243.799 439.82 243.572 440.032 243.314C440.267 243.009 440.586 242.781 440.95 242.657C441.314 242.533 441.706 242.519 442.078 242.617L443.867 242.905C443.867 242.814 443.958 242.738 443.958 242.708C444.261 241.919 444.549 241.192 444.837 240.343C444.633 240.174 444.409 240.032 444.17 239.918L443.109 239.297C442.843 239.142 442.621 238.921 442.464 238.655C442.308 238.39 442.222 238.089 442.215 237.781C442.215 237.265 442.215 236.765 442.215 236.265V235.81C442.212 235.575 442.261 235.342 442.358 235.127C442.455 234.912 442.597 234.721 442.776 234.567C443.018 234.355 443.261 234.158 443.503 233.976L443.943 233.673C444.125 233.536 444.307 233.415 444.489 233.263C444.55 233.22 444.606 233.169 444.655 233.112C444.665 233.047 444.665 232.98 444.655 232.915C444.337 232.157 443.988 231.399 443.64 230.686L443.443 230.595L441.563 231.02C441.256 231.097 440.935 231.091 440.631 231.003C440.328 230.915 440.053 230.748 439.835 230.52C439.501 230.171 439.137 229.837 438.789 229.519L438.486 229.216C438.294 229.038 438.146 228.818 438.054 228.574C437.962 228.329 437.928 228.066 437.955 227.806C437.969 227.557 438 227.309 438.046 227.063L438.137 226.563C438.137 226.26 438.243 225.957 438.273 225.653C437.424 225.259 436.56 224.956 435.696 224.653C435.529 224.896 435.378 225.108 435.241 225.335L434.878 225.896L434.453 226.533C434.33 226.734 434.159 226.902 433.956 227.021C433.752 227.14 433.522 227.207 433.286 227.215H432.619H431.406C431.052 227.252 430.694 227.188 430.374 227.03C430.055 226.871 429.787 226.625 429.602 226.32C429.375 225.987 429.147 225.669 428.905 225.365L428.511 224.835C427.615 225.077 426.761 225.456 425.979 225.957C425.966 226.093 425.966 226.23 425.979 226.366C425.979 226.684 426.116 227.003 426.191 227.321L426.358 228.094C426.425 228.342 426.429 228.602 426.368 228.852C426.307 229.101 426.183 229.33 426.009 229.519C425.479 230.08 424.933 230.641 424.387 231.171C424.099 231.426 423.726 231.561 423.341 231.55C423.099 231.572 422.856 231.572 422.614 231.55L421.932 231.429L421.052 231.293C421.052 231.293 420.946 231.293 420.886 231.414C420.825 231.535 420.658 231.975 420.552 232.278L420.113 233.551L419.915 233.855C420.036 233.975 420.174 234.077 420.325 234.158L421.841 235.098C422.048 235.23 422.22 235.412 422.341 235.626C422.463 235.839 422.53 236.08 422.538 236.326V236.962C422.538 237.341 422.538 237.705 422.538 238.084C422.577 238.478 422.502 238.874 422.322 239.226C422.142 239.578 421.864 239.871 421.522 240.07C421.068 240.373 420.643 240.676 420.219 241.01C420.113 241.01 420.097 241.116 420.097 241.116C420.461 241.904 420.78 242.632 421.113 243.375C421.155 243.465 421.206 243.552 421.265 243.632H421.568L422.068 243.511L423.25 243.238C423.424 243.165 423.608 243.119 423.796 243.102ZM432.346 243.39C431.092 243.391 429.865 243.018 428.823 242.32C427.781 241.622 426.97 240.629 426.493 239.468C426.017 238.308 425.897 237.032 426.148 235.802C426.4 234.573 427.011 233.447 427.904 232.566C428.478 231.974 429.163 231.502 429.92 231.177C430.677 230.851 431.492 230.68 432.316 230.671C433.154 230.663 433.986 230.822 434.763 231.137C435.54 231.453 436.246 231.92 436.841 232.511C437.436 233.102 437.908 233.805 438.229 234.579C438.551 235.354 438.715 236.184 438.713 237.023C438.736 237.829 438.597 238.632 438.306 239.385C438.014 240.137 437.575 240.823 437.015 241.404C436.415 242.037 435.69 242.54 434.887 242.882C434.084 243.224 433.219 243.397 432.346 243.39ZM432.27 232.187C431.013 232.243 429.828 232.787 428.966 233.703C428.497 234.141 428.122 234.669 427.862 235.255C427.601 235.841 427.461 236.473 427.45 237.114C427.454 238.389 427.961 239.61 428.861 240.513C429.76 241.416 430.98 241.927 432.255 241.935C432.92 241.945 433.579 241.816 434.19 241.555C434.802 241.293 435.351 240.906 435.802 240.419C436.222 239.988 436.552 239.478 436.773 238.918C436.994 238.359 437.102 237.761 437.091 237.159C437.093 236.519 436.968 235.885 436.723 235.294C436.478 234.702 436.118 234.165 435.664 233.714C435.21 233.263 434.671 232.906 434.078 232.665C433.485 232.424 432.85 232.302 432.21 232.308L432.27 232.187Z" fill="#D1D3D4"/>
<path d="M227.893 178.357L214.734 172.429V143.399H146.199V187.71H214.734V178.357H227.893Z" fill="white"/>
<path d="M214.735 188.468H146.2C145.998 188.468 145.806 188.388 145.664 188.246C145.521 188.104 145.442 187.911 145.442 187.71V143.384C145.445 143.184 145.527 142.994 145.668 142.852C145.809 142.711 146 142.63 146.2 142.626H214.735C214.936 142.626 215.128 142.706 215.271 142.848C215.413 142.99 215.493 143.183 215.493 143.384V171.929L228.211 177.659C228.412 177.701 228.588 177.822 228.701 177.994C228.813 178.166 228.852 178.375 228.81 178.576C228.768 178.777 228.647 178.953 228.475 179.066C228.303 179.178 228.094 179.217 227.893 179.175H215.493V187.77C215.477 187.961 215.391 188.138 215.25 188.268C215.11 188.397 214.926 188.468 214.735 188.468ZM146.957 186.952H213.977V178.357C213.977 178.156 214.056 177.963 214.199 177.821C214.341 177.678 214.534 177.599 214.735 177.599H224.361L214.431 173.051C214.298 172.993 214.184 172.897 214.104 172.777C214.023 172.656 213.979 172.514 213.977 172.369V144.142H146.957V186.952Z" fill="#121116"/>
<path d="M181.596 155.36L191.813 165.638C191.866 165.693 191.929 165.737 192 165.766C192.071 165.795 192.147 165.808 192.223 165.805H207.897C207.833 168.245 207.181 170.634 205.995 172.769C204.81 174.903 203.126 176.719 201.088 178.063C199.05 179.407 196.717 180.239 194.289 180.488C191.86 180.737 189.407 180.395 187.138 179.492C184.87 178.59 182.853 177.153 181.259 175.303C179.666 173.454 178.542 171.246 177.985 168.87C177.427 166.493 177.452 164.016 178.057 161.651C178.662 159.286 179.829 157.101 181.46 155.284L181.596 155.36Z" fill="#FF794E"/>
<path d="M193.328 150.1V164.683H193.48H207.593C207.911 164.683 207.911 164.683 207.896 164.365C207.676 160.73 206.155 157.295 203.611 154.69C201.066 152.085 197.669 150.482 194.041 150.175L193.328 150.1Z" fill="#D1D3D4"/>
<path d="M192.253 164.486V150.115C190.556 150.202 188.883 150.555 187.296 151.161C185.395 151.905 183.663 153.024 182.202 154.45L192.253 164.486Z" fill="#D1D3D4"/>
<path d="M171.167 157.816H153.628C153.427 157.816 153.234 157.736 153.092 157.594C152.95 157.452 152.87 157.259 152.87 157.058C152.87 156.857 152.95 156.664 153.092 156.522C153.234 156.38 153.427 156.3 153.628 156.3H171.167C171.368 156.3 171.561 156.38 171.703 156.522C171.845 156.664 171.925 156.857 171.925 157.058C171.925 157.259 171.845 157.452 171.703 157.594C171.561 157.736 171.368 157.816 171.167 157.816Z" fill="#D1D3D4"/>
<path d="M171.167 165.198H153.628C153.427 165.198 153.234 165.118 153.092 164.976C152.95 164.834 152.87 164.641 152.87 164.44C152.87 164.239 152.95 164.047 153.092 163.904C153.234 163.762 153.427 163.682 153.628 163.682H171.167C171.368 163.682 171.561 163.762 171.703 163.904C171.845 164.047 171.925 164.239 171.925 164.44C171.925 164.641 171.845 164.834 171.703 164.976C171.561 165.118 171.368 165.198 171.167 165.198Z" fill="#D1D3D4"/>
<path d="M165.24 172.581H153.703C153.502 172.581 153.309 172.501 153.167 172.359C153.025 172.217 152.945 172.024 152.945 171.823C152.945 171.622 153.025 171.429 153.167 171.287C153.309 171.145 153.502 171.065 153.703 171.065H165.24C165.441 171.065 165.633 171.145 165.775 171.287C165.918 171.429 165.997 171.622 165.997 171.823C165.997 172.024 165.918 172.217 165.775 172.359C165.633 172.501 165.441 172.581 165.24 172.581Z" fill="#D1D3D4"/>
<path d="M420.869 286.306H415.245V309.242H420.869V286.306Z" fill="#FF794E"/>
<path d="M431.24 295.78H425.616V309.242H431.24V295.78Z" fill="#FF794E"/>
<path d="M441.608 289.61H435.984V309.242H441.608V289.61Z" fill="#FF794E"/>
<path d="M451.991 300.813H446.367V309.242H451.991V300.813Z" fill="#FF794E"/>
<path d="M462.362 289.61H456.737V309.242H462.362V289.61Z" fill="#FF794E"/>
<path d="M462.224 272.405H452.704C452.514 272.401 452.332 272.322 452.199 272.186C452.066 272.05 451.991 271.867 451.991 271.677C451.989 271.582 452.006 271.488 452.041 271.4C452.076 271.312 452.128 271.231 452.195 271.163C452.261 271.096 452.34 271.042 452.428 271.005C452.515 270.968 452.609 270.949 452.704 270.949H462.224C462.417 270.949 462.602 271.026 462.739 271.163C462.875 271.299 462.952 271.484 462.952 271.677C462.948 271.869 462.87 272.052 462.734 272.187C462.599 272.323 462.416 272.401 462.224 272.405Z" fill="#D1D3D4"/>
<path d="M458.919 275.937H452.704C452.514 275.933 452.332 275.854 452.199 275.718C452.066 275.582 451.991 275.4 451.991 275.209C451.989 275.114 452.006 275.02 452.041 274.932C452.076 274.844 452.128 274.763 452.195 274.696C452.261 274.628 452.34 274.574 452.428 274.537C452.515 274.5 452.609 274.482 452.704 274.482H458.919C459.112 274.482 459.297 274.558 459.434 274.695C459.57 274.831 459.647 275.016 459.647 275.209C459.643 275.401 459.565 275.584 459.43 275.719C459.294 275.855 459.111 275.933 458.919 275.937Z" fill="#D1D3D4"/>
<path d="M449.869 290.429C446.671 290.429 443.988 286.988 441.82 284.229C440.683 282.713 439.273 280.97 438.606 280.97C437.323 281.228 436.106 281.744 435.028 282.486C433.043 283.638 430.814 284.941 428.586 284.82C424.629 284.608 417.656 276.498 416.883 275.573C416.82 275.502 416.772 275.419 416.742 275.329C416.712 275.239 416.7 275.144 416.707 275.049C416.714 274.955 416.74 274.862 416.783 274.778C416.826 274.693 416.886 274.618 416.959 274.557C417.108 274.435 417.3 274.377 417.492 274.394C417.685 274.411 417.863 274.502 417.989 274.648C419.99 277.013 425.842 283.213 428.601 283.38C430.631 283.163 432.569 282.421 434.225 281.227C435.498 280.331 436.952 279.725 438.485 279.454C439.804 279.454 441.198 281.121 442.896 283.274C444.897 285.836 447.444 289.034 449.93 288.913C452.113 288.807 453.144 286.912 454.356 284.714C455.569 282.516 456.812 280.166 459.404 279.742C459.593 279.71 459.786 279.752 459.944 279.86C460.102 279.967 460.213 280.131 460.253 280.318C460.289 280.507 460.248 280.702 460.14 280.861C460.033 281.02 459.866 281.13 459.677 281.167C457.752 281.531 456.721 283.41 455.63 285.411C454.387 287.67 452.992 290.217 450.006 290.353L449.869 290.429Z" fill="#D1D3D4"/>
<path d="M467.167 309.969H410.698C410.497 309.969 410.305 309.889 410.162 309.747C410.02 309.605 409.94 309.412 409.94 309.211C409.94 309.01 410.02 308.817 410.162 308.675C410.305 308.533 410.497 308.453 410.698 308.453H467.167C467.368 308.453 467.56 308.533 467.703 308.675C467.845 308.817 467.925 309.01 467.925 309.211C467.925 309.412 467.845 309.605 467.703 309.747C467.56 309.889 467.368 309.969 467.167 309.969Z" fill="#D1D3D4"/>
<path d="M417.565 276.801C417.235 276.801 416.913 276.703 416.639 276.52C416.364 276.337 416.151 276.076 416.024 275.771C415.898 275.467 415.865 275.131 415.929 274.808C415.994 274.485 416.153 274.187 416.386 273.954C416.619 273.721 416.916 273.562 417.24 273.498C417.563 273.434 417.898 273.467 418.203 273.593C418.508 273.719 418.768 273.933 418.951 274.207C419.135 274.481 419.232 274.804 419.232 275.133C419.235 275.353 419.193 275.571 419.11 275.774C419.027 275.977 418.904 276.162 418.749 276.317C418.593 276.472 418.409 276.595 418.206 276.678C418.002 276.761 417.785 276.803 417.565 276.801ZM417.565 274.921C417.509 274.921 417.455 274.943 417.415 274.983C417.375 275.023 417.353 275.077 417.353 275.133C417.353 275.376 417.792 275.376 417.792 275.133C417.789 275.076 417.763 275.022 417.721 274.982C417.678 274.943 417.623 274.921 417.565 274.921Z" fill="#D1D3D4"/>
<path d="M459.617 282.182C459.175 282.182 458.751 282.007 458.438 281.694C458.125 281.381 457.949 280.957 457.949 280.515C457.949 280.073 458.125 279.648 458.438 279.336C458.751 279.023 459.175 278.847 459.617 278.847C460.059 278.847 460.483 279.023 460.796 279.336C461.109 279.648 461.284 280.073 461.284 280.515C461.284 280.957 461.109 281.381 460.796 281.694C460.483 282.007 460.059 282.182 459.617 282.182ZM459.617 280.303C459.561 280.303 459.507 280.325 459.467 280.365C459.427 280.405 459.405 280.459 459.405 280.515C459.405 280.757 459.829 280.757 459.829 280.515C459.829 280.459 459.807 280.405 459.767 280.365C459.727 280.325 459.673 280.303 459.617 280.303Z" fill="#D1D3D4"/>
<path d="M440.137 213.223V208.918C438.621 208.493 437.105 208.175 435.589 207.675C432.735 206.765 430.272 204.916 428.601 202.429C427.225 200.256 426.523 197.724 426.585 195.153H434.968C435.028 196.608 435.564 198.003 436.492 199.125C437.419 200.248 438.689 201.035 440.107 201.368V189.969C438.424 189.483 436.757 189.029 435.089 188.453C433.263 187.934 431.588 186.982 430.208 185.678C428.782 184.253 427.834 182.421 427.494 180.433C427.002 177.995 427.185 175.468 428.025 173.127C428.636 171.44 429.614 169.909 430.888 168.646C432.162 167.382 433.7 166.417 435.392 165.82C436.785 165.376 438.202 165.012 439.637 164.728L440.137 164.622V158.938H447.99V159.483C447.99 161.12 447.99 162.743 447.99 164.365C447.99 164.774 448.126 164.895 448.505 164.986C451.191 165.496 453.708 166.669 455.827 168.397C458.053 170.241 459.53 172.833 459.981 175.689C460.117 176.462 460.178 177.204 460.284 178.084H451.749C451.727 176.919 451.366 175.787 450.708 174.825C450.051 173.863 449.127 173.115 448.05 172.672V183.283L448.975 183.496C451.278 183.948 453.522 184.665 455.66 185.633C457.268 186.333 458.657 187.455 459.679 188.88C460.702 190.305 461.319 191.98 461.466 193.728C461.952 196.981 461.158 200.295 459.253 202.975C457.684 205.166 455.468 206.809 452.916 207.675C451.4 208.22 449.703 208.569 448.005 209.039V213.208L440.137 213.223ZM448.02 191.606V201.505C449.292 201.321 450.491 200.797 451.491 199.989C453.31 198.473 453.962 194.759 451.294 193.137C450.232 192.567 449.139 192.056 448.02 191.606ZM440.107 181.479V171.929C439.067 172.374 438.055 172.881 437.075 173.445C436.516 173.841 436.064 174.37 435.761 174.984C435.458 175.599 435.313 176.279 435.338 176.963C435.364 177.648 435.559 178.315 435.908 178.905C436.256 179.495 436.746 179.989 437.333 180.342C438.227 180.797 439.152 181.085 440.107 181.479Z" fill="#FF794E"/>
<path d="M447.991 213.981H440.138C439.938 213.977 439.748 213.896 439.606 213.754C439.465 213.613 439.384 213.423 439.38 213.223V209.509L438.486 209.281C437.409 209.009 436.379 208.736 435.348 208.387C432.335 207.417 429.735 205.463 427.965 202.839C426.503 200.547 425.759 197.871 425.828 195.153C425.823 195.052 425.84 194.952 425.877 194.858C425.913 194.764 425.969 194.679 426.04 194.607C426.111 194.536 426.197 194.481 426.291 194.444C426.384 194.407 426.485 194.391 426.586 194.395H434.969C435.153 194.39 435.334 194.454 435.474 194.574C435.614 194.695 435.704 194.863 435.727 195.047C435.758 196.18 436.117 197.28 436.76 198.213C437.403 199.147 438.302 199.874 439.35 200.307V190.545L438.395 190.272C437.212 189.923 436.03 189.59 434.863 189.226C432.917 188.645 431.139 187.605 429.678 186.194C428.127 184.656 427.103 182.666 426.752 180.509C426.231 177.934 426.425 175.265 427.313 172.793C427.966 171.01 429.004 169.392 430.354 168.056C431.703 166.72 433.331 165.697 435.12 165.062C436.109 164.711 437.123 164.433 438.152 164.228L439.395 163.955V158.937C439.395 158.736 439.475 158.544 439.617 158.402C439.759 158.259 439.952 158.18 440.153 158.18H448.006C448.207 158.18 448.399 158.259 448.542 158.402C448.684 158.544 448.764 158.736 448.764 158.937V160.848C448.764 161.984 448.764 163.121 448.764 164.258C451.547 164.797 454.152 166.022 456.343 167.821C458.708 169.773 460.277 172.523 460.755 175.552C460.861 176.098 460.921 176.659 460.982 177.22L461.073 177.993C461.083 178.099 461.072 178.207 461.039 178.308C461.005 178.41 460.952 178.504 460.88 178.583C460.809 178.663 460.722 178.727 460.625 178.772C460.527 178.816 460.422 178.84 460.315 178.842H451.75C451.558 178.838 451.373 178.764 451.233 178.632C451.093 178.5 451.007 178.321 450.992 178.129C450.984 177.313 450.782 176.511 450.402 175.789C450.023 175.066 449.477 174.445 448.809 173.975V182.692H449.127C451.491 183.148 453.792 183.886 455.979 184.89C457.706 185.64 459.197 186.843 460.294 188.373C461.391 189.902 462.053 191.701 462.21 193.576C462.732 197.017 461.889 200.526 459.86 203.354C458.207 205.677 455.862 207.418 453.16 208.326C452.053 208.705 450.947 208.993 449.764 209.297L448.718 209.6V213.192C448.722 213.292 448.707 213.391 448.672 213.485C448.638 213.578 448.585 213.664 448.518 213.737C448.45 213.811 448.369 213.87 448.278 213.912C448.188 213.953 448.09 213.977 447.991 213.981ZM440.896 212.465H447.202V209.054C447.203 208.888 447.259 208.727 447.36 208.596C447.461 208.464 447.603 208.37 447.763 208.326L449.279 207.902C450.431 207.614 451.507 207.326 452.569 206.962C454.966 206.149 457.049 204.607 458.526 202.551C460.337 200.031 461.083 196.9 460.603 193.834C460.48 192.212 459.914 190.655 458.968 189.332C458.022 188.01 456.731 186.971 455.237 186.33C453.147 185.385 450.954 184.688 448.703 184.253L448.036 184.102L447.778 184.026C447.611 183.991 447.461 183.9 447.353 183.767C447.246 183.635 447.187 183.469 447.187 183.298V172.687C447.19 172.559 447.223 172.433 447.284 172.319C447.344 172.206 447.431 172.109 447.536 172.035C447.648 171.975 447.773 171.944 447.9 171.944C448.026 171.944 448.151 171.975 448.263 172.035C449.355 172.485 450.307 173.218 451.022 174.159C451.736 175.1 452.186 176.214 452.326 177.386H459.33C459.33 176.871 459.224 176.371 459.133 175.87C458.711 173.192 457.326 170.761 455.237 169.034C453.21 167.389 450.81 166.27 448.248 165.774C447.921 165.744 447.619 165.584 447.409 165.331C447.198 165.079 447.097 164.753 447.126 164.425C447.126 163.243 447.126 162.075 447.126 160.908V159.756H440.79V164.683C440.793 164.858 440.734 165.029 440.623 165.165C440.512 165.301 440.356 165.393 440.183 165.426H440.002H439.714L438.364 165.729C437.412 165.909 436.474 166.163 435.56 166.487C433.97 167.049 432.524 167.957 431.327 169.144C430.129 170.331 429.209 171.769 428.632 173.354C427.829 175.563 427.661 177.952 428.147 180.251C428.44 182.103 429.316 183.813 430.648 185.133C431.929 186.356 433.491 187.246 435.196 187.725C436.348 188.104 437.515 188.437 438.698 188.771L440.214 189.195C440.371 189.241 440.51 189.337 440.608 189.468C440.706 189.599 440.76 189.759 440.76 189.923V201.323C440.76 201.437 440.734 201.549 440.685 201.652C440.635 201.755 440.562 201.844 440.472 201.914C440.379 201.987 440.27 202.038 440.154 202.061C440.038 202.085 439.919 202.081 439.805 202.05C438.384 201.702 437.101 200.935 436.123 199.848C435.144 198.761 434.515 197.405 434.317 195.956H427.359C427.425 198.111 428.074 200.206 429.238 202.02C430.821 204.366 433.15 206.108 435.848 206.962C436.818 207.296 437.804 207.553 438.88 207.826L440.396 208.205C440.553 208.251 440.691 208.347 440.79 208.478C440.888 208.609 440.941 208.769 440.941 208.933L440.896 212.465ZM448.021 202.263C447.842 202.265 447.669 202.2 447.536 202.081C447.453 202.008 447.387 201.92 447.34 201.821C447.293 201.722 447.267 201.614 447.263 201.505V191.606C447.264 191.479 447.297 191.354 447.358 191.244C447.42 191.133 447.508 191.039 447.615 190.971C447.722 190.903 447.845 190.863 447.971 190.855C448.098 190.847 448.224 190.87 448.339 190.924L449.4 191.378C450.19 191.683 450.955 192.048 451.689 192.47C452.311 192.846 452.831 193.369 453.204 193.992C453.576 194.616 453.79 195.322 453.827 196.047C453.89 196.897 453.757 197.749 453.436 198.538C453.115 199.327 452.616 200.031 451.977 200.595C450.877 201.5 449.551 202.087 448.142 202.293L448.021 202.263ZM448.779 192.758V200.504C449.595 200.275 450.354 199.878 451.007 199.337C451.454 198.929 451.803 198.425 452.029 197.864C452.255 197.302 452.351 196.697 452.311 196.093C452.29 195.611 452.151 195.141 451.905 194.726C451.659 194.31 451.314 193.962 450.901 193.713C450.227 193.336 449.528 193.007 448.809 192.727L448.779 192.758ZM440.108 182.313C440.013 182.333 439.915 182.333 439.82 182.313L438.94 181.964C438.273 181.707 437.652 181.464 437.03 181.161C436.334 180.802 435.746 180.265 435.325 179.605C434.904 178.944 434.666 178.184 434.635 177.401C434.568 176.546 434.722 175.688 435.083 174.91C435.445 174.132 436 173.46 436.697 172.96C437.361 172.531 438.061 172.161 438.789 171.853L439.774 171.383C439.889 171.322 440.019 171.292 440.149 171.297C440.279 171.301 440.406 171.34 440.517 171.409C440.628 171.478 440.718 171.575 440.779 171.69C440.841 171.806 440.87 171.935 440.866 172.065V181.616C440.867 181.739 440.838 181.861 440.779 181.97C440.721 182.078 440.636 182.17 440.532 182.237C440.402 182.306 440.254 182.332 440.108 182.313ZM439.35 173.217C438.724 173.487 438.12 173.806 437.546 174.173C437.08 174.523 436.709 174.983 436.466 175.513C436.223 176.042 436.114 176.623 436.151 177.204C436.162 177.716 436.308 178.215 436.574 178.652C436.84 179.089 437.217 179.447 437.667 179.691C438.195 179.955 438.737 180.193 439.289 180.403L439.35 173.217Z" fill="#121116"/>
<path d="M342.937 148.311C342.937 148.311 391.113 145.931 400.86 177.765V241.434C400.86 241.434 363.432 211.904 342.937 221.727V148.311Z" fill="#D1D3D4"/>
<path d="M400.859 242.071C400.688 242.069 400.523 242.01 400.389 241.904C400.01 241.616 363.067 212.783 343.269 222.349C343.159 222.413 343.033 222.446 342.905 222.446C342.778 222.446 342.652 222.413 342.542 222.349C342.432 222.279 342.341 222.182 342.278 222.069C342.214 221.955 342.18 221.827 342.178 221.697V148.311C342.178 148.115 342.253 147.927 342.389 147.785C342.525 147.644 342.71 147.561 342.905 147.553C343.39 147.553 391.794 145.506 401.587 177.477C401.594 177.553 401.594 177.629 401.587 177.705V241.374C401.587 241.516 401.548 241.655 401.473 241.776C401.397 241.896 401.29 241.993 401.162 242.056C401.063 242.078 400.96 242.083 400.859 242.071ZM352.698 218.862C360.172 218.862 369.283 221.621 379.985 227.109C387.031 230.8 393.777 235.038 400.162 239.782V177.765C391.279 149.114 349.757 148.872 343.754 148.963V220.423C346.606 219.329 349.644 218.798 352.698 218.862Z" fill="#121116"/>
<path d="M391.113 222.576C390.938 222.576 390.768 222.516 390.633 222.405C390.498 222.295 390.405 222.141 390.37 221.97C387.596 208.448 382.153 189.256 378.758 188.938C376.969 188.756 375.984 193.091 375.12 196.911C374.134 201.232 373.209 205.325 370.814 206.265C370.246 206.456 369.638 206.497 369.048 206.386C368.459 206.274 367.908 206.013 367.449 205.628C359.975 200.61 352.108 168.882 351.774 167.533C351.728 167.336 351.761 167.129 351.866 166.956C351.971 166.783 352.139 166.658 352.335 166.608C352.53 166.563 352.735 166.596 352.906 166.701C353.076 166.806 353.198 166.974 353.245 167.169C353.336 167.487 361.294 199.686 368.283 204.37C368.549 204.607 368.869 204.776 369.214 204.863C369.56 204.951 369.922 204.953 370.269 204.87C371.906 204.203 372.83 200.156 373.634 196.578C374.741 191.712 375.756 187.119 378.894 187.482C384.655 188.028 390.703 216.103 391.855 221.727C391.875 221.825 391.876 221.925 391.857 222.023C391.838 222.121 391.8 222.214 391.745 222.297C391.69 222.38 391.619 222.451 391.537 222.507C391.454 222.563 391.362 222.602 391.264 222.622L391.113 222.576Z" fill="#121116"/>
<path d="M400.86 177.765C400.86 177.765 397.556 203.718 381.396 209.282V265.689C381.396 265.689 393.523 260.201 400.86 241.434V177.765Z" fill="white"/>
<path d="M381.396 266.402C381.195 266.402 381.002 266.322 380.86 266.18C380.718 266.037 380.638 265.845 380.638 265.644V209.221C380.641 209.064 380.692 208.911 380.784 208.784C380.876 208.657 381.005 208.561 381.153 208.508C396.676 203.157 400.072 177.856 400.102 177.614C400.11 177.517 400.137 177.422 400.182 177.336C400.226 177.249 400.288 177.173 400.363 177.11C400.438 177.048 400.525 177.002 400.618 176.974C400.711 176.945 400.809 176.936 400.906 176.947C401.097 176.962 401.277 177.048 401.409 177.188C401.54 177.328 401.615 177.512 401.618 177.705V241.374C401.633 241.464 401.633 241.556 401.618 241.647C394.296 260.565 382.26 266.159 381.76 266.386C381.641 266.419 381.517 266.424 381.396 266.402ZM382.154 209.751V264.325C385.186 262.491 394.281 256.108 400.102 241.131V185.042C397.904 193.197 392.871 205.734 382.154 209.751Z" fill="#121116"/>
<path d="M373.542 162.606C373.396 162.61 373.253 162.568 373.133 162.485C370.465 160.807 367.465 159.726 364.34 159.317C364.241 159.307 364.144 159.278 364.055 159.231C363.967 159.184 363.889 159.119 363.825 159.042C363.762 158.964 363.715 158.875 363.686 158.779C363.657 158.683 363.648 158.582 363.658 158.483C363.681 158.286 363.779 158.105 363.931 157.978C364.084 157.851 364.279 157.788 364.477 157.801C367.851 158.232 371.09 159.396 373.967 161.211C374.134 161.325 374.25 161.5 374.289 161.699C374.329 161.897 374.289 162.103 374.179 162.273C374.107 162.375 374.011 162.458 373.901 162.516C373.79 162.574 373.667 162.605 373.542 162.606Z" fill="#121116"/>
<path d="M372.922 167.593C372.772 167.59 372.626 167.549 372.498 167.472C370.773 166.336 368.865 165.505 366.858 165.016C366.759 165 366.663 164.965 366.577 164.912C366.492 164.859 366.417 164.79 366.358 164.709C366.299 164.627 366.256 164.534 366.233 164.436C366.21 164.338 366.206 164.237 366.222 164.137C366.238 164.038 366.273 163.942 366.326 163.856C366.379 163.77 366.448 163.696 366.529 163.637C366.611 163.578 366.704 163.535 366.802 163.512C366.9 163.488 367.001 163.485 367.101 163.5C369.318 164.018 371.427 164.921 373.331 166.168C373.5 166.277 373.619 166.448 373.661 166.644C373.704 166.841 373.667 167.046 373.559 167.214C373.493 167.326 373.4 167.419 373.289 167.485C373.178 167.551 373.051 167.589 372.922 167.593Z" fill="#121116"/>
<path d="M318.349 221.576L325.837 216.725C328.202 215.209 330.885 210.661 332.841 210.873C334.796 211.085 330.597 216.467 330.597 216.467C330.597 216.467 338.51 211.798 340.784 211.919C343.058 212.04 343.816 215.982 343.149 217.104C342.482 218.225 335.948 220.333 333.402 222.334C329.981 224.584 326.439 226.644 322.79 228.503" fill="white"/>
<path d="M322.759 229.307C322.591 229.304 322.429 229.246 322.298 229.142C322.167 229.037 322.074 228.892 322.034 228.729C321.994 228.566 322.009 228.395 322.078 228.241C322.146 228.088 322.263 227.962 322.41 227.882C326.012 226.058 329.51 224.033 332.885 221.818C334.716 220.618 336.661 219.603 338.691 218.786C340.019 218.273 341.286 217.612 342.466 216.816C342.697 215.84 342.557 214.813 342.072 213.935C341.961 213.646 341.777 213.391 341.538 213.194C341.299 212.998 341.013 212.867 340.708 212.814C339.192 212.708 333.916 215.497 330.93 217.255C330.778 217.345 330.599 217.379 330.425 217.352C330.251 217.324 330.091 217.236 329.975 217.104C329.864 216.966 329.804 216.795 329.804 216.619C329.804 216.442 329.864 216.271 329.975 216.134C331.097 214.842 331.975 213.358 332.567 211.752C331.764 211.859 330.43 213.268 329.338 214.557C328.451 215.657 327.433 216.644 326.306 217.498L318.818 222.349L317.999 221.075C317.999 221.075 323.123 217.74 325.488 216.224C326.521 215.445 327.458 214.544 328.277 213.541C329.899 211.737 331.445 210.039 332.992 210.252C333.226 210.271 333.451 210.354 333.641 210.494C333.831 210.633 333.979 210.822 334.068 211.04C334.203 212.22 333.871 213.406 333.143 214.345C335.675 212.996 339.207 211.313 340.723 211.313H340.829C341.403 211.369 341.951 211.578 342.415 211.92C342.879 212.261 343.243 212.722 343.467 213.253C343.846 213.915 344.071 214.654 344.126 215.415C344.181 216.176 344.064 216.94 343.785 217.649C343.33 218.362 341.951 218.999 339.374 220.181C337.45 220.966 335.607 221.935 333.871 223.076C330.423 225.365 326.844 227.451 323.153 229.322C323.023 229.355 322.886 229.35 322.759 229.307Z" fill="#121116"/>
<path d="M325.079 190.878C327.547 189.555 330.156 188.512 332.856 187.77C335.888 187.164 339.753 186.952 339.056 185.603C338.359 184.254 331.173 185.193 331.143 185.209C334.432 184.769 337.54 174.734 338.525 172.293C338.706 171.904 338.794 171.479 338.783 171.05C338.765 170.836 338.671 170.636 338.518 170.486C338.365 170.335 338.163 170.245 337.949 170.231C337.655 170.279 337.386 170.43 337.191 170.656C331.673 175.734 326.731 180.994 320.971 185.815C320.395 186.391 325.079 190.878 325.079 190.878Z" fill="white"/>
<path d="M325.079 191.636C324.882 191.634 324.693 191.558 324.549 191.424C320.152 187.194 320.152 186.285 320.168 185.982C320.183 185.733 320.285 185.497 320.456 185.315C323.988 182.283 327.277 179.13 330.446 176.037C332.462 174.082 334.539 172.065 336.676 170.095C336.997 169.747 337.433 169.526 337.904 169.473C338.318 169.465 338.72 169.619 339.023 169.902C339.326 170.185 339.506 170.575 339.526 170.989C339.573 171.547 339.468 172.108 339.223 172.611C339.086 172.96 338.904 173.445 338.692 174.036C337.298 177.902 335.66 181.949 333.872 184.208C336.6 184.026 339.162 184.208 339.738 185.299C339.835 185.49 339.886 185.7 339.886 185.913C339.886 186.127 339.835 186.337 339.738 186.527C339.238 187.482 337.692 187.786 334.993 188.21L332.977 188.559C330.347 189.289 327.806 190.306 325.398 191.591C325.296 191.63 325.187 191.646 325.079 191.636ZM321.79 186.164C322.825 187.52 323.971 188.787 325.216 189.953C327.591 188.694 330.104 187.712 332.704 187.028C333.386 186.891 334.099 186.785 334.781 186.664C335.975 186.535 337.149 186.271 338.283 185.876C335.95 185.509 333.573 185.535 331.249 185.951C331.048 185.979 330.844 185.927 330.682 185.804C330.52 185.682 330.413 185.5 330.385 185.299C330.357 185.098 330.41 184.894 330.532 184.732C330.654 184.57 330.836 184.464 331.037 184.435C333.402 184.117 336.206 176.386 337.267 173.46C337.495 172.854 337.677 172.338 337.813 171.944C337.95 171.677 338.023 171.381 338.025 171.08C338.023 171.047 338.014 171.016 337.998 170.987C337.982 170.958 337.961 170.933 337.934 170.913C337.868 171.002 337.791 171.084 337.707 171.156C335.585 173.111 333.508 175.128 331.507 177.068C328.414 180.13 325.216 183.238 321.79 186.164Z" fill="#121116"/>
<path d="M273.78 193.698C273.78 193.698 298.944 200.474 302.946 199.959L320.137 184.799L328.323 191.682C328.323 191.682 321.971 205.082 314.573 212.389C307.176 219.696 265.048 216.285 265.048 216.285L273.78 193.698Z" fill="white"/>
<path d="M285.756 217.862C275.144 217.862 265.791 217.119 264.987 217.058C264.87 217.051 264.757 217.015 264.657 216.955C264.556 216.894 264.472 216.81 264.411 216.71C264.359 216.603 264.332 216.487 264.332 216.368C264.332 216.25 264.359 216.134 264.411 216.027L273.143 193.425C273.211 193.25 273.342 193.106 273.51 193.022C273.678 192.938 273.872 192.92 274.053 192.97C280.723 194.759 298.307 199.231 302.476 199.231H302.704L319.712 184.254C319.848 184.133 320.023 184.067 320.205 184.067C320.387 184.067 320.562 184.133 320.698 184.254L328.884 191.136C329.013 191.244 329.103 191.392 329.138 191.557C329.174 191.722 329.154 191.893 329.081 192.045C328.823 192.591 322.593 205.689 315.18 212.965C311.102 216.907 297.701 217.862 285.756 217.862ZM266.124 215.664C272.567 216.118 307.6 218.286 314.043 211.919C320.485 205.552 326.17 194.486 327.383 191.939L320.152 185.876L303.477 200.595C303.361 200.695 303.219 200.758 303.067 200.777C299.278 201.262 278.358 195.759 274.265 194.713L266.124 215.664Z" fill="#121116"/>
<path d="M311.207 348.489C311.207 348.489 305.993 353.385 306.341 356.069C306.69 358.752 322.274 376.276 324.153 374.563C326.033 372.85 320.879 357.888 320.879 357.888L311.207 348.489Z" fill="#121116"/>
<path d="M323.805 375.397C323.55 375.391 323.299 375.339 323.062 375.245C319.151 373.82 305.963 358.767 305.599 356.114C305.205 353.188 310.147 348.459 310.692 347.943C310.833 347.809 311.021 347.734 311.215 347.734C311.41 347.734 311.597 347.809 311.738 347.943L321.38 357.251C321.467 357.33 321.534 357.429 321.577 357.539C323.168 362.208 326.67 373.244 324.609 375.078C324.391 375.283 324.104 375.397 323.805 375.397ZM311.208 349.535C309.328 351.415 306.887 354.416 307.1 355.917C307.463 358.615 321.258 373.487 323.699 373.881C324.32 372.683 322.774 365.68 320.212 358.206L311.208 349.535Z" fill="#121116"/>
<path d="M318.863 335.967L311.208 348.489L320.88 357.797L330.748 343.259L318.863 335.967Z" fill="white"/>
<path d="M320.879 358.555C320.681 358.556 320.491 358.48 320.349 358.343L310.677 349.065C310.555 348.944 310.477 348.786 310.455 348.616C310.433 348.446 310.469 348.273 310.556 348.125L318.135 335.604C318.185 335.516 318.253 335.44 318.334 335.38C318.415 335.32 318.507 335.277 318.605 335.255C318.703 335.231 318.803 335.227 318.902 335.243C319.001 335.258 319.096 335.293 319.181 335.346L331.066 342.638C331.154 342.691 331.23 342.761 331.29 342.844C331.35 342.928 331.393 343.022 331.415 343.123C331.437 343.224 331.438 343.329 331.417 343.431C331.396 343.533 331.354 343.629 331.294 343.714L321.501 358.161C321.439 358.251 321.358 358.326 321.263 358.381C321.169 358.436 321.064 358.469 320.955 358.479L320.879 358.555ZM312.178 348.368L320.758 356.614L329.672 343.486L319.06 336.998L312.178 348.368Z" fill="#121116"/>
<path d="M296.427 257.215C296.427 257.215 339.54 273.89 347.423 282.122C355.306 290.353 342.314 340.621 330.581 348.747L314.997 337.953C314.997 337.953 328.64 299.858 325.806 296.235C322.971 292.612 286.801 283.395 286.801 283.395L266.078 253.562L296.427 257.215Z" fill="#121116"/>
<path d="M330.582 349.505C330.429 349.506 330.281 349.458 330.157 349.368L314.574 338.575C314.437 338.479 314.336 338.342 314.284 338.183C314.232 338.025 314.232 337.854 314.286 337.696C320.941 319.171 326.838 298.767 325.216 296.766C323.215 294.249 301.037 287.867 286.62 284.183C286.442 284.139 286.285 284.031 286.18 283.88L265.458 254.092C265.375 253.972 265.329 253.831 265.325 253.686C265.32 253.54 265.358 253.396 265.433 253.272C265.508 253.147 265.618 253.046 265.748 252.982C265.879 252.918 266.026 252.893 266.17 252.91L296.489 256.518H296.671C298.444 257.2 340.041 273.405 347.924 281.606C350.956 284.638 350.804 292.476 350.213 298.479C348.379 316.761 339.405 343.547 330.976 349.383C330.86 349.462 330.722 349.504 330.582 349.505ZM315.908 337.665L330.567 347.822C338.556 341.622 346.969 315.988 348.758 298.312C349.561 290.293 348.894 284.669 346.893 282.637C339.389 274.845 298.459 258.807 296.261 257.943L267.671 254.547L287.287 282.728C292.093 283.956 323.533 292.127 326.413 295.765C326.913 296.417 328.839 301.526 315.908 337.665Z" fill="#121116"/>
<path d="M278.691 366.635L275.796 378.686L286.907 385.781L291.652 369.242L278.691 366.635Z" fill="white"/>
<path d="M286.907 386.524C286.764 386.526 286.622 386.49 286.498 386.418L275.386 379.384C275.255 379.297 275.154 379.172 275.096 379.025C275.039 378.879 275.029 378.718 275.068 378.565L277.963 366.513C277.983 366.418 278.022 366.328 278.077 366.248C278.132 366.168 278.203 366.1 278.285 366.047C278.367 365.995 278.458 365.96 278.554 365.944C278.65 365.927 278.748 365.93 278.843 365.953L291.804 368.56C291.908 368.576 292.007 368.616 292.094 368.677C292.181 368.737 292.253 368.816 292.304 368.909C292.357 368.999 292.391 369.1 292.404 369.204C292.417 369.308 292.409 369.414 292.38 369.515L287.635 386.039C287.607 386.153 287.55 386.259 287.471 386.346C287.391 386.433 287.292 386.5 287.18 386.539L286.907 386.524ZM276.66 378.338L286.468 384.583L290.697 369.818L279.267 367.514L276.66 378.338Z" fill="#121116"/>
<path d="M251.497 263.324C251.497 263.324 247.389 282.516 258.076 284.138C277.298 287.049 287.03 301.723 287.136 311.728C287.303 325.659 275.327 368.636 275.327 368.636L295.034 375.973C295.034 375.973 316.788 319.747 313.635 304.33C310.482 288.913 285.863 254.593 285.863 254.593L251.497 263.324Z" fill="#121116"/>
<path d="M295.032 376.731C294.942 376.745 294.85 376.745 294.759 376.731L275.052 369.394C274.877 369.325 274.734 369.194 274.65 369.026C274.566 368.858 274.547 368.665 274.597 368.484C274.719 368.06 286.543 325.447 286.391 311.773C286.209 296.371 269.322 286.654 257.953 284.926C256.837 284.773 255.766 284.386 254.81 283.79C253.853 283.195 253.034 282.404 252.404 281.47C248.22 275.406 250.646 263.718 250.752 263.279C250.782 263.14 250.851 263.012 250.95 262.91C251.049 262.808 251.175 262.736 251.313 262.703L285.679 253.971C285.826 253.933 285.982 253.94 286.125 253.991C286.268 254.042 286.393 254.136 286.482 254.259C287.483 255.669 311.222 288.898 314.375 304.285C317.529 319.671 296.624 374.017 295.73 376.352C295.661 376.474 295.559 376.575 295.436 376.642C295.312 376.709 295.172 376.74 295.032 376.731ZM276.235 368.181L294.593 375.018C297.064 368.499 315.816 318.58 312.89 304.482C309.964 290.383 288.362 259.413 285.603 255.457L252.253 263.946C251.859 266.129 250.373 275.664 253.769 280.621C254.28 281.388 254.952 282.035 255.737 282.519C256.521 283.003 257.401 283.312 258.316 283.425C278.615 286.457 287.907 301.859 288.029 311.758C288.029 324.81 277.796 362.481 276.235 368.181Z" fill="#121116"/>
<path d="M261.563 178.114C251.603 175.431 254.332 159.68 256.287 152.222C256.557 150.614 257.339 149.136 258.516 148.008C259.123 147.481 259.914 147.218 260.716 147.275C261.517 147.331 262.264 147.704 262.79 148.311C262.563 146.219 264.61 144.582 266.58 143.763C270.318 142.3 274.47 142.3 278.207 143.763C280.784 144.809 283.119 146.537 285.787 147.038C288.455 147.538 291.942 146.143 292.215 143.384C293.445 144.657 294.361 146.2 294.887 147.89C295.414 149.58 295.537 151.37 295.246 153.116C294.595 156.921 292.215 158.619 289.683 161.014C287.151 163.41 286.515 167.154 283.483 169.14C277.919 172.733 275.009 177.765 267.99 178.478C265.843 178.747 263.665 178.624 261.563 178.114Z" fill="white"/>
<path d="M265.685 179.357C264.234 179.375 262.786 179.202 261.38 178.842C250.572 175.946 253.694 159.135 255.544 152.04C255.857 150.282 256.729 148.671 258.03 147.447C258.487 147.086 259.014 146.823 259.577 146.674C260.141 146.525 260.729 146.494 261.304 146.583C261.612 146.639 261.912 146.731 262.199 146.856C262.588 145.985 263.155 145.206 263.862 144.566C264.569 143.927 265.402 143.442 266.307 143.142C270.206 141.619 274.535 141.619 278.434 143.142C279.405 143.536 280.344 144.021 281.239 144.491C282.703 145.337 284.28 145.97 285.923 146.37C286.667 146.506 287.431 146.492 288.17 146.331C288.909 146.17 289.608 145.864 290.228 145.431C290.567 145.196 290.853 144.892 291.068 144.54C291.282 144.187 291.419 143.793 291.471 143.384C291.487 143.242 291.542 143.107 291.631 142.996C291.719 142.884 291.838 142.799 291.973 142.751C292.107 142.704 292.253 142.695 292.392 142.727C292.531 142.758 292.659 142.829 292.76 142.929C294.082 144.285 295.069 145.932 295.64 147.738C296.211 149.544 296.351 151.459 296.049 153.329C295.428 156.982 293.412 158.786 291.077 160.908L290.259 161.666C289.23 162.704 288.361 163.889 287.682 165.183C286.774 166.986 285.449 168.545 283.816 169.731C282.172 170.845 280.607 172.071 279.132 173.399C275.979 176.113 273.068 178.675 267.99 179.19C267.225 179.288 266.456 179.343 265.685 179.357ZM260.653 148.023C260.05 148.021 259.464 148.218 258.985 148.584C257.948 149.628 257.259 150.968 257.014 152.419C255.286 159.074 252.27 174.824 261.759 177.371C263.768 177.856 265.847 177.98 267.899 177.735C272.447 177.265 275.099 174.961 278.207 172.293C279.73 170.914 281.351 169.647 283.058 168.503C284.517 167.436 285.701 166.039 286.514 164.425C287.261 162.998 288.222 161.695 289.364 160.56L290.198 159.802C292.411 157.801 294.17 156.224 294.746 153.101C294.951 151.678 294.864 150.228 294.492 148.839C294.119 147.45 293.468 146.151 292.578 145.021C292.244 145.675 291.761 146.241 291.168 146.674C290.38 147.23 289.488 147.623 288.546 147.831C287.604 148.039 286.63 148.058 285.681 147.886C283.9 147.492 282.188 146.833 280.602 145.931C279.738 145.491 278.829 145.021 277.934 144.657C274.373 143.259 270.414 143.259 266.853 144.657C265.079 145.355 263.366 146.765 263.548 148.372C263.568 148.542 263.53 148.715 263.439 148.861C263.348 149.007 263.21 149.118 263.048 149.175C262.885 149.229 262.708 149.227 262.546 149.169C262.384 149.112 262.246 149.002 262.153 148.857C262.031 148.673 261.87 148.518 261.681 148.402C261.493 148.287 261.281 148.215 261.062 148.19C260.933 148.118 260.795 148.062 260.653 148.023Z" fill="#121116"/>
<path d="M286.118 170.186C286.118 170.186 289.059 177.599 287.877 178.766C286.695 179.933 283.936 178.402 283.936 178.402" fill="white"/>
<path d="M286.634 179.918C285.57 179.847 284.534 179.541 283.602 179.024C283.514 178.976 283.437 178.911 283.374 178.834C283.312 178.756 283.265 178.667 283.237 178.571C283.209 178.475 283.2 178.375 283.21 178.276C283.221 178.176 283.251 178.08 283.299 177.993C283.347 177.905 283.411 177.828 283.489 177.765C283.566 177.703 283.656 177.656 283.751 177.628C283.847 177.599 283.947 177.59 284.047 177.601C284.146 177.612 284.242 177.642 284.33 177.69C285.254 178.205 286.861 178.705 287.361 178.175C287.862 177.644 286.831 173.945 285.436 170.413C285.397 170.321 285.377 170.221 285.378 170.121C285.378 170.021 285.399 169.922 285.438 169.83C285.478 169.738 285.536 169.655 285.608 169.586C285.681 169.516 285.767 169.463 285.861 169.428C285.953 169.391 286.052 169.372 286.152 169.374C286.252 169.375 286.35 169.396 286.441 169.436C286.533 169.475 286.616 169.532 286.685 169.604C286.755 169.675 286.809 169.76 286.846 169.852C287.998 172.793 289.757 177.932 288.362 179.251C287.897 179.693 287.275 179.933 286.634 179.918Z" fill="#121116"/>
<path d="M287.014 161.333C289.288 164.152 287.499 168.7 286.817 171.777C285.877 176.098 284.831 180.403 283.694 184.663C282.966 187.376 275.856 185.936 274.765 184.86L273.522 194.062C273.522 194.062 270.793 198.731 265.624 194.865C260.455 190.999 259.894 187.058 259.894 187.058L262.926 174.658C262.926 174.658 267.625 175.673 271.566 170.671C275.508 165.668 277.221 157.027 277.221 157.027C277.221 157.027 284.8 158.589 287.014 161.333Z" fill="white"/>
<path d="M269.52 197.154C267.925 197.081 266.398 196.491 265.169 195.471C259.818 191.469 259.106 187.346 259.106 187.164C259.083 187.069 259.083 186.971 259.106 186.876L262.259 174.461C262.305 174.27 262.426 174.105 262.593 174.003C262.761 173.901 262.962 173.869 263.153 173.915C263.32 173.915 267.443 174.749 271.036 170.201C274.826 165.395 276.508 156.982 276.539 156.906C276.555 156.808 276.591 156.713 276.646 156.63C276.701 156.546 276.773 156.475 276.857 156.421C276.939 156.367 277.031 156.33 277.127 156.312C277.223 156.294 277.322 156.295 277.418 156.315C277.736 156.315 285.24 157.922 287.605 160.863C289.727 163.501 288.757 167.275 287.969 170.307C287.817 170.883 287.681 171.444 287.56 171.959C286.62 176.28 285.559 180.615 284.422 184.875C284.276 185.363 283.995 185.8 283.612 186.136C283.228 186.471 282.757 186.691 282.254 186.77C279.94 187.175 277.56 186.939 275.371 186.088L274.265 194.183C274.251 194.283 274.22 194.381 274.174 194.471C273.35 195.783 272.043 196.72 270.536 197.078C270.2 197.134 269.86 197.16 269.52 197.154ZM260.743 187.088C261.667 190.03 263.579 192.563 266.155 194.259C266.716 194.758 267.376 195.133 268.091 195.36C268.807 195.587 269.562 195.661 270.308 195.578C271.344 195.306 272.252 194.678 272.87 193.804L274.098 184.708C274.119 184.569 274.179 184.439 274.27 184.332C274.361 184.225 274.48 184.145 274.614 184.102C274.746 184.056 274.89 184.049 275.026 184.081C275.163 184.113 275.288 184.183 275.387 184.284C277.414 185.285 279.706 185.619 281.935 185.239C282.557 185.072 282.936 184.799 283.042 184.435C284.164 180.191 285.21 175.87 286.165 171.565C286.271 171.035 286.423 170.474 286.574 169.867C287.272 167.169 288.09 163.804 286.498 161.757C284.982 159.893 280.329 158.483 277.933 157.907C277.418 160.165 275.675 166.82 272.294 171.095C271.329 172.484 270.031 173.609 268.519 174.366C267.007 175.124 265.329 175.49 263.638 175.431L260.743 187.088Z" fill="#121116"/>
<path d="M284.27 181.419C283.791 181.614 283.275 181.704 282.758 181.682C282.24 181.66 281.734 181.526 281.273 181.29C280.813 181.054 280.409 180.721 280.088 180.314C279.768 179.907 279.54 179.436 279.419 178.933" fill="white"/>
<path d="M282.785 182.404C282.091 182.414 281.405 182.258 280.784 181.949C280.254 181.656 279.793 181.252 279.432 180.766C279.072 180.28 278.819 179.722 278.692 179.13C278.64 178.937 278.667 178.731 278.767 178.558C278.866 178.385 279.03 178.258 279.222 178.205C279.417 178.153 279.624 178.18 279.8 178.279C279.976 178.378 280.105 178.542 280.162 178.736C280.234 179.123 280.389 179.491 280.617 179.812C280.845 180.134 281.139 180.403 281.481 180.6C282.284 180.939 283.183 180.977 284.012 180.706C284.204 180.643 284.412 180.656 284.593 180.744C284.774 180.832 284.914 180.987 284.983 181.176C285.016 181.269 285.031 181.367 285.026 181.465C285.022 181.564 284.997 181.66 284.955 181.749C284.913 181.838 284.853 181.917 284.78 181.983C284.707 182.049 284.621 182.099 284.528 182.131C283.964 182.31 283.376 182.402 282.785 182.404Z" fill="#121116"/>
<path d="M277.236 171.156C277.347 170.052 277.147 168.939 276.659 167.942C276.382 167.122 275.989 166.347 275.492 165.638C275.24 165.289 274.913 165.001 274.535 164.794C274.158 164.587 273.739 164.466 273.309 164.44C272.93 164.456 272.558 164.552 272.218 164.721C271.878 164.891 271.579 165.131 271.339 165.426C270.854 166.017 270.512 166.712 270.338 167.457C269.933 169.065 269.957 170.751 270.406 172.346C270.856 173.942 271.716 175.392 272.9 176.553L272.703 176.234" fill="white"/>
<path d="M272.87 177.356C272.673 177.354 272.484 177.278 272.34 177.144C271.059 175.879 270.131 174.302 269.647 172.568C269.163 170.835 269.14 169.005 269.581 167.26C269.783 166.405 270.177 165.606 270.733 164.925C271.045 164.549 271.433 164.244 271.872 164.03C272.311 163.815 272.791 163.697 273.279 163.682C273.826 163.709 274.36 163.859 274.841 164.122C275.321 164.384 275.736 164.752 276.054 165.198C276.6 165.962 277.024 166.806 277.312 167.7C277.857 168.83 278.073 170.091 277.933 171.338C277.895 171.539 277.779 171.716 277.61 171.832C277.44 171.947 277.232 171.99 277.031 171.952C276.83 171.914 276.653 171.797 276.538 171.628C276.422 171.459 276.379 171.251 276.417 171.05C276.497 170.078 276.309 169.102 275.872 168.23C275.625 167.486 275.273 166.782 274.826 166.138C274.644 165.878 274.408 165.661 274.132 165.504C273.857 165.347 273.55 165.253 273.234 165.229C272.963 165.245 272.699 165.318 272.459 165.444C272.219 165.569 272.007 165.744 271.839 165.956C271.428 166.458 271.143 167.05 271.006 167.684C270.653 169.057 270.64 170.495 270.968 171.873C271.295 173.252 271.953 174.53 272.885 175.598C273.05 175.654 273.189 175.767 273.279 175.916L273.461 176.234C273.531 176.348 273.569 176.479 273.572 176.613C273.575 176.746 273.542 176.878 273.477 176.995C273.413 177.112 273.318 177.21 273.204 177.279C273.089 177.347 272.958 177.384 272.825 177.386L272.87 177.356Z" fill="#121116"/>
<path d="M274.767 184.86C272.797 183.734 271.192 182.066 270.143 180.054C270.143 180.054 269.006 186.694 274.251 189.787L274.767 184.86Z" fill="#121116"/>
<path d="M274.249 190.545C274.115 190.549 273.982 190.512 273.87 190.438C268.231 187.119 269.322 180.221 269.398 179.933C269.428 179.77 269.509 179.621 269.629 179.507C269.748 179.393 269.901 179.319 270.065 179.296C270.23 179.278 270.396 179.314 270.538 179.399C270.681 179.483 270.791 179.613 270.853 179.766C271.831 181.621 273.32 183.157 275.143 184.193C275.271 184.267 275.374 184.377 275.441 184.509C275.509 184.64 275.537 184.789 275.522 184.936L275.007 189.893C274.992 190.021 274.946 190.144 274.872 190.25C274.798 190.356 274.698 190.442 274.582 190.499C274.476 190.537 274.362 190.553 274.249 190.545ZM270.823 182.556C270.88 183.664 271.158 184.749 271.639 185.748C272.121 186.748 272.797 187.641 273.627 188.377L273.961 185.193C272.796 184.466 271.74 183.578 270.823 182.556Z" fill="#121116"/>
<path d="M284.881 166.872C285.2 166.062 285.2 165.303 284.88 165.177C284.561 165.051 284.043 165.606 283.724 166.416C283.405 167.226 283.405 167.985 283.725 168.111C284.044 168.237 284.562 167.682 284.881 166.872Z" fill="#121116"/>
<path d="M255.558 183.162C255.558 183.162 271.475 185.876 276.781 195.289C282.087 204.703 283.315 238.205 286.195 240.767C289.075 243.329 296.518 256.594 296.352 257.2C296.185 257.806 248.661 266.765 248.661 266.765C248.661 266.765 247.266 255.896 243.901 241.601C240.535 227.306 242.112 182.495 255.558 183.162Z" fill="white"/>
<path d="M248.737 267.539C248.579 267.54 248.426 267.492 248.297 267.402C248.214 267.342 248.143 267.265 248.091 267.176C248.039 267.088 248.006 266.989 247.994 266.887C247.994 266.781 246.478 255.866 243.234 241.783C240.566 230.429 240.687 196.017 249.464 185.481C250.167 184.518 251.092 183.739 252.161 183.211C253.23 182.683 254.412 182.422 255.604 182.45H255.695C256.362 182.556 272.021 185.315 277.509 194.91C280.541 200.307 282.269 212.935 283.724 224.077C284.664 231.217 285.725 239.236 286.756 240.252C289.242 242.495 297.489 256.154 297.14 257.442C296.973 258.049 296.852 258.504 248.858 267.569L248.737 267.539ZM255.255 183.92C254.354 183.967 253.476 184.22 252.688 184.658C251.899 185.097 251.222 185.711 250.707 186.452C242.809 195.926 241.9 229.14 244.78 241.434C247.615 253.425 249.07 263.127 249.464 265.901C266.564 262.657 291.274 257.867 295.548 256.806C294.321 254.123 288.333 243.678 285.831 241.404C284.437 240.131 283.618 234.37 282.299 224.304C280.92 213.844 279.267 200.823 276.236 195.684C271.248 186.967 256.438 184.147 255.528 183.981L255.255 183.92Z" fill="#121116"/>
<path d="M276.296 194.365L275.038 198.943L276.888 199.625L277.388 231.914L284.118 237.842L287.09 227.791L278.343 199.746L279.647 198.215L276.296 194.365Z" fill="#121116"/>
<path d="M266.972 198.17C267.291 198.685 281.859 229.762 281.859 229.762L319.969 216.861L327.549 228.079C327.549 228.079 294.411 247.24 282.071 249.711C269.731 252.182 247.751 206.568 248.615 202.02" fill="white"/>
<path d="M281.147 250.53C278.479 250.53 275.356 248.756 271.839 245.239C260.743 234.112 247.099 205.931 247.933 201.808C247.977 201.613 248.094 201.442 248.261 201.332C248.428 201.222 248.631 201.181 248.827 201.217C248.925 201.237 249.018 201.276 249.1 201.331C249.183 201.387 249.253 201.458 249.308 201.541C249.363 201.624 249.401 201.718 249.42 201.815C249.439 201.913 249.438 202.014 249.419 202.111C248.767 205.325 261.546 232.793 272.915 244.208C276.554 247.847 279.601 249.438 282.011 248.968C293.032 246.755 321.622 230.595 326.473 227.745L319.697 217.695L282.147 230.398C281.97 230.458 281.776 230.451 281.603 230.378C281.43 230.306 281.29 230.173 281.208 230.004C277.221 221.485 266.776 199.231 266.367 198.488C266.271 198.314 266.246 198.11 266.297 197.918C266.348 197.726 266.47 197.561 266.639 197.457C266.809 197.355 267.012 197.323 267.204 197.369C267.397 197.414 267.564 197.533 267.67 197.7C267.973 198.2 279.328 222.394 282.299 228.746L319.773 216.073C319.93 216.022 320.1 216.024 320.256 216.079C320.412 216.134 320.546 216.238 320.637 216.376L328.216 227.579C328.274 227.664 328.314 227.761 328.332 227.863C328.35 227.965 328.347 228.069 328.323 228.17C328.302 228.271 328.26 228.366 328.2 228.45C328.14 228.533 328.063 228.603 327.974 228.655C326.61 229.443 294.623 247.907 282.344 250.378C281.952 250.472 281.55 250.523 281.147 250.53Z" fill="#121116"/>
<path d="M282.89 249.939C274.689 249.939 266.7 242.465 259.106 227.685C259.059 227.597 259.031 227.5 259.022 227.4C259.014 227.301 259.025 227.201 259.057 227.106C259.088 227.011 259.138 226.924 259.203 226.849C259.269 226.774 259.349 226.713 259.439 226.669C259.616 226.578 259.822 226.56 260.012 226.62C260.202 226.68 260.361 226.812 260.455 226.987C268.11 241.889 276.008 249.09 283.952 248.377C291.895 247.665 309.177 237.265 309.343 237.159C309.428 237.097 309.524 237.053 309.627 237.031C309.729 237.008 309.835 237.006 309.938 237.027C310.041 237.047 310.139 237.088 310.225 237.148C310.311 237.208 310.384 237.285 310.439 237.375C310.493 237.464 310.529 237.564 310.543 237.668C310.557 237.772 310.55 237.878 310.521 237.979C310.492 238.08 310.442 238.173 310.375 238.254C310.308 238.335 310.225 238.401 310.132 238.448C309.419 238.887 292.517 249.15 284.088 249.893L282.89 249.939Z" fill="#121116"/>
<path d="M275.794 378.686C275.794 378.686 271.595 389.146 271.883 390.147C272.171 391.147 287.149 415.766 289.665 409.02C292.182 402.274 286.906 385.766 286.906 385.766L275.794 378.686Z" fill="#121116"/>
<path d="M288.257 410.945H288.166C283.072 410.718 271.491 391.359 271.157 390.344C270.824 389.328 273.143 383.28 275.099 378.398C275.144 378.297 275.209 378.207 275.29 378.131C275.37 378.056 275.465 377.997 275.569 377.959C275.675 377.928 275.787 377.921 275.897 377.936C276.006 377.952 276.112 377.991 276.205 378.05L287.317 385.144C287.466 385.234 287.579 385.374 287.635 385.538C287.848 386.22 292.956 402.365 290.379 409.278C290.259 409.751 289.985 410.171 289.602 410.472C289.218 410.774 288.745 410.94 288.257 410.945ZM276.129 379.808C274.7 383.122 273.52 386.537 272.597 390.025C273.158 391.42 284.391 409.429 288.242 409.429C288.393 409.429 288.681 409.429 288.939 408.747C291.167 402.774 286.893 388.373 286.241 386.266L276.129 379.808Z" fill="#121116"/>
<path d="M306.387 287.806C306.256 287.809 306.126 287.776 306.012 287.712C305.897 287.648 305.802 287.555 305.735 287.443L292.759 266.023C292.686 265.854 292.676 265.665 292.733 265.49C292.789 265.315 292.907 265.166 293.064 265.072C293.222 264.977 293.408 264.943 293.589 264.976C293.77 265.009 293.933 265.106 294.047 265.249L307.023 286.654C307.078 286.739 307.114 286.834 307.131 286.934C307.147 287.033 307.143 287.135 307.119 287.233C307.095 287.33 307.051 287.422 306.991 287.503C306.93 287.583 306.853 287.65 306.766 287.7C306.652 287.771 306.521 287.807 306.387 287.806Z" fill="white"/>
</svg>
