<svg width="370" height="260" viewBox="0 0 370 260" fill="none" xmlns="http://www.w3.org/2000/svg">
<path d="M314.123 112.672V258.914H44.1044V112.672L179.12 31.0382L314.123 112.672Z" fill="#F1F2F2"/>
<path d="M314.125 259.519H44.0694C43.9088 259.519 43.7548 259.456 43.6412 259.342C43.5277 259.229 43.4639 259.075 43.4639 258.914V112.672C43.4645 112.567 43.4928 112.463 43.5459 112.372C43.599 112.28 43.6751 112.204 43.7666 112.152L178.843 30.5174C178.937 30.4583 179.046 30.427 179.158 30.427C179.269 30.427 179.378 30.4583 179.472 30.5174L314.476 112.152C314.565 112.206 314.639 112.282 314.69 112.374C314.741 112.465 314.767 112.568 314.766 112.672V258.914C314.767 258.997 314.75 259.078 314.717 259.154C314.685 259.23 314.637 259.299 314.576 259.355C314.516 259.412 314.445 259.456 314.368 259.484C314.29 259.512 314.207 259.524 314.125 259.519ZM44.7112 258.308H313.555V112.987L179.133 31.7163L44.7112 112.987V258.308Z" fill="#121116"/>
<path d="M237.758 51.7828C237.758 51.7828 243.995 40.1329 243.183 32.4066C242.372 24.6804 234.706 23.2998 234.706 23.2998C234.706 23.2998 216.214 13.6723 211.927 6.99963L212.072 16.7604C208.715 15.601 205.617 13.7949 202.953 11.444C202.953 11.444 200.071 16.4213 203.184 20.8536C203.184 20.8536 197.734 21.9193 194.149 18.3105C194.149 18.3105 195.978 32.9637 208.9 34.8529C217.413 36.0397 228.494 52.352 237.758 51.7828Z" fill="white"/>
<path d="M237.286 52.4004C232.175 52.4004 226.689 47.7985 221.385 43.3541C216.832 39.5394 212.545 35.9306 208.839 35.3978C195.615 33.4602 193.592 18.4436 193.568 18.3225C193.554 18.1978 193.579 18.0718 193.64 17.962C193.701 17.8521 193.794 17.7638 193.907 17.7093C194.02 17.6548 194.147 17.6367 194.271 17.6576C194.395 17.6785 194.509 17.7374 194.598 17.826C195.623 18.7357 196.827 19.4211 198.132 19.8382C199.438 20.2553 200.816 20.3949 202.179 20.2481C199.757 15.8036 202.336 11.226 202.457 11.0323C202.499 10.9542 202.558 10.8866 202.63 10.8344C202.701 10.7821 202.784 10.7465 202.871 10.7303C202.958 10.714 203.047 10.7175 203.133 10.7404C203.219 10.7633 203.298 10.8051 203.365 10.8627C205.787 12.9341 208.527 14.6024 211.479 15.8036L211.346 6.90272C211.341 6.77231 211.38 6.64407 211.457 6.53863C211.534 6.43319 211.644 6.35668 211.77 6.32143C211.895 6.281 212.031 6.28278 212.156 6.32651C212.28 6.37024 212.387 6.45351 212.46 6.56363C216.481 12.8124 233.653 21.9314 234.936 22.6095C235.869 22.8154 242.977 24.5956 243.789 32.2976C244.612 40.1813 238.545 51.6011 238.291 52.0855C238.242 52.1758 238.17 52.2522 238.083 52.3072C237.997 52.3623 237.897 52.3944 237.794 52.4004H237.286ZM195.094 19.8C196.015 23.5783 199.236 32.7578 209.021 34.1989C213.053 34.7923 217.498 38.498 222.16 42.4216C227.307 46.7328 232.611 51.1894 237.286 51.1894H237.383C238.339 49.3123 243.292 39.2367 242.578 32.4066C241.827 25.1405 234.912 23.9295 234.622 23.8326L234.452 23.7721C233.737 23.4088 218.273 15.295 212.581 8.76767L212.702 16.6877C212.703 16.7805 212.682 16.8723 212.642 16.9562C212.603 17.04 212.544 17.1138 212.472 17.1721C212.398 17.2305 212.311 17.2708 212.219 17.2898C212.126 17.3087 212.03 17.3057 211.939 17.2811C208.735 16.1868 205.768 14.4937 203.196 12.2917C202.574 13.5732 202.294 14.9938 202.383 16.4155C202.472 17.8372 202.927 19.2117 203.704 20.4055C203.759 20.491 203.793 20.5881 203.803 20.689C203.814 20.7899 203.801 20.8918 203.765 20.9868C203.726 21.0798 203.665 21.1618 203.587 21.2252C203.509 21.2886 203.416 21.3316 203.317 21.3501C200.479 21.841 197.559 21.2905 195.094 19.8Z" fill="#121116"/>
<path d="M228.167 172.387C228.167 172.387 257.97 136.287 262.899 108.712C267.828 81.1377 250.607 74.8041 244.601 72.7454C238.594 70.6867 207.29 57.7047 191.571 69.0397C175.852 80.3748 160.193 151.086 160.193 151.086L228.167 172.387Z" fill="#FFC631"/>
<path d="M120.713 208.318L152.768 168.355C152.768 168.355 175.075 139.908 162.614 136.868C162.614 136.868 145.321 139.121 117.068 148.979C108.676 151.897 94.2525 185.224 85.1457 208.318H120.713Z" fill="#121116"/>
<path d="M120.714 208.924H85.0859C84.9875 208.924 84.8906 208.9 84.804 208.853C84.7173 208.806 84.6435 208.739 84.5893 208.657C84.5448 208.571 84.5215 208.476 84.5215 208.379C84.5215 208.282 84.5448 208.186 84.5893 208.1C94.6892 182.475 108.495 151.304 116.875 148.385C144.849 138.697 162.36 136.275 162.542 136.275H162.76C163.641 136.431 164.465 136.819 165.148 137.397C165.831 137.976 166.349 138.725 166.647 139.569C169.517 147.804 153.92 167.834 153.254 168.633L121.186 208.597C121.141 208.686 121.074 208.763 120.991 208.82C120.909 208.877 120.813 208.912 120.714 208.924ZM86.0426 207.713H120.423L152.2 167.931C152.357 167.737 168.052 147.586 165.412 139.981C165.187 139.345 164.797 138.78 164.282 138.344C163.767 137.908 163.146 137.616 162.482 137.498C160.956 137.704 143.856 140.247 117.178 149.536C111.026 151.679 99.9813 172.327 85.982 207.713H86.0426Z" fill="#121116"/>
<path d="M174.397 208.318L182.535 188.494C182.535 188.494 202.396 194.44 215.644 189.45C224.969 185.938 227.815 173.889 232.029 164.128C232.029 164.128 176.323 150.928 163.886 145.551C163.886 145.551 163.111 145.551 148.857 160.519C142.487 167.24 137.413 187.719 133.756 208.318H174.397Z" fill="#121116"/>
<path d="M174.397 208.923H133.755C133.665 208.924 133.576 208.905 133.495 208.868C133.413 208.83 133.341 208.775 133.283 208.705C133.229 208.638 133.189 208.56 133.166 208.477C133.143 208.394 133.138 208.307 133.15 208.221C137.8 182.063 142.947 165.836 148.421 160.108C162.856 144.897 163.631 144.934 163.91 144.946C163.982 144.934 164.055 144.934 164.128 144.946C176.419 150.347 231.617 163.414 232.126 163.547C232.211 163.568 232.291 163.607 232.359 163.661C232.428 163.716 232.485 163.784 232.525 163.862C232.562 163.942 232.58 164.028 232.58 164.116C232.58 164.204 232.562 164.29 232.525 164.37C231.738 166.187 230.987 168.125 230.261 169.989C227.003 178.382 223.624 187.065 215.789 190.02C203.558 194.621 186.144 190.141 182.826 189.22L174.893 208.596C174.847 208.69 174.776 208.769 174.689 208.827C174.602 208.884 174.501 208.917 174.397 208.923ZM134.434 207.712H173.997L181.99 188.264C182.044 188.124 182.15 188.011 182.284 187.945C182.419 187.88 182.573 187.869 182.717 187.912C182.922 187.912 202.541 193.737 215.414 188.881C222.68 186.132 226.01 177.704 229.183 169.505C229.825 167.846 230.491 166.138 231.181 164.504C224.751 162.966 176.068 151.267 163.934 146.181C163.243 146.702 160.386 149.209 149.281 160.895C144.11 166.405 138.987 182.572 134.47 207.712H134.434Z" fill="#121116"/>
<path d="M191.57 69.0397C191.57 69.0397 178.249 83.5718 170.813 90.8379C163.378 98.1039 148.797 107.513 148.797 107.513C148.797 107.513 105.322 111.013 104.862 111.704C104.402 112.394 104.862 126.829 104.862 126.829C104.862 126.829 147.344 134.979 155.094 133.574C162.845 132.17 181.131 119.878 181.131 119.878L191.57 69.0397Z" fill="#FFC631"/>
<path d="M210.074 61.822L208.73 75.4944C208.73 75.4944 211.152 83.3417 220.38 81.9369C229.608 80.5322 231.279 74.2107 231.279 74.2107L237.261 47.4958C237.261 47.4958 231.727 43.4995 226.507 27.8774C226.507 27.8774 207.228 24.2444 206.562 31.68C206.562 31.68 202.759 45.0011 203.038 52.0371C203.292 58.8793 209.953 61.713 210.074 61.822Z" fill="white"/>
<path d="M218.261 82.712C216.056 82.7279 213.901 82.0597 212.092 80.7996C210.283 79.5395 208.91 77.7494 208.161 75.676C208.143 75.6003 208.143 75.5215 208.161 75.4459L209.444 62.1248C205.121 59.7754 202.602 56.0697 202.445 52.0007C202.166 44.9284 205.836 32.007 205.993 31.4136C206.053 30.8008 206.245 30.2083 206.557 29.6772C206.869 29.1461 207.292 28.689 207.797 28.3376C212.641 24.6319 226.072 27.1266 226.629 27.1266C226.736 27.148 226.837 27.1973 226.92 27.2695C227.002 27.3418 227.065 27.4344 227.101 27.5383C232.163 42.7123 237.576 46.8176 237.637 46.9145C237.729 46.9852 237.8 47.0807 237.841 47.19C237.882 47.2993 237.891 47.4179 237.867 47.5321L231.884 74.247C231.8 74.5498 229.947 80.9923 220.489 82.4455C219.753 82.5866 219.009 82.6756 218.261 82.712ZM209.347 75.4459C209.687 76.3905 212.23 82.5909 220.247 81.3556C228.93 80.0235 230.637 74.0896 230.649 74.0896L236.547 47.7743C235.275 46.6723 230.492 41.8767 225.999 28.3982C223.868 28.0348 212.532 26.291 208.463 29.3791C208.08 29.6448 207.761 29.9923 207.529 30.3965C207.296 30.8007 207.156 31.2515 207.119 31.7163C207.119 31.9585 203.329 45.0374 203.595 51.9886C203.801 57.1475 207.797 59.9692 210.159 61.1802C210.262 61.2298 210.36 61.2907 210.45 61.3618C210.516 61.4249 210.567 61.5026 210.599 61.5888C210.63 61.6749 210.641 61.7672 210.631 61.8584L209.347 75.4459Z" fill="#121116"/>
<path d="M230.625 47.956C231.04 46.7487 231.834 45.708 232.889 44.989C234.474 43.825 236.456 43.3372 238.4 43.6326C240.64 44.2624 241.778 46.9993 241.294 49.276C240.994 50.6406 240.352 51.9066 239.428 52.9552C238.505 54.0037 237.33 54.8004 236.014 55.2705C235.108 55.5383 234.158 55.6248 233.219 55.5251C232.28 55.4254 231.369 55.1413 230.54 54.6892" fill="white"/>
<path d="M233.991 56.1667C232.684 56.1729 231.396 55.848 230.249 55.2221C230.179 55.1839 230.117 55.1324 230.067 55.0703C230.017 55.0083 229.98 54.937 229.957 54.8605C229.935 54.7841 229.928 54.7039 229.936 54.6247C229.945 54.5454 229.969 54.4686 230.007 54.3986C230.045 54.3286 230.096 54.2669 230.159 54.2168C230.221 54.1668 230.292 54.1295 230.368 54.107C230.445 54.0845 230.525 54.0773 230.604 54.0858C230.683 54.0942 230.76 54.1182 230.83 54.1564C232.366 54.9879 234.168 55.1794 235.844 54.6893C237.052 54.2497 238.13 53.5119 238.977 52.5443C239.824 51.5768 240.412 50.4109 240.688 49.1549C241.087 47.2537 240.179 44.759 238.266 44.2261C237.392 44.0879 236.499 44.1238 235.638 44.3316C234.778 44.5394 233.967 44.9151 233.252 45.4371C232.305 46.0749 231.594 47.007 231.23 48.0893C231.178 48.2498 231.065 48.3834 230.915 48.4607C230.766 48.5379 230.591 48.5524 230.431 48.501C230.27 48.4496 230.136 48.3365 230.059 48.1866C229.982 48.0368 229.967 47.8623 230.019 47.7017C230.474 46.3702 231.35 45.2227 232.514 44.432C233.373 43.7959 234.353 43.3404 235.394 43.0927C236.434 42.8451 237.514 42.8104 238.569 42.9909C241.209 43.7175 242.42 46.8661 241.899 49.3366C241.588 50.8272 240.899 52.2128 239.898 53.3601C238.897 54.5075 237.618 55.3781 236.183 55.8882C235.47 56.0888 234.731 56.1826 233.991 56.1667Z" fill="#121116"/>
<path d="M217.123 41.2592C217.123 41.2592 211.576 47.6896 212.545 49.046C213.514 50.4023 216.723 49.9663 216.723 49.9663" fill="white"/>
<path d="M215.596 50.6445C214.952 50.7142 214.301 50.6419 213.688 50.4327C213.075 50.2234 212.515 49.8824 212.048 49.4335C210.97 47.9197 214.47 43.3784 216.662 40.9564C216.772 40.8575 216.914 40.802 217.061 40.8006C217.209 40.7991 217.352 40.8517 217.464 40.9485C217.576 41.0452 217.648 41.1795 217.668 41.3259C217.687 41.4724 217.652 41.6209 217.57 41.7436C214.906 44.8438 212.787 48.1377 213.041 48.8038C213.586 49.5546 215.548 49.603 216.674 49.4577C216.835 49.4368 216.997 49.4806 217.125 49.5794C217.253 49.6782 217.337 49.8239 217.358 49.9845C217.379 50.1451 217.335 50.3074 217.236 50.4357C217.138 50.564 216.992 50.6479 216.831 50.6687C216.42 50.684 216.007 50.6759 215.596 50.6445Z" fill="#121116"/>
<path d="M227.198 40.4447C227.343 39.5468 226.947 38.7358 226.313 38.6332C225.68 38.5307 225.048 39.1755 224.903 40.0734C224.758 40.9713 225.154 41.7823 225.787 41.8849C226.421 41.9874 227.053 41.3427 227.198 40.4447Z" fill="#121116"/>
<path d="M212.045 41.0263C212.687 41.004 213.181 40.2489 213.15 39.3399C213.118 38.4308 212.572 37.712 211.931 37.7343C211.289 37.7566 210.794 38.5116 210.826 39.4206C210.857 40.3297 211.403 41.0485 212.045 41.0263Z" fill="#121116"/>
<path d="M210.073 61.822C210.073 61.822 218.381 64.6195 223.673 62.2459C223.673 62.2459 217.012 73.145 209.141 71.1952L210.073 61.822Z" fill="#121116"/>
<path d="M211.104 72.043C210.397 72.0466 209.693 71.9612 209.008 71.7887C208.869 71.7523 208.746 71.6682 208.662 71.551C208.578 71.4337 208.538 71.2908 208.548 71.1469L209.469 61.7737C209.477 61.6822 209.505 61.5936 209.551 61.5141C209.597 61.4346 209.66 61.3661 209.735 61.3135C209.816 61.2747 209.905 61.2546 209.995 61.2546C210.086 61.2546 210.174 61.2747 210.256 61.3135C210.341 61.3135 218.418 64.0019 223.432 61.7494C223.55 61.699 223.682 61.687 223.808 61.7153C223.934 61.7435 224.048 61.8105 224.134 61.9069C224.21 62.0106 224.251 62.1357 224.251 62.2641C224.251 62.3926 224.21 62.5177 224.134 62.6214C223.94 62.9847 218.321 72.043 211.104 72.043ZM209.808 70.723C215.245 71.6797 220.101 66.1454 222.136 63.457C217.788 64.5227 212.508 63.2269 210.595 62.6698L209.808 70.723Z" fill="#121116"/>
<path d="M210.183 43.669H209.783L205.315 43.3178C204.035 43.2158 202.848 42.6101 202.015 41.6338C201.182 40.6574 200.77 39.3902 200.87 38.1105L201.161 34.4774C201.176 34.3188 201.254 34.1727 201.376 34.0706C201.498 33.9686 201.656 33.919 201.815 33.9325L214.724 34.9497C214.884 34.9671 215.032 35.0451 215.136 35.1677C215.189 35.2267 215.229 35.2958 215.254 35.3707C215.279 35.4457 215.288 35.5249 215.281 35.6037L214.991 39.2367C214.89 40.4509 214.336 41.5827 213.438 42.4064C212.54 43.2301 211.365 43.6853 210.147 43.6811L210.183 43.669ZM202.324 35.1919L202.081 38.171C202.008 39.1293 202.317 40.0777 202.941 40.8086C203.565 41.5394 204.454 41.9932 205.412 42.0705L209.88 42.4216C210.355 42.4655 210.833 42.413 211.287 42.2674C211.74 42.1217 212.16 41.8858 212.52 41.5739C213.243 40.9631 213.7 40.0941 213.792 39.1519L214.022 36.1728L202.324 35.1919Z" fill="#121116"/>
<path d="M226.242 44.989H225.842L221.373 44.6257C220.094 44.5237 218.907 43.9181 218.074 42.9417C217.24 41.9653 216.829 40.6981 216.929 39.4184L217.22 35.7853C217.226 35.7057 217.247 35.6281 217.284 35.557C217.32 35.4858 217.37 35.4225 217.431 35.3708C217.491 35.319 217.562 35.2797 217.638 35.2553C217.714 35.2308 217.794 35.2217 217.873 35.2283L230.783 36.2576C230.861 36.2637 230.937 36.2852 231.007 36.3208C231.076 36.3565 231.138 36.4055 231.189 36.4652C231.24 36.5248 231.278 36.5939 231.302 36.6684C231.326 36.743 231.334 36.8215 231.328 36.8995L231.049 40.5325C230.952 41.7489 230.399 42.8837 229.5 43.7099C228.602 44.5361 227.426 44.9929 226.205 44.989H226.242ZM225.939 43.778C226.898 43.8522 227.847 43.543 228.579 42.9182C229.28 42.2971 229.713 41.4294 229.79 40.4962L230.032 37.5171L218.37 36.512L218.14 39.4789C218.066 40.4372 218.375 41.3856 219 42.1165C219.624 42.8474 220.512 43.3011 221.47 43.3784L225.939 43.778Z" fill="#121116"/>
<path d="M217.594 38.716L214.446 38.4616C214.366 38.4555 214.289 38.4337 214.217 38.3975C214.146 38.3613 214.083 38.3113 214.031 38.2506C213.979 38.1898 213.94 38.1194 213.916 38.0434C213.891 37.9674 213.882 37.8873 213.889 37.8077C213.907 37.6493 213.985 37.5037 214.106 37.4004C214.227 37.297 214.383 37.2435 214.543 37.2506L217.691 37.505C217.852 37.505 218.006 37.5687 218.119 37.6823C218.233 37.7959 218.297 37.9499 218.297 38.1105C218.297 38.271 218.233 38.4251 218.119 38.5386C218.006 38.6522 217.852 38.716 217.691 38.716H217.594Z" fill="#121116"/>
<path d="M215.645 60.0782C211.854 60.0782 208.863 57.1476 207.664 53.7325C207.632 53.6371 207.624 53.535 207.641 53.4356C207.658 53.3362 207.699 53.2426 207.761 53.1633C207.815 53.0795 207.891 53.0123 207.981 52.9695C208.071 52.9267 208.171 52.91 208.27 52.9211C213.438 53.1917 218.605 52.3663 223.432 50.4991C223.527 50.4571 223.632 50.4406 223.736 50.4512C223.84 50.4619 223.94 50.4992 224.025 50.5597C224.112 50.6196 224.182 50.7017 224.226 50.7975C224.271 50.8933 224.289 50.9994 224.279 51.1046C224.279 51.3832 223.65 58.0316 217.801 59.7028C217.104 59.9318 216.378 60.0583 215.645 60.0782ZM209.118 54.1685C210.389 56.8448 213.332 59.7876 217.437 58.6008C221.216 57.523 222.475 53.8657 222.875 52.0734C218.453 53.5982 213.792 54.3081 209.118 54.1685Z" fill="#121116"/>
<path d="M260.113 83.9593C267.162 87.2654 278.606 164.722 266.169 169.941C246.792 178.018 194.344 150.565 194.344 150.565L204.661 130.256C204.661 130.256 240.289 140.865 242.76 133.623C245.23 126.381 232.999 86.5509 237.165 82.2155C241.331 77.88 260.113 83.9593 260.113 83.9593Z" fill="#FFC631"/>
<path d="M206.611 138.455C200.549 137.219 194.64 135.322 188.991 132.799C184.655 130.729 180.913 128.743 176.081 127.701C170.086 126.399 163.907 126.17 157.831 127.023C157.586 127.042 157.349 127.121 157.141 127.253C156.427 127.858 157.48 128.9 158.352 129.178C160.711 129.872 163.16 130.206 165.618 130.172C159.403 130.744 153.294 132.149 147.453 134.349C146.787 134.604 146 135.076 146.109 135.766C146.218 136.457 147.38 136.663 148.204 136.529L162.615 134.107C158.931 134.545 155.346 135.593 152.006 137.207C151.534 137.438 150.989 137.777 150.965 138.31C150.965 139.23 152.249 139.399 153.157 139.218C157.579 138.325 161.915 137.049 166.115 135.403L156.56 139.339C156.516 139.502 156.506 139.672 156.528 139.839C156.551 140.006 156.607 140.167 156.693 140.313C156.778 140.458 156.892 140.585 157.027 140.686C157.163 140.787 157.316 140.86 157.48 140.901C158.148 141.029 158.839 140.975 159.478 140.744L169.687 138.007L163.136 140.429C162.106 140.804 160.859 141.507 161.028 142.596C161.222 143.88 163.002 143.977 164.286 143.808C169.364 143.049 174.51 142.858 179.63 143.238C181.507 143.347 183.384 143.032 185.176 143.577C187.755 144.365 190.359 146.23 192.757 147.489C196.511 149.451 200.253 151.449 203.995 153.447" fill="white"/>
<path d="M204.043 153.907C203.95 153.911 203.859 153.89 203.777 153.847C200.047 151.853 196.301 149.867 192.538 147.889C191.788 147.501 191.013 147.041 190.225 146.569C188.603 145.528 186.869 144.675 185.054 144.025C183.91 143.746 182.73 143.644 181.555 143.723C180.913 143.723 180.283 143.723 179.641 143.723C174.562 143.343 169.456 143.534 164.419 144.292C163.341 144.52 162.218 144.361 161.246 143.844C161.05 143.702 160.885 143.521 160.762 143.313C160.639 143.104 160.561 142.873 160.531 142.633C160.484 142.298 160.524 141.956 160.65 141.641C160.775 141.327 160.981 141.051 161.246 140.84L159.672 141.264C158.931 141.534 158.128 141.584 157.359 141.41C157.096 141.325 156.854 141.188 156.646 141.007C156.437 140.825 156.268 140.604 156.148 140.356C156.063 140.165 156.019 139.959 156.019 139.751C156.019 139.542 156.063 139.336 156.148 139.145C155.215 139.363 154.295 139.569 153.362 139.763C152.952 139.866 152.525 139.882 152.108 139.811C151.691 139.74 151.293 139.584 150.94 139.351C150.788 139.22 150.669 139.056 150.591 138.871C150.513 138.686 150.479 138.485 150.492 138.285C150.492 137.341 151.485 136.88 151.836 136.711L152.539 136.384L148.361 137.086C147.624 137.249 146.853 137.137 146.193 136.771C146.044 136.665 145.918 136.53 145.823 136.374C145.727 136.218 145.663 136.044 145.636 135.863C145.563 135.379 145.636 134.471 147.331 133.853C151.613 132.209 156.047 130.992 160.568 130.22C159.789 130.106 159.017 129.952 158.255 129.76C157.832 129.643 157.443 129.426 157.123 129.127C156.802 128.827 156.559 128.454 156.414 128.04C156.375 127.829 156.392 127.611 156.464 127.409C156.537 127.207 156.661 127.028 156.826 126.89C157.107 126.688 157.438 126.566 157.782 126.538C163.922 125.668 170.167 125.898 176.226 127.217C180.227 128.198 184.088 129.679 187.719 131.625L189.269 132.363C194.863 134.83 200.705 136.689 206.695 137.91C206.838 137.944 206.961 138.034 207.038 138.158C207.115 138.283 207.14 138.433 207.107 138.576C207.091 138.647 207.061 138.715 207.019 138.774C206.977 138.834 206.923 138.884 206.861 138.923C206.799 138.961 206.73 138.987 206.658 138.998C206.585 139.009 206.512 139.006 206.441 138.988C200.345 137.733 194.402 135.829 188.712 133.308L187.162 132.557C183.605 130.657 179.826 129.209 175.911 128.246C169.981 126.948 163.865 126.723 157.855 127.58C157.714 127.579 157.576 127.617 157.455 127.689C157.455 128.028 157.976 128.488 158.485 128.646C160.789 129.318 163.181 129.645 165.581 129.614C165.713 129.634 165.834 129.7 165.921 129.802C166.009 129.903 166.057 130.032 166.057 130.165C166.057 130.299 166.009 130.428 165.921 130.529C165.834 130.63 165.713 130.697 165.581 130.716C159.425 131.294 153.373 132.69 147.586 134.87C147.101 135.052 146.544 135.379 146.593 135.682C146.597 135.718 146.609 135.753 146.627 135.784C146.646 135.816 146.672 135.843 146.702 135.863C147.123 136.053 147.597 136.096 148.046 135.984L159.199 134.095C160.283 133.855 161.379 133.669 162.481 133.538C162.625 133.524 162.769 133.565 162.883 133.652C162.998 133.74 163.075 133.868 163.099 134.01C163.12 134.155 163.083 134.301 162.997 134.419C162.911 134.537 162.782 134.616 162.639 134.64L159.405 135.185C156.894 135.734 154.455 136.575 152.139 137.692C151.546 137.982 151.413 138.2 151.413 138.322C151.409 138.355 151.413 138.39 151.426 138.422C151.439 138.453 151.459 138.481 151.485 138.503C151.93 138.73 152.443 138.786 152.926 138.661C157.324 137.775 161.635 136.506 165.811 134.87C165.947 134.818 166.097 134.82 166.23 134.877C166.363 134.933 166.47 135.039 166.526 135.173C166.579 135.31 166.577 135.462 166.52 135.597C166.464 135.732 166.358 135.841 166.223 135.9L156.947 139.726C156.931 139.778 156.931 139.832 156.947 139.884C157.055 140.105 157.247 140.275 157.48 140.356C158.049 140.46 158.635 140.405 159.175 140.199L169.384 137.45C169.516 137.428 169.652 137.455 169.766 137.526C169.88 137.597 169.965 137.706 170.005 137.834C170.045 137.963 170.037 138.101 169.983 138.224C169.929 138.347 169.832 138.446 169.711 138.503L163.171 140.925C162.602 141.131 161.294 141.7 161.416 142.487C161.427 142.579 161.458 142.668 161.506 142.747C161.554 142.826 161.618 142.894 161.694 142.948C162.42 143.301 163.246 143.391 164.031 143.202C169.152 142.428 174.344 142.233 179.508 142.621C180.114 142.621 180.719 142.621 181.337 142.621C182.627 142.534 183.923 142.652 185.176 142.972C187.076 143.636 188.889 144.526 190.577 145.624C191.352 146.072 192.115 146.52 192.853 146.908C196.607 148.878 200.354 150.864 204.092 152.866C204.157 152.899 204.215 152.945 204.262 153.001C204.309 153.057 204.345 153.122 204.366 153.192C204.388 153.262 204.395 153.336 204.387 153.409C204.38 153.482 204.357 153.553 204.322 153.617C204.27 153.746 204.17 153.851 204.043 153.907Z" fill="#121116"/>
<path d="M193.786 76.1726C191.28 77.6379 177.837 107.865 171.988 122.288L193.786 76.1726Z" fill="white"/>
<path d="M172.024 122.845C171.933 122.845 171.843 122.824 171.762 122.781C171.681 122.739 171.612 122.677 171.561 122.602C171.509 122.527 171.477 122.44 171.467 122.349C171.457 122.258 171.47 122.167 171.503 122.082C176.795 108.967 190.649 77.3594 193.507 75.6882C193.57 75.6472 193.641 75.6194 193.715 75.6064C193.789 75.5933 193.864 75.5954 193.938 75.6124C194.011 75.6294 194.08 75.6609 194.14 75.7052C194.201 75.7495 194.252 75.8056 194.29 75.8701C194.329 75.9346 194.354 76.0063 194.364 76.0806C194.374 76.155 194.368 76.2307 194.348 76.303C194.329 76.3754 194.294 76.443 194.247 76.5017C194.201 76.5605 194.143 76.6092 194.077 76.6449C191.933 77.8559 179.145 106.109 172.533 122.494C172.493 122.597 172.424 122.686 172.333 122.748C172.242 122.811 172.134 122.845 172.024 122.845Z" fill="#121116"/>
<path d="M97.9461 134.289L97.2559 140.441L175.79 174.264L176.032 167.798L97.9461 134.289Z" fill="white"/>
<path d="M175.79 174.87C175.711 174.888 175.628 174.888 175.548 174.87L97.0142 141.046C96.8936 140.995 96.793 140.906 96.7275 140.792C96.662 140.678 96.6351 140.547 96.6509 140.417L97.3412 134.265C97.3505 134.171 97.3831 134.081 97.4359 134.002C97.4888 133.924 97.5602 133.86 97.6439 133.817C97.7278 133.772 97.8214 133.749 97.9164 133.749C98.0114 133.749 98.1049 133.772 98.1889 133.817L176.275 167.301C176.388 167.348 176.484 167.43 176.549 167.534C176.614 167.638 176.645 167.76 176.638 167.882L176.396 174.349C176.39 174.449 176.361 174.546 176.311 174.632C176.26 174.719 176.19 174.792 176.105 174.846C176.005 174.883 175.896 174.891 175.79 174.87ZM97.8982 140.065L175.209 173.356L175.415 168.173L98.4553 135.149L97.8982 140.065Z" fill="#121116"/>
<path d="M97.9463 134.289C97.9463 134.289 120.822 123.317 121.404 123.632C121.985 123.947 202.892 156.329 202.892 156.329L176.032 167.798L97.9463 134.289Z" fill="white"/>
<path d="M176.032 168.403C175.952 168.42 175.869 168.42 175.789 168.403L97.7035 134.846C97.5971 134.8 97.5062 134.724 97.4418 134.627C97.3774 134.53 97.3421 134.417 97.3402 134.301C97.3362 134.185 97.3661 134.071 97.4264 133.972C97.4866 133.873 97.5745 133.794 97.6793 133.744C120.846 122.627 121.355 122.905 121.694 123.099C122.905 123.644 202.323 155.445 203.122 155.796C203.234 155.839 203.331 155.916 203.398 156.015C203.466 156.115 203.5 156.233 203.497 156.354C203.499 156.472 203.466 156.588 203.401 156.688C203.336 156.787 203.243 156.865 203.134 156.911L176.274 168.379C176.196 168.404 176.113 168.412 176.032 168.403ZM99.411 134.253L176.032 167.144L201.305 156.402C188.808 151.388 125.302 125.969 121.306 124.298C119.732 124.661 107.622 130.329 99.411 134.253Z" fill="#121116"/>
<path d="M175.79 174.264L201.887 162.118L202.892 156.329L176.032 167.798L175.79 174.264Z" fill="white"/>
<path d="M175.79 174.87C175.669 174.875 175.55 174.841 175.451 174.773C175.362 174.717 175.291 174.637 175.244 174.543C175.197 174.45 175.176 174.345 175.184 174.24L175.426 167.773C175.433 167.66 175.471 167.551 175.535 167.457C175.599 167.363 175.687 167.288 175.79 167.241L202.662 155.772C202.761 155.729 202.87 155.714 202.977 155.729C203.084 155.744 203.184 155.788 203.268 155.857C203.356 155.922 203.424 156.012 203.463 156.115C203.501 156.219 203.509 156.331 203.486 156.438L202.493 162.215C202.474 162.31 202.433 162.4 202.375 162.478C202.316 162.556 202.24 162.619 202.153 162.663L176.044 174.773C175.967 174.823 175.881 174.857 175.79 174.87ZM176.625 168.209L176.419 173.356L201.342 161.755L202.093 157.371L176.625 168.209Z" fill="#121116"/>
<path d="M97.9464 134.289L96.3358 77.4562L178.551 115.203L176.032 167.798L97.9464 134.289Z" fill="white"/>
<path d="M176.032 168.403C175.952 168.42 175.87 168.42 175.79 168.403L97.7039 134.846C97.5966 134.801 97.5049 134.725 97.4403 134.628C97.3757 134.531 97.341 134.418 97.3406 134.301L95.7179 77.4684C95.716 77.365 95.7406 77.2629 95.7893 77.1717C95.8381 77.0806 95.9094 77.0034 95.9964 76.9476C96.0852 76.8978 96.1852 76.8716 96.2871 76.8716C96.3889 76.8716 96.4889 76.8978 96.5777 76.9476L178.842 114.658C178.952 114.706 179.044 114.786 179.107 114.888C179.17 114.989 179.2 115.108 179.193 115.228L176.674 167.822C176.67 167.919 176.642 168.014 176.594 168.098C176.545 168.182 176.477 168.254 176.395 168.306C176.29 168.381 176.161 168.415 176.032 168.403ZM98.5274 133.877L175.463 166.901L177.885 115.579L96.9652 78.413L98.5274 133.877Z" fill="#121116"/>
<path d="M219.811 164.879C219.727 164.896 219.641 164.896 219.557 164.879L202.929 157.213C202.802 157.155 202.698 157.055 202.636 156.929C202.574 156.803 202.558 156.66 202.59 156.523L207.616 135.5C207.648 135.348 207.738 135.215 207.867 135.129C207.996 135.043 208.154 135.011 208.306 135.04L240.81 140.247L239.744 88.7307C239.741 88.6507 239.754 88.5709 239.782 88.4961C239.81 88.4213 239.854 88.353 239.909 88.2953C239.965 88.2376 240.031 88.1917 240.105 88.1604C240.178 88.1291 240.257 88.113 240.337 88.113C240.495 88.116 240.646 88.1791 240.758 88.2894C240.871 88.3998 240.937 88.5489 240.943 88.7064L242.021 140.949C242.022 141.038 242.003 141.125 241.965 141.205C241.927 141.284 241.872 141.354 241.803 141.41C241.738 141.468 241.661 141.511 241.577 141.536C241.493 141.562 241.405 141.568 241.318 141.555L208.621 136.323L203.838 156.317L220.017 163.668C220.089 163.701 220.154 163.747 220.208 163.805C220.262 163.863 220.304 163.932 220.331 164.006C220.358 164.081 220.37 164.16 220.366 164.239C220.362 164.318 220.342 164.396 220.307 164.467C220.273 164.576 220.208 164.673 220.12 164.746C220.032 164.82 219.925 164.866 219.811 164.879Z" fill="#121116"/>
<path d="M75.713 208.318C72.8914 206.187 69.5126 205.06 67.127 208.318H75.713Z" fill="white"/>
<path d="M75.7123 208.875H67.1262C67.0239 208.874 66.9237 208.845 66.8363 208.792C66.749 208.739 66.6776 208.663 66.6297 208.572C66.5762 208.485 66.5479 208.384 66.5479 208.282C66.5479 208.179 66.5762 208.078 66.6297 207.991C67.0172 207.408 67.5202 206.91 68.1076 206.529C68.695 206.148 69.3543 205.891 70.0447 205.775C71.8007 205.508 73.811 206.223 76.0029 207.882C76.0941 207.953 76.1615 208.05 76.1961 208.161C76.2307 208.271 76.2309 208.389 76.1967 208.5C76.1589 208.601 76.0935 208.69 76.008 208.756C75.9224 208.823 75.8199 208.864 75.7123 208.875ZM68.3614 207.773H73.8715C72.7917 207.083 71.5161 206.764 70.2385 206.865C69.5375 206.978 68.8849 207.293 68.3614 207.773Z" fill="#121116"/>
<path d="M137.583 190.129H137.486C137.329 190.102 137.189 190.015 137.096 189.885C137.003 189.756 136.965 189.596 136.99 189.438C137.087 188.833 139.412 174.616 143.905 167.398C143.994 167.276 144.127 167.192 144.276 167.162C144.425 167.133 144.579 167.161 144.709 167.24C144.838 167.319 144.933 167.444 144.975 167.59C145.016 167.736 145.002 167.892 144.934 168.028C140.611 175.039 138.201 189.487 138.176 189.632C138.153 189.772 138.081 189.899 137.972 189.99C137.863 190.082 137.725 190.131 137.583 190.129Z" fill="white"/>
<path d="M212.423 84.577L213.658 88.7186L198.218 120.52L202.614 131.891L212.253 123.668L216.213 88.6944L218.26 86.5873L216.153 83.0632L212.423 84.577Z" fill="#121116"/>
<path d="M314.123 112.672V258.914H44.1044V112.672L179.12 204.612L314.123 112.672Z" fill="white"/>
<path d="M314.125 259.519H44.0694C43.9088 259.519 43.7548 259.456 43.6412 259.342C43.5277 259.229 43.4639 259.075 43.4639 258.914V112.672C43.4634 112.562 43.4937 112.454 43.5515 112.359C43.6093 112.265 43.6922 112.189 43.7909 112.14C43.8862 112.083 43.9949 112.053 44.1057 112.053C44.2165 112.053 44.3253 112.083 44.4206 112.14L179.085 203.861L313.749 112.14C313.842 112.083 313.949 112.053 314.058 112.053C314.167 112.053 314.274 112.083 314.367 112.14C314.466 112.188 314.55 112.264 314.608 112.358C314.666 112.453 314.696 112.562 314.694 112.672V258.914C314.694 259.068 314.635 259.217 314.53 259.33C314.424 259.442 314.279 259.51 314.125 259.519ZM44.7112 258.308H313.555V113.811L179.497 205.121C179.395 205.186 179.278 205.22 179.158 205.22C179.037 205.22 178.92 205.186 178.818 205.121L44.7112 113.811V258.308Z" fill="#121116"/>
<path d="M179.121 205.218C179.001 205.217 178.884 205.184 178.782 205.121L43.7664 113.169C43.6356 113.078 43.5458 112.94 43.5163 112.783C43.4869 112.627 43.5201 112.465 43.609 112.333C43.7 112.2 43.8397 112.107 43.9982 112.075C44.1567 112.044 44.3213 112.075 44.4567 112.164L179.121 203.886L313.785 112.164C313.919 112.076 314.082 112.045 314.238 112.077C314.395 112.108 314.532 112.201 314.621 112.333C314.667 112.398 314.699 112.471 314.715 112.549C314.732 112.626 314.733 112.706 314.719 112.784C314.704 112.862 314.674 112.936 314.63 113.002C314.586 113.068 314.53 113.125 314.464 113.169L179.46 205.121C179.357 205.182 179.241 205.215 179.121 205.218Z" fill="#121116"/>
<path d="M44.1044 258.914L179.108 174.761L314.123 258.914H44.1044Z" fill="white"/>
<path d="M314.125 259.52H44.0694C43.9384 259.52 43.8109 259.477 43.7061 259.398C43.6013 259.32 43.5248 259.209 43.4881 259.084C43.4508 258.957 43.4567 258.822 43.505 258.699C43.5532 258.576 43.641 258.473 43.7545 258.405L178.843 174.252C178.939 174.193 179.05 174.162 179.164 174.162C179.277 174.162 179.388 174.193 179.485 174.252L314.476 258.405C314.589 258.473 314.677 258.576 314.725 258.699C314.774 258.822 314.78 258.957 314.742 259.084C314.704 259.216 314.622 259.331 314.51 259.41C314.398 259.489 314.262 259.528 314.125 259.52ZM46.225 258.308H312.054L179.17 175.475L46.225 258.308Z" fill="#121116"/>
<path d="M323.316 186.268L247.839 205.562L258.535 247.402L334.012 228.107L323.316 186.268Z" fill="#FFC631"/>
<path d="M258.539 248.015C258.429 248.011 258.321 247.982 258.224 247.93C258.09 247.842 257.991 247.709 257.946 247.555L247.252 205.714C247.215 205.559 247.24 205.395 247.321 205.257C247.403 205.119 247.534 205.018 247.688 204.976L323.171 185.684C323.319 185.63 323.482 185.63 323.631 185.684C323.701 185.724 323.762 185.778 323.81 185.843C323.857 185.907 323.891 185.981 323.909 186.06L334.603 227.9C334.623 227.977 334.627 228.057 334.616 228.136C334.605 228.215 334.578 228.291 334.538 228.36C334.497 228.429 334.444 228.488 334.38 228.536C334.316 228.584 334.244 228.619 334.167 228.639L258.684 247.93L258.539 248.015ZM248.585 206.053L258.975 246.719L333.283 227.718L322.953 187.004L248.585 206.053Z" fill="#121116"/>
<path d="M258.539 247.409L290.28 214.288L334.021 228.106L258.539 247.409Z" fill="#FFC631"/>
<path d="M258.539 248.015C258.433 248.014 258.329 247.986 258.238 247.933C258.147 247.88 258.071 247.804 258.018 247.712C257.947 247.6 257.916 247.466 257.932 247.334C257.947 247.202 258.007 247.079 258.103 246.985L289.843 213.876C289.921 213.794 290.019 213.735 290.128 213.705C290.237 213.675 290.352 213.676 290.461 213.707L334.203 227.537C334.328 227.576 334.437 227.655 334.514 227.762C334.59 227.869 334.63 227.999 334.626 228.13C334.62 228.262 334.573 228.388 334.49 228.49C334.407 228.593 334.294 228.666 334.166 228.699L258.684 247.991L258.539 248.015ZM290.461 214.978L260.44 246.295L331.817 228.045L290.461 214.978Z" fill="#121116"/>
<path d="M247.845 205.569L292.119 221.482L323.327 186.266L247.845 205.569Z" fill="#FFC631"/>
<path d="M292.12 222.087C292.052 222.1 291.982 222.1 291.914 222.087L247.639 206.175C247.518 206.131 247.414 206.05 247.343 205.943C247.271 205.836 247.235 205.71 247.24 205.581C247.245 205.451 247.291 205.326 247.372 205.224C247.452 205.122 247.563 205.048 247.688 205.012L323.17 185.721C323.295 185.69 323.426 185.699 323.546 185.747C323.665 185.795 323.767 185.879 323.836 185.987C323.906 186.098 323.938 186.229 323.927 186.36C323.917 186.492 323.863 186.616 323.776 186.714L292.568 221.918C292.509 221.976 292.439 222.022 292.362 222.051C292.285 222.08 292.202 222.092 292.12 222.087ZM249.904 205.666L291.938 220.767L321.559 187.343L249.904 205.666Z" fill="#121116"/>
<path d="M363.309 146.987L320.235 157.639L326.14 181.515L369.214 170.863L363.309 146.987Z" fill="#FFC631"/>
<path d="M326.138 182.112C326.002 182.111 325.87 182.065 325.763 181.982C325.656 181.899 325.579 181.783 325.544 181.652L319.647 157.782C319.609 157.627 319.634 157.463 319.716 157.325C319.797 157.187 319.928 157.086 320.083 157.044L363.158 146.399C363.235 146.377 363.315 146.372 363.393 146.382C363.472 146.392 363.548 146.419 363.616 146.46C363.684 146.501 363.743 146.555 363.789 146.62C363.835 146.684 363.868 146.757 363.885 146.835L369.795 170.704C369.813 170.782 369.817 170.862 369.804 170.941C369.792 171.02 369.764 171.096 369.722 171.164C369.682 171.234 369.628 171.295 369.563 171.343C369.499 171.391 369.425 171.425 369.347 171.443L326.283 182.087L326.138 182.112ZM320.967 158.073L326.586 180.767L368.475 170.413L362.916 147.719L320.967 158.073Z" fill="#121116"/>
<path d="M326.137 181.506L344.362 162.784L369.2 170.849L326.137 181.506Z" fill="#FFC631"/>
<path d="M326.137 182.112C326.031 182.114 325.926 182.086 325.834 182.033C325.743 181.98 325.667 181.902 325.616 181.809C325.549 181.695 325.521 181.563 325.536 181.431C325.552 181.3 325.61 181.178 325.701 181.082L343.927 162.372C344.004 162.29 344.103 162.231 344.213 162.204C344.322 162.176 344.437 162.18 344.544 162.215L369.394 170.28C369.555 170.28 369.709 170.344 369.822 170.457C369.936 170.571 370 170.725 370 170.886C370 171.046 369.936 171.2 369.822 171.314C369.709 171.427 369.555 171.491 369.394 171.491L326.331 182.136L326.137 182.112ZM344.532 163.486L328.05 180.441L366.996 170.813L344.532 163.486Z" fill="#121116"/>
<path d="M320.227 157.637L345.368 166.889L363.303 146.98L320.227 157.637Z" fill="#FFC631"/>
<path d="M345.38 167.495C345.308 167.506 345.234 167.506 345.162 167.495L320.022 158.243C319.901 158.196 319.798 158.113 319.728 158.004C319.659 157.895 319.626 157.766 319.634 157.637C319.638 157.508 319.684 157.384 319.765 157.284C319.846 157.183 319.957 157.112 320.082 157.08L363.158 146.435C363.283 146.403 363.415 146.411 363.535 146.459C363.654 146.507 363.756 146.592 363.824 146.702C363.891 146.815 363.92 146.946 363.906 147.077C363.893 147.208 363.839 147.331 363.751 147.428L345.828 167.301C345.71 167.421 345.549 167.491 345.38 167.495ZM322.298 157.807L345.199 166.284L361.535 148.119L322.298 157.807Z" fill="#121116"/>
<path d="M299.132 140.965L263.829 156.772L272.588 176.335L307.891 160.529L299.132 140.965Z" fill="#FFC631"/>
<path d="M272.598 176.989C272.481 176.992 272.365 176.96 272.266 176.898C272.167 176.835 272.089 176.745 272.041 176.638L263.285 157.068C263.251 156.996 263.232 156.918 263.229 156.838C263.226 156.758 263.239 156.679 263.267 156.604C263.295 156.529 263.338 156.461 263.393 156.404C263.449 156.346 263.515 156.3 263.588 156.269L298.877 140.465C299.025 140.399 299.193 140.394 299.345 140.45C299.496 140.507 299.62 140.621 299.688 140.768L308.42 160.277C308.48 160.425 308.48 160.59 308.42 160.737C308.359 160.884 308.247 161.005 308.105 161.076L272.804 176.82C272.748 176.89 272.678 176.948 272.598 176.989ZM264.63 157.129L272.901 175.584L307.088 160.277L298.829 141.821L264.63 157.129Z" fill="#121116"/>
<path d="M272.598 176.323L285.326 157.456L307.887 160.519L272.598 176.323Z" fill="#FFC631"/>
<path d="M272.598 176.989C272.486 176.995 272.374 176.969 272.276 176.914C272.178 176.859 272.098 176.777 272.045 176.678C271.991 176.579 271.967 176.467 271.975 176.355C271.983 176.243 272.023 176.135 272.089 176.045L284.829 157.177C284.892 157.083 284.979 157.008 285.082 156.961C285.184 156.914 285.298 156.896 285.41 156.911L307.972 159.987C308.102 160.003 308.223 160.062 308.317 160.154C308.411 160.246 308.472 160.365 308.492 160.495C308.51 160.626 308.485 160.758 308.422 160.874C308.359 160.989 308.26 161.081 308.141 161.137L272.84 176.88C272.768 176.934 272.686 176.971 272.598 176.989ZM285.616 158.158L274.281 174.967L305.707 160.895L285.616 158.158Z" fill="#121116"/>
<path d="M263.831 156.765L286.84 160.81L299.132 140.962L263.831 156.765Z" fill="#FFC631"/>
<path d="M286.827 161.416H286.73L263.721 157.371C263.595 157.348 263.479 157.285 263.392 157.191C263.305 157.097 263.25 156.978 263.236 156.85C263.22 156.721 263.245 156.591 263.308 156.477C263.371 156.364 263.469 156.274 263.588 156.22L298.876 140.417C298.997 140.363 299.131 140.35 299.26 140.378C299.388 140.407 299.504 140.475 299.591 140.574C299.669 140.677 299.711 140.802 299.711 140.931C299.711 141.06 299.669 141.186 299.591 141.289L287.299 161.149C287.246 161.227 287.176 161.291 287.094 161.337C287.012 161.383 286.921 161.41 286.827 161.416ZM265.876 156.572L286.536 160.205L297.581 142.379L265.876 156.572Z" fill="#121116"/>
<path d="M144.243 0.605486H73.2294C71.0036 0.605486 68.869 1.48967 67.2951 3.06354C65.7213 4.6374 64.8371 6.77201 64.8371 8.99779V45.3281C64.8371 46.4302 65.0542 47.5215 65.4759 48.5397C65.8977 49.5579 66.5158 50.4831 67.2951 51.2623C68.0744 52.0416 68.9996 52.6598 70.0178 53.0816C71.036 53.5033 72.1273 53.7204 73.2294 53.7204H136.456L143.989 66.6298L144.086 53.7204H144.291C145.394 53.7204 146.485 53.5033 147.503 53.0816C148.521 52.6598 149.446 52.0416 150.226 51.2623C151.005 50.4831 151.623 49.5579 152.045 48.5397C152.467 47.5215 152.684 46.4302 152.684 45.3281V8.99779C152.684 7.89161 152.465 6.79634 152.04 5.77497C151.616 4.7536 150.993 3.82628 150.209 3.04635C149.424 2.26641 148.493 1.64925 147.47 1.23036C146.446 0.811464 145.349 0.599102 144.243 0.605486Z" fill="white"/>
<path d="M143.941 67.2353C143.835 67.2347 143.732 67.2064 143.64 67.1533C143.549 67.1001 143.473 67.0241 143.42 66.9325L136.07 54.3259H73.2302C70.8448 54.3227 68.558 53.3737 66.8713 51.687C65.1846 50.0003 64.2356 47.7135 64.2324 45.3281V8.99781C64.2356 6.61242 65.1846 4.32566 66.8713 2.63894C68.558 0.952214 70.8448 0.00320401 73.2302 0H144.244C146.63 0 148.919 0.947981 150.606 2.6354C152.294 4.32281 153.242 6.61144 153.242 8.99781V45.3281C153.241 47.6447 152.347 49.8718 150.745 51.5456C149.143 53.2194 146.958 54.2109 144.643 54.3138L144.547 66.6419C144.547 66.7735 144.503 66.9014 144.422 67.0048C144.341 67.1082 144.227 67.1809 144.099 67.2111C144.049 67.232 143.995 67.2403 143.941 67.2353ZM73.2302 1.21101C71.166 1.21421 69.1873 2.03564 67.7276 3.49525C66.268 4.95486 65.4466 6.9336 65.4434 8.99781V45.3281C65.4466 47.3923 66.268 49.3711 67.7276 50.8307C69.1873 52.2903 71.166 53.1117 73.2302 53.1149H136.457C136.565 53.1134 136.671 53.1407 136.765 53.1939C136.858 53.2471 136.936 53.3244 136.99 53.4177L143.408 64.4258L143.481 53.7204C143.481 53.5598 143.545 53.4058 143.658 53.2923C143.772 53.1787 143.926 53.1149 144.086 53.1149H144.292C146.356 53.1117 148.335 52.2903 149.795 50.8307C151.254 49.3711 152.076 47.3923 152.079 45.3281V8.99781C152.079 6.93262 151.259 4.95202 149.798 3.49171C148.338 2.0314 146.357 1.21101 144.292 1.21101H73.2302Z" fill="#121116"/>
<path d="M97.0381 29.0642L128.863 9.59119L101.894 20.8173L97.0381 29.0642Z" fill="#121116"/>
<path d="M97.039 29.6698C96.8793 29.6676 96.7269 29.6023 96.6151 29.4882C96.5208 29.3924 96.4602 29.2684 96.4427 29.1351C96.4253 29.0018 96.4518 28.8664 96.5182 28.7495L101.362 20.5146C101.428 20.3998 101.53 20.3103 101.653 20.2603L128.622 9.02211C128.763 8.96334 128.921 8.96014 129.065 9.01314C129.208 9.06615 129.326 9.17144 129.395 9.30787C129.464 9.44431 129.479 9.6018 129.437 9.74871C129.394 9.89563 129.298 10.0211 129.167 10.0999L97.3538 29.573C97.2599 29.6337 97.1509 29.6673 97.039 29.6698ZM102.319 21.3018L98.7949 27.272L121.925 13.1517L102.319 21.3018Z" fill="#121116"/>
<path d="M101.895 20.8173L112.309 26.1336L128.864 9.59119L101.895 20.8173Z" fill="#FFC631"/>
<path d="M112.309 26.6906C112.225 26.7086 112.138 26.7086 112.055 26.6906L101.652 21.3743C101.54 21.3226 101.448 21.235 101.391 21.1254C101.334 21.0158 101.315 20.8903 101.337 20.7688C101.339 20.6636 101.373 20.5614 101.433 20.4752C101.494 20.389 101.578 20.3226 101.676 20.2844L128.645 9.0462C128.764 9.00318 128.893 9.00139 129.012 9.0411C129.131 9.08082 129.234 9.15971 129.302 9.26495C129.371 9.37019 129.402 9.4956 129.391 9.62078C129.379 9.74596 129.326 9.86356 129.239 9.95446L112.696 26.5211C112.594 26.6253 112.455 26.686 112.309 26.6906ZM103.214 20.8657L112.236 25.4554L126.526 11.1776L103.214 20.8657Z" fill="#121116"/>
<path d="M128.864 9.59119L94.6042 17.7655L86.8174 13.3211L128.864 9.59119Z" fill="#FFC631"/>
<path d="M94.6037 18.3468C94.51 18.347 94.418 18.3219 94.3373 18.2742L86.5384 13.8177C86.4374 13.7591 86.3574 13.6704 86.3096 13.5639C86.2618 13.4574 86.2486 13.3386 86.272 13.2243C86.2974 13.1081 86.3593 13.0032 86.4486 12.9247C86.538 12.8463 86.65 12.7985 86.7685 12.7883L128.815 9.05839C128.952 9.05253 129.087 9.09555 129.196 9.1798C129.304 9.26405 129.38 9.38408 129.408 9.51857C129.431 9.656 129.401 9.79689 129.325 9.91345C129.248 10.03 129.131 10.1138 128.996 10.1483L94.7369 18.3468H94.6037ZM88.6213 13.7329L94.6764 17.2085L121.319 10.8265L88.6213 13.7329Z" fill="#121116"/>
<path d="M94.6044 17.7655L97.0385 29.0642L101.895 20.8173L128.864 9.59119L94.6044 17.7655Z" fill="#FFC631"/>
<path d="M97.0383 29.6091H96.9535C96.8431 29.5912 96.7409 29.5398 96.6608 29.4618C96.5806 29.3838 96.5264 29.283 96.5054 29.1732L94.0834 17.8866C94.0673 17.8166 94.0652 17.7441 94.0772 17.6733C94.0892 17.6025 94.1151 17.5347 94.1533 17.474C94.1916 17.4132 94.2415 17.3606 94.3002 17.3192C94.3588 17.2778 94.4251 17.2483 94.4952 17.2326L128.743 9.04618C128.879 9.01693 129.021 9.03751 129.143 9.10418C129.265 9.17086 129.359 9.27919 129.409 9.40948C129.45 9.54312 129.441 9.6874 129.383 9.81473C129.325 9.94207 129.222 10.0435 129.094 10.0998L102.282 21.2532L97.5227 29.3427C97.4713 29.4246 97.3998 29.4921 97.315 29.5387C97.2303 29.5853 97.135 29.6095 97.0383 29.6091ZM95.2823 18.1772L97.3047 27.5625L101.446 20.5387C101.507 20.4346 101.601 20.3537 101.713 20.3086L122.3 11.7225L95.2823 18.1772Z" fill="#121116"/>
<path d="M98.9729 35.5967C98.9164 35.1196 98.6873 34.7493 98.2856 34.4857C97.8839 34.2221 97.3912 34.0903 96.8075 34.0903C96.3807 34.0903 96.0072 34.1593 95.6871 34.2974C95.3702 34.4355 95.1222 34.6254 94.9434 34.867C94.7676 35.1087 94.6798 35.3833 94.6798 35.6908C94.6798 35.9481 94.741 36.1694 94.8633 36.3545C94.9889 36.5366 95.1489 36.6888 95.3435 36.8112C95.5381 36.9304 95.742 37.0293 95.9554 37.1077C96.1688 37.183 96.365 37.2442 96.5439 37.2913L97.523 37.5549C97.7741 37.6208 98.0534 37.7118 98.3609 37.8279C98.6716 37.9441 98.9682 38.1025 99.2506 38.3034C99.5362 38.5011 99.7715 38.7553 99.9567 39.066C100.142 39.3767 100.234 39.758 100.234 40.2099C100.234 40.7308 100.098 41.2015 99.8249 41.6221C99.555 42.0426 99.1596 42.3768 98.6386 42.6247C98.1208 42.8727 97.4916 42.9966 96.751 42.9966C96.0606 42.9966 95.4627 42.8852 94.9575 42.6624C94.4554 42.4396 94.06 42.1289 93.7712 41.7303C93.4857 41.3318 93.324 40.8689 93.2864 40.3417H94.4915C94.5228 40.7057 94.6452 41.007 94.8586 41.2455C95.0752 41.4808 95.3482 41.6566 95.6777 41.7727C96.0104 41.8857 96.3681 41.9422 96.751 41.9422C97.1966 41.9422 97.5967 41.87 97.9514 41.7256C98.306 41.5781 98.5869 41.3741 98.794 41.1137C99.0011 40.8501 99.1047 40.5425 99.1047 40.191C99.1047 39.8709 99.0152 39.6105 98.8363 39.4096C98.6575 39.2088 98.4221 39.0456 98.1302 38.92C97.8384 38.7945 97.523 38.6847 97.1841 38.5905L95.9978 38.2516C95.2446 38.0351 94.6484 37.7259 94.209 37.3243C93.7697 36.9226 93.55 36.3969 93.55 35.7473C93.55 35.2075 93.6959 34.7368 93.9878 34.3351C94.2828 33.9303 94.6782 33.6164 95.174 33.3936C95.673 33.1677 96.23 33.0547 96.8451 33.0547C97.4665 33.0547 98.0188 33.1661 98.5021 33.3889C98.9854 33.6086 99.3683 33.9099 99.6507 34.2927C99.9363 34.6756 100.087 35.1102 100.103 35.5967H98.9729ZM105.035 42.9778C104.338 42.9778 103.737 42.824 103.232 42.5165C102.73 42.2058 102.342 41.7727 102.069 41.2172C101.799 40.6586 101.664 40.009 101.664 39.2684C101.664 38.5278 101.799 37.875 102.069 37.3101C102.342 36.7421 102.722 36.2996 103.208 35.9827C103.698 35.6626 104.269 35.5025 104.922 35.5025C105.298 35.5025 105.67 35.5653 106.037 35.6908C106.405 35.8163 106.739 36.0203 107.04 36.3028C107.341 36.5821 107.581 36.9524 107.76 37.4137C107.939 37.875 108.029 38.443 108.029 39.1178V39.5885H102.455V38.6282H106.899C106.899 38.2202 106.817 37.8562 106.654 37.5361C106.494 37.216 106.265 36.9634 105.967 36.7782C105.672 36.593 105.323 36.5005 104.922 36.5005C104.479 36.5005 104.096 36.6103 103.773 36.83C103.453 37.0465 103.207 37.329 103.034 37.6773C102.862 38.0257 102.775 38.3991 102.775 38.7977V39.4379C102.775 39.9839 102.869 40.4468 103.058 40.8265C103.249 41.2031 103.514 41.4903 103.853 41.688C104.192 41.8825 104.586 41.9798 105.035 41.9798C105.327 41.9798 105.59 41.939 105.826 41.8574C106.064 41.7727 106.27 41.6472 106.442 41.4808C106.615 41.3114 106.748 41.1011 106.842 40.8501L107.916 41.1513C107.803 41.5154 107.613 41.8355 107.346 42.1116C107.079 42.3847 106.75 42.5981 106.358 42.7518C105.965 42.9025 105.524 42.9778 105.035 42.9778ZM110.829 38.4776V42.8271H109.719V35.5967H110.792V36.7264H110.886C111.055 36.3592 111.313 36.0643 111.658 35.8414C112.003 35.6155 112.449 35.5025 112.995 35.5025C113.484 35.5025 113.913 35.6029 114.28 35.8038C114.647 36.0015 114.933 36.3028 115.137 36.7076C115.341 37.1093 115.443 37.6177 115.443 38.2328V42.8271H114.332V38.3081C114.332 37.7401 114.184 37.2976 113.889 36.9806C113.594 36.6605 113.189 36.5005 112.675 36.5005C112.32 36.5005 112.003 36.5774 111.724 36.7311C111.448 36.8849 111.23 37.1093 111.07 37.4043C110.91 37.6993 110.829 38.057 110.829 38.4776ZM120.617 35.5967V36.5381H116.87V35.5967H120.617ZM117.962 33.8644H119.073V40.7559C119.073 41.0697 119.119 41.3051 119.21 41.462C119.304 41.6158 119.423 41.7194 119.568 41.7727C119.715 41.8229 119.87 41.848 120.034 41.848C120.156 41.848 120.256 41.8417 120.335 41.8292C120.413 41.8135 120.476 41.8009 120.523 41.7915L120.749 42.7895C120.674 42.8177 120.569 42.846 120.434 42.8742C120.299 42.9056 120.128 42.9213 119.921 42.9213C119.607 42.9213 119.299 42.8538 118.998 42.7189C118.7 42.5839 118.452 42.3784 118.254 42.1022C118.06 41.8261 117.962 41.4777 117.962 41.0572V33.8644Z" fill="#121116"/>
<path d="M139.363 244.624C139.202 244.624 139.048 244.56 138.935 244.447C138.821 244.333 138.758 244.179 138.758 244.019C138.758 243.858 138.821 243.704 138.935 243.59C139.048 243.477 139.202 243.413 139.363 243.413C140.974 243.413 142.584 243.413 144.207 243.292C144.368 243.292 144.522 243.356 144.635 243.469C144.749 243.583 144.813 243.737 144.813 243.898C144.813 244.058 144.749 244.212 144.635 244.326C144.522 244.439 144.368 244.503 144.207 244.503C142.584 244.564 140.962 244.6 139.363 244.624ZM134.519 244.624C132.908 244.624 131.286 244.624 129.675 244.503C129.517 244.497 129.367 244.428 129.258 244.313C129.149 244.197 129.09 244.044 129.094 243.885C129.103 243.725 129.173 243.574 129.291 243.463C129.408 243.353 129.563 243.292 129.723 243.292C131.334 243.353 132.933 243.389 134.567 243.413C134.728 243.413 134.882 243.477 134.996 243.59C135.109 243.704 135.173 243.858 135.173 244.019C135.173 244.179 135.109 244.333 134.996 244.447C134.882 244.56 134.728 244.624 134.567 244.624H134.519ZM149.051 244.285C148.898 244.285 148.751 244.226 148.64 244.12C148.529 244.014 148.464 243.869 148.458 243.716C148.453 243.636 148.464 243.557 148.49 243.481C148.516 243.406 148.556 243.336 148.609 243.277C148.662 243.217 148.726 243.169 148.798 243.134C148.869 243.099 148.947 243.079 149.027 243.074C150.625 242.989 152.236 242.88 153.871 242.747C153.95 242.74 154.029 242.75 154.105 242.774C154.18 242.799 154.25 242.838 154.309 242.89C154.369 242.942 154.418 243.006 154.453 243.077C154.488 243.148 154.508 243.225 154.513 243.304C154.519 243.384 154.51 243.464 154.486 243.54C154.461 243.616 154.422 243.686 154.37 243.747C154.319 243.808 154.255 243.858 154.184 243.894C154.113 243.93 154.035 243.952 153.956 243.958C152.345 244.079 150.734 244.188 149.112 244.285H149.051ZM124.831 244.285C123.208 244.188 121.598 244.079 119.987 243.946C119.907 243.94 119.83 243.918 119.759 243.881C119.688 243.845 119.625 243.795 119.573 243.734C119.521 243.674 119.482 243.603 119.457 243.527C119.433 243.452 119.423 243.372 119.43 243.292C119.436 243.212 119.458 243.135 119.494 243.064C119.531 242.993 119.581 242.93 119.641 242.878C119.702 242.826 119.772 242.787 119.848 242.763C119.924 242.738 120.004 242.729 120.084 242.735C121.694 242.868 123.293 242.977 124.928 243.074C125.088 243.074 125.242 243.138 125.356 243.251C125.47 243.365 125.533 243.519 125.533 243.68C125.533 243.84 125.47 243.994 125.356 244.108C125.242 244.221 125.088 244.285 124.928 244.285H124.831ZM158.739 243.522C158.59 243.518 158.447 243.461 158.337 243.361C158.226 243.261 158.154 243.125 158.134 242.977C158.125 242.898 158.133 242.817 158.156 242.74C158.179 242.664 158.217 242.592 158.267 242.53C158.318 242.469 158.38 242.417 158.451 242.38C158.522 242.342 158.599 242.319 158.679 242.311C160.293 242.142 161.908 241.96 163.523 241.766C163.602 241.756 163.683 241.761 163.76 241.782C163.838 241.803 163.91 241.839 163.974 241.888C164.037 241.937 164.091 241.998 164.131 242.067C164.171 242.137 164.197 242.213 164.207 242.293C164.217 242.372 164.212 242.453 164.191 242.531C164.17 242.608 164.134 242.681 164.085 242.744C164.036 242.808 163.975 242.861 163.906 242.901C163.836 242.941 163.76 242.967 163.68 242.977C162.065 243.187 160.451 243.369 158.836 243.522H158.739ZM115.228 243.522H115.167C113.556 243.34 111.946 243.147 110.323 242.941C110.162 242.92 110.017 242.836 109.918 242.708C109.819 242.579 109.775 242.417 109.796 242.257C109.817 242.096 109.901 241.95 110.029 241.852C110.158 241.753 110.32 241.709 110.48 241.73C112.067 241.936 113.665 242.129 115.325 242.299C115.485 242.309 115.635 242.382 115.742 242.502C115.849 242.622 115.903 242.78 115.894 242.941C115.884 243.101 115.811 243.252 115.691 243.358C115.57 243.465 115.412 243.52 115.252 243.51L115.228 243.522ZM168.355 242.311C168.212 242.31 168.074 242.258 167.965 242.165C167.856 242.072 167.784 241.944 167.761 241.802C167.748 241.724 167.75 241.643 167.768 241.565C167.787 241.487 167.821 241.413 167.868 241.349C167.916 241.284 167.976 241.23 168.045 241.189C168.114 241.149 168.19 241.122 168.27 241.112C169.856 240.87 171.455 240.616 173.041 240.349C173.119 240.335 173.199 240.337 173.277 240.355C173.354 240.373 173.427 240.406 173.491 240.452C173.556 240.498 173.61 240.557 173.651 240.624C173.693 240.692 173.72 240.767 173.732 240.846C173.747 240.923 173.747 241.003 173.731 241.08C173.715 241.157 173.683 241.23 173.638 241.295C173.592 241.36 173.534 241.414 173.467 241.456C173.4 241.497 173.325 241.524 173.247 241.536C171.649 241.815 170.05 242.069 168.403 242.311H168.355ZM105.636 242.214H105.54C103.941 241.96 102.342 241.681 100.756 241.391C100.677 241.376 100.601 241.347 100.533 241.303C100.465 241.259 100.406 241.203 100.36 241.136C100.314 241.07 100.281 240.995 100.264 240.916C100.247 240.837 100.245 240.756 100.26 240.676C100.274 240.597 100.304 240.521 100.347 240.453C100.391 240.385 100.448 240.326 100.514 240.28C100.58 240.234 100.655 240.201 100.734 240.184C100.813 240.167 100.895 240.165 100.974 240.18C102.56 240.482 104.147 240.749 105.733 241.003C105.813 241.01 105.89 241.032 105.961 241.068C106.032 241.104 106.096 241.154 106.147 241.215C106.199 241.276 106.238 241.346 106.263 241.422C106.287 241.498 106.297 241.578 106.29 241.657C106.284 241.737 106.262 241.814 106.226 241.885C106.189 241.956 106.14 242.019 106.079 242.071C106.018 242.123 105.948 242.162 105.872 242.187C105.796 242.211 105.716 242.221 105.636 242.214ZM177.91 240.676C177.749 240.692 177.589 240.644 177.464 240.542C177.339 240.44 177.26 240.292 177.243 240.131C177.227 239.971 177.276 239.81 177.378 239.685C177.48 239.56 177.628 239.481 177.788 239.465C179.375 239.15 180.961 238.823 182.523 238.484C182.684 238.449 182.852 238.479 182.991 238.567C183.129 238.656 183.227 238.796 183.262 238.957C183.298 239.117 183.268 239.285 183.179 239.424C183.09 239.562 182.951 239.66 182.79 239.695L178.031 240.676H177.91ZM96.13 240.434H95.9968C94.4104 240.095 92.8361 239.732 91.2617 239.344C91.185 239.326 91.1127 239.292 91.0491 239.246C90.9855 239.199 90.9318 239.14 90.8912 239.072C90.8506 239.005 90.8239 238.93 90.8127 238.852C90.8014 238.773 90.8059 238.694 90.8258 238.618C90.8632 238.462 90.9606 238.328 91.0967 238.244C91.2328 238.16 91.3966 238.133 91.5524 238.169C93.1146 238.557 94.6768 238.908 96.2511 239.247C96.3292 239.264 96.4031 239.297 96.4686 239.343C96.5341 239.389 96.5898 239.447 96.6326 239.515C96.6754 239.582 96.7044 239.658 96.7179 239.736C96.7314 239.815 96.7291 239.896 96.7113 239.974C96.6799 240.111 96.6005 240.233 96.4873 240.318C96.3741 240.402 96.2345 240.443 96.0937 240.434H96.13ZM187.319 238.605C187.184 238.606 187.053 238.561 186.948 238.477C186.842 238.394 186.768 238.277 186.738 238.145C186.718 238.068 186.713 237.988 186.724 237.909C186.735 237.83 186.762 237.754 186.802 237.685C186.843 237.617 186.897 237.557 186.96 237.509C187.024 237.461 187.097 237.426 187.174 237.407C188.748 237.019 190.31 236.615 191.86 236.195C192.014 236.155 192.179 236.176 192.317 236.256C192.455 236.335 192.557 236.466 192.599 236.619C192.637 236.775 192.615 236.939 192.536 237.079C192.457 237.218 192.328 237.322 192.175 237.37C190.613 237.782 189.039 238.182 187.464 238.581L187.319 238.605ZM86.672 238.145H86.5025C84.9403 237.709 83.3902 237.261 81.8401 236.789C81.6795 236.741 81.5446 236.631 81.4651 236.483C81.3856 236.335 81.368 236.162 81.4162 236.002C81.4644 235.841 81.5744 235.706 81.722 235.627C81.8696 235.547 82.0428 235.53 82.2034 235.578C83.7292 236.05 85.2793 236.498 86.8294 236.922C86.984 236.967 87.1149 237.071 87.1941 237.211C87.2732 237.352 87.2945 237.517 87.2533 237.673C87.2245 237.802 87.1545 237.917 87.054 238.003C86.9534 238.088 86.8278 238.138 86.6962 238.145H86.672ZM196.68 236.074C196.52 236.097 196.357 236.055 196.227 235.957C196.098 235.859 196.012 235.714 195.99 235.554C195.967 235.393 196.01 235.23 196.107 235.101C196.205 234.971 196.35 234.886 196.511 234.863C198.061 234.415 199.599 233.931 201.125 233.447C201.204 233.422 201.288 233.413 201.371 233.421C201.454 233.428 201.534 233.452 201.608 233.491C201.681 233.53 201.747 233.583 201.8 233.647C201.853 233.711 201.893 233.785 201.918 233.864C201.942 233.944 201.951 234.027 201.944 234.11C201.936 234.193 201.912 234.274 201.873 234.347C201.834 234.421 201.781 234.486 201.717 234.54C201.653 234.593 201.58 234.633 201.5 234.658C199.962 235.154 198.412 235.626 196.85 236.087C196.801 236.092 196.752 236.088 196.704 236.074H196.68ZM77.4199 235.299C77.3558 235.311 77.2902 235.311 77.2261 235.299C75.6881 234.779 74.1623 234.222 72.6606 233.652C72.5281 233.585 72.4252 233.471 72.3715 233.332C72.3177 233.193 72.317 233.039 72.3695 232.9C72.4219 232.761 72.5238 232.646 72.6556 232.577C72.7875 232.508 72.9402 232.49 73.0845 232.526C74.5861 233.083 76.0878 233.628 77.6137 234.149C77.7648 234.204 77.8886 234.315 77.9587 234.46C78.0288 234.605 78.0397 234.771 77.9891 234.924C77.9458 235.034 77.8708 235.128 77.7738 235.195C77.6767 235.262 77.562 235.298 77.4441 235.299H77.4199ZM205.908 233.095C205.783 233.097 205.661 233.059 205.559 232.988C205.457 232.916 205.38 232.814 205.339 232.696C205.288 232.543 205.299 232.377 205.369 232.232C205.439 232.087 205.563 231.976 205.714 231.921C207.24 231.388 208.754 230.831 210.256 230.262C210.329 230.233 210.408 230.219 210.488 230.221C210.567 230.223 210.645 230.241 210.717 230.273C210.79 230.306 210.855 230.353 210.908 230.411C210.962 230.47 211.004 230.538 211.031 230.613C211.06 230.687 211.074 230.767 211.072 230.847C211.07 230.928 211.052 231.007 211.02 231.08C210.987 231.153 210.94 231.219 210.882 231.274C210.823 231.329 210.755 231.372 210.679 231.4C209.178 231.969 207.652 232.526 206.114 233.071C206.055 233.089 205.994 233.097 205.932 233.095H205.908ZM68.3736 231.884C68.2979 231.901 68.2193 231.901 68.1435 231.884C66.6419 231.255 65.1403 230.601 63.687 229.947C63.6143 229.913 63.549 229.865 63.495 229.806C63.4409 229.747 63.3992 229.677 63.3721 229.602C63.3451 229.526 63.3333 229.446 63.3375 229.366C63.3416 229.286 63.3617 229.208 63.3964 229.135C63.4289 229.063 63.4756 228.998 63.5337 228.944C63.5919 228.89 63.6602 228.848 63.7347 228.821C63.8092 228.794 63.8884 228.782 63.9675 228.786C64.0467 228.79 64.1243 228.81 64.1957 228.845C65.6368 229.499 67.1142 230.153 68.6037 230.77C68.6777 230.799 68.745 230.843 68.8017 230.899C68.8585 230.955 68.9034 231.021 68.9339 231.095C68.9644 231.168 68.9798 231.247 68.9793 231.326C68.9787 231.406 68.9622 231.484 68.9307 231.557C68.8806 231.655 68.8039 231.736 68.7097 231.792C68.6154 231.847 68.5073 231.875 68.3979 231.872L68.3736 231.884ZM214.979 229.656C214.858 229.659 214.74 229.624 214.64 229.557C214.541 229.49 214.464 229.393 214.421 229.281C214.39 229.208 214.373 229.129 214.373 229.05C214.372 228.97 214.388 228.891 214.418 228.818C214.449 228.744 214.494 228.678 214.55 228.622C214.607 228.566 214.674 228.523 214.748 228.493C216.238 227.876 217.715 227.282 219.181 226.592C219.254 226.56 219.333 226.543 219.412 226.541C219.492 226.54 219.572 226.554 219.646 226.583C219.72 226.613 219.788 226.656 219.845 226.712C219.903 226.767 219.948 226.834 219.98 226.907C220.042 227.054 220.046 227.219 219.989 227.368C219.933 227.516 219.821 227.638 219.677 227.706C218.2 228.36 216.71 228.99 215.209 229.62C215.141 229.637 215.072 229.645 215.003 229.644L214.979 229.656ZM59.6059 227.852C59.5141 227.849 59.4236 227.828 59.3395 227.791C57.8863 227.064 56.4452 226.302 55.0404 225.527C54.9703 225.488 54.9084 225.437 54.8582 225.375C54.8081 225.313 54.7707 225.242 54.7482 225.165C54.7257 225.089 54.7185 225.008 54.7271 224.929C54.7357 224.85 54.7599 224.773 54.7982 224.703C54.8773 224.564 55.0074 224.461 55.161 224.415C55.3146 224.37 55.4798 224.387 55.6217 224.461C57.0144 225.236 58.4434 225.987 59.8845 226.701C60.0257 226.778 60.132 226.907 60.1816 227.06C60.2311 227.213 60.2201 227.379 60.1509 227.525C60.0982 227.623 60.0197 227.706 59.9237 227.764C59.8277 227.821 59.7179 227.852 59.6059 227.852ZM223.855 225.72C223.741 225.723 223.629 225.693 223.532 225.633C223.435 225.572 223.358 225.485 223.31 225.381C223.275 225.31 223.255 225.232 223.25 225.152C223.244 225.073 223.255 224.993 223.281 224.918C223.307 224.842 223.347 224.773 223.4 224.713C223.453 224.653 223.517 224.605 223.589 224.57C225.042 223.867 226.483 223.153 227.912 222.414C228.055 222.34 228.221 222.326 228.375 222.375C228.528 222.424 228.656 222.532 228.73 222.675C228.803 222.818 228.818 222.984 228.769 223.137C228.72 223.29 228.612 223.418 228.469 223.492C227.028 224.231 225.587 224.957 224.11 225.66C224.031 225.698 223.943 225.715 223.855 225.708V225.72ZM51.141 223.177C51.0291 223.175 50.9201 223.141 50.8261 223.08C49.4334 222.245 48.0529 221.373 46.7087 220.489C46.5759 220.4 46.4836 220.262 46.4519 220.106C46.4201 219.949 46.4515 219.787 46.5391 219.653C46.582 219.586 46.6379 219.528 46.7035 219.483C46.7691 219.438 46.8431 219.407 46.921 219.391C46.999 219.375 47.0793 219.376 47.1572 219.391C47.2352 219.407 47.3091 219.439 47.3747 219.484C48.7068 220.355 50.0753 221.215 51.4558 222.051C51.5913 222.134 51.6887 222.267 51.7272 222.421C51.7657 222.575 51.7422 222.738 51.6617 222.874C51.608 222.965 51.5319 223.041 51.4407 223.094C51.3496 223.147 51.2464 223.175 51.141 223.177ZM232.453 221.252C232.346 221.251 232.241 221.222 232.148 221.169C232.054 221.116 231.976 221.041 231.921 220.949C231.846 220.807 231.83 220.642 231.875 220.488C231.92 220.335 232.024 220.204 232.163 220.125C233.568 219.338 234.96 218.527 236.329 217.703C236.397 217.662 236.473 217.635 236.552 217.623C236.631 217.61 236.712 217.614 236.789 217.633C236.867 217.652 236.94 217.687 237.004 217.734C237.068 217.781 237.123 217.841 237.164 217.909C237.206 217.978 237.233 218.053 237.245 218.132C237.257 218.211 237.254 218.292 237.234 218.37C237.215 218.447 237.181 218.52 237.134 218.585C237.086 218.649 237.027 218.703 236.958 218.745C235.578 219.552 234.173 220.36 232.744 221.167C232.656 221.219 232.556 221.248 232.453 221.252ZM43.0635 217.837C42.9382 217.836 42.8159 217.798 42.7123 217.728C41.3883 216.767 40.0925 215.786 38.825 214.785C38.7002 214.685 38.62 214.54 38.6019 214.381C38.5837 214.222 38.6291 214.063 38.7281 213.937C38.8319 213.814 38.9789 213.736 39.1387 213.718C39.2986 213.7 39.4594 213.743 39.5879 213.84C40.7989 214.833 42.1189 215.802 43.4147 216.747C43.4802 216.793 43.536 216.851 43.5788 216.919C43.6215 216.986 43.6505 217.061 43.664 217.14C43.6776 217.219 43.6753 217.3 43.6575 217.378C43.6396 217.456 43.6065 217.529 43.56 217.594C43.5018 217.671 43.4266 217.732 43.3404 217.774C43.2542 217.816 43.1594 217.838 43.0635 217.837ZM35.4826 211.782C35.3366 211.781 35.1953 211.73 35.083 211.636C33.9931 210.68 32.9031 209.699 31.8617 208.718L31.4863 208.354C31.4299 208.299 31.3851 208.233 31.3545 208.16C31.3239 208.088 31.3082 208.009 31.3082 207.931C31.3082 207.852 31.3239 207.773 31.3545 207.701C31.3851 207.628 31.4299 207.562 31.4863 207.507C31.5426 207.45 31.6095 207.405 31.6833 207.374C31.7571 207.343 31.8362 207.328 31.9162 207.328C31.9961 207.328 32.0753 207.343 32.149 207.374C32.2228 207.405 32.2898 207.45 32.3461 207.507L32.7094 207.858C33.7509 208.839 34.8165 209.808 35.9065 210.74C36.0009 210.821 36.0683 210.929 36.0993 211.049C36.1303 211.169 36.1236 211.296 36.0799 211.413C36.0363 211.529 35.9579 211.629 35.8553 211.7C35.7528 211.77 35.6311 211.807 35.5068 211.806L35.4826 211.782ZM28.4587 205.121C28.2951 205.121 28.1383 205.055 28.0228 204.939C26.8844 203.728 25.7703 202.517 24.7046 201.379C24.6482 201.324 24.6034 201.258 24.5728 201.185C24.5423 201.112 24.5265 201.034 24.5265 200.955C24.5265 200.876 24.5423 200.798 24.5728 200.725C24.6034 200.652 24.6482 200.587 24.7046 200.531C24.7609 200.474 24.8279 200.429 24.9017 200.399C24.9754 200.368 25.0546 200.352 25.1345 200.352C25.2145 200.352 25.2936 200.368 25.3674 200.399C25.4412 200.429 25.5081 200.474 25.5644 200.531C26.6301 201.742 27.7321 202.953 28.8584 204.055C28.9151 204.112 28.9602 204.179 28.9909 204.252C29.0217 204.326 29.0375 204.405 29.0375 204.485C29.0375 204.565 29.0217 204.644 28.9909 204.718C28.9602 204.792 28.9151 204.859 28.8584 204.915C28.7616 205.047 28.6191 205.138 28.4587 205.169V205.121ZM21.992 197.855C21.9012 197.854 21.8118 197.832 21.7301 197.793C21.6485 197.753 21.5766 197.696 21.5196 197.625C20.4782 196.414 19.473 195.082 18.5042 193.81C18.4109 193.681 18.3714 193.52 18.394 193.362C18.4166 193.204 18.4995 193.061 18.6253 192.962C18.7538 192.866 18.9153 192.825 19.0743 192.847C19.2332 192.87 19.3767 192.955 19.473 193.084C20.4297 194.295 21.4349 195.615 22.4521 196.862C22.5041 196.922 22.5435 196.992 22.568 197.067C22.5925 197.142 22.6016 197.222 22.5948 197.301C22.5881 197.38 22.5655 197.457 22.5285 197.527C22.4915 197.597 22.4409 197.659 22.3795 197.71C22.2882 197.841 22.1492 197.933 21.992 197.964V197.855ZM16.167 190.117C16.0686 190.117 15.9718 190.093 15.8851 190.046C15.7984 190 15.7247 189.932 15.6705 189.85C14.7501 188.506 13.854 187.125 13.0184 185.757C12.9504 185.621 12.9358 185.465 12.9775 185.319C13.0192 185.173 13.1142 185.048 13.2437 184.969C13.3731 184.89 13.5276 184.862 13.6765 184.891C13.8254 184.921 13.9579 185.005 14.0477 185.127C14.8712 186.471 15.7552 187.84 16.6635 189.172C16.7091 189.237 16.7412 189.31 16.7579 189.388C16.7747 189.465 16.7758 189.545 16.7611 189.623C16.7464 189.701 16.7163 189.775 16.6725 189.841C16.6287 189.907 16.5721 189.964 16.5061 190.008C16.4234 190.119 16.3028 190.197 16.167 190.226V190.117ZM11.105 181.87C10.9963 181.869 10.8898 181.839 10.7963 181.784C10.7027 181.728 10.6254 181.649 10.5721 181.555C9.78496 180.126 9.03414 178.66 8.33175 177.219C8.29703 177.147 8.277 177.069 8.27283 176.989C8.26867 176.908 8.28045 176.828 8.30749 176.753C8.33452 176.677 8.37628 176.608 8.43034 176.549C8.4844 176.49 8.54968 176.442 8.62239 176.408C8.69304 176.373 8.76992 176.353 8.84856 176.348C8.9272 176.343 9.00602 176.354 9.08042 176.38C9.15482 176.406 9.22331 176.446 9.2819 176.499C9.34049 176.551 9.388 176.615 9.42166 176.686C10.1119 178.115 10.8628 179.557 11.6257 180.973C11.6659 181.041 11.692 181.117 11.7022 181.195C11.7123 181.273 11.7065 181.353 11.685 181.429C11.6634 181.504 11.6267 181.575 11.5769 181.636C11.5272 181.698 11.4655 181.748 11.3956 181.785C11.3232 181.88 11.2209 181.948 11.105 181.979V181.87ZM6.87854 173.247C6.75694 173.249 6.63761 173.214 6.53609 173.147C6.43457 173.08 6.35556 172.984 6.30936 172.872C5.69175 171.382 5.09835 169.844 4.56551 168.33C4.51611 168.181 4.52703 168.018 4.59594 167.876C4.66485 167.734 4.78633 167.625 4.93455 167.571C5.08278 167.518 5.24607 167.524 5.38973 167.589C5.53338 167.654 5.64607 167.772 5.70386 167.919C6.2367 169.42 6.81799 170.934 7.4356 172.412C7.49267 172.56 7.49055 172.724 7.42967 172.871C7.36879 173.017 7.25383 173.135 7.10863 173.199C7.03625 173.231 6.95781 173.248 6.87854 173.247ZM3.65725 164.116C3.52575 164.118 3.39729 164.076 3.29208 163.998C3.18686 163.919 3.11084 163.807 3.07597 163.68C2.62789 162.118 2.21615 160.532 1.86496 158.957C1.8471 158.879 1.84485 158.799 1.85836 158.72C1.87186 158.641 1.90084 158.566 1.94362 158.498C1.98641 158.43 2.04215 158.372 2.10764 158.326C2.17312 158.28 2.24704 158.248 2.32514 158.231C2.48081 158.198 2.643 158.228 2.77668 158.314C2.91037 158.4 3.00483 158.536 3.03964 158.691C3.39083 160.241 3.79046 161.803 4.25065 163.341C4.27291 163.417 4.27992 163.497 4.27128 163.576C4.26264 163.656 4.23851 163.732 4.20028 163.802C4.16204 163.872 4.11045 163.933 4.04845 163.983C3.98644 164.033 3.91524 164.07 3.83891 164.092C3.78836 164.11 3.73499 164.118 3.68147 164.116H3.65725ZM1.53798 154.67C1.39285 154.672 1.25188 154.622 1.14074 154.528C1.0296 154.435 0.95569 154.305 0.932478 154.162C0.678166 152.551 0.472297 150.928 0.314865 149.318C0.300412 149.157 0.350342 148.997 0.453676 148.874C0.557011 148.75 0.705283 148.672 0.865873 148.658C1.02646 148.643 1.18622 148.693 1.30999 148.796C1.43376 148.9 1.51142 149.048 1.52588 149.209C1.68331 150.783 1.88918 152.381 2.14349 153.968C2.15738 154.047 2.15553 154.127 2.13804 154.205C2.12056 154.283 2.08779 154.357 2.04163 154.423C1.99546 154.488 1.93682 154.543 1.86908 154.586C1.80134 154.628 1.72586 154.657 1.64697 154.67H1.53798ZM0.605505 145.043C0.447918 145.04 0.29743 144.977 0.184859 144.866C0.0722885 144.756 0.006153 144.607 0 144.449C0 143.65 0 142.851 0 142.027C0 141.204 0 140.356 0 139.533C0.00148301 139.453 0.0191518 139.374 0.0519432 139.301C0.0847346 139.228 0.13197 139.162 0.190805 139.108C0.24964 139.053 0.318859 139.011 0.394291 138.985C0.469723 138.958 0.549808 138.946 0.629726 138.951C0.788198 138.958 0.937868 139.026 1.04657 139.141C1.15526 139.257 1.21431 139.41 1.21101 139.569C1.21101 140.38 1.21101 141.204 1.21101 141.991C1.21101 142.778 1.21101 143.553 1.21101 144.34C1.21425 144.421 1.20138 144.501 1.17316 144.577C1.14494 144.652 1.10194 144.721 1.04668 144.78C0.99141 144.839 0.924992 144.886 0.851316 144.918C0.77764 144.951 0.698189 144.969 0.617618 144.97L0.605505 145.043ZM0.932478 135.355C0.853337 135.349 0.776212 135.327 0.705668 135.29C0.635124 135.254 0.572596 135.204 0.521783 135.143C0.470971 135.082 0.432906 135.011 0.409845 134.935C0.386784 134.859 0.379194 134.78 0.387523 134.701C0.557064 133.078 0.775045 131.443 1.05358 129.857C1.0653 129.778 1.09262 129.703 1.1339 129.635C1.17518 129.568 1.2296 129.509 1.29394 129.463C1.35828 129.416 1.43124 129.384 1.50852 129.366C1.58579 129.348 1.66581 129.346 1.74385 129.36C1.82273 129.373 1.89822 129.402 1.96596 129.445C2.0337 129.487 2.09234 129.543 2.13851 129.608C2.18467 129.673 2.21744 129.747 2.23493 129.825C2.25241 129.903 2.25426 129.984 2.24037 130.063C1.97395 131.625 1.75596 133.223 1.59853 134.822C1.57767 134.976 1.50058 135.117 1.38208 135.217C1.26359 135.318 1.11208 135.371 0.956699 135.367L0.932478 135.355ZM2.56734 125.812H2.42202C2.34482 125.792 2.27228 125.757 2.20856 125.71C2.14483 125.662 2.09118 125.602 2.05068 125.533C2.01018 125.464 1.98362 125.389 1.97253 125.31C1.96144 125.231 1.96604 125.15 1.98606 125.073C2.36147 123.487 2.80954 121.912 3.30606 120.374C3.35594 120.222 3.4643 120.096 3.60735 120.023C3.75039 119.95 3.91643 119.937 4.069 119.987C4.14405 120.01 4.21371 120.048 4.27392 120.099C4.33414 120.149 4.38371 120.211 4.41977 120.281C4.45582 120.351 4.47764 120.428 4.48395 120.506C4.49026 120.584 4.48093 120.663 4.45652 120.738C3.97211 122.252 3.53615 123.802 3.16074 125.364C3.12908 125.492 3.05632 125.607 2.95355 125.69C2.85078 125.773 2.72365 125.82 2.59156 125.824L2.56734 125.812ZM5.53432 116.596C5.45868 116.614 5.37987 116.614 5.30423 116.596C5.23023 116.567 5.16275 116.523 5.10565 116.468C5.04855 116.412 5.00295 116.346 4.97145 116.273C4.93996 116.2 4.92319 116.121 4.9221 116.042C4.92102 115.962 4.93565 115.883 4.96514 115.809C5.57065 114.307 6.24881 112.806 6.96331 111.352C6.99181 111.272 7.03711 111.198 7.09622 111.136C7.15533 111.074 7.22691 111.025 7.30623 110.993C7.38555 110.961 7.47081 110.946 7.55638 110.949C7.64195 110.952 7.72589 110.973 7.80265 111.011C7.87941 111.049 7.94725 111.103 8.00168 111.169C8.05612 111.235 8.09592 111.312 8.11846 111.395C8.141 111.477 8.14575 111.564 8.13242 111.648C8.11909 111.733 8.08796 111.814 8.04111 111.885C7.35083 113.314 6.68478 114.78 6.09138 116.269C6.0413 116.368 5.96536 116.452 5.87158 116.512C5.7778 116.572 5.66965 116.605 5.55854 116.608L5.53432 116.596ZM9.82129 107.962C9.71442 107.962 9.6095 107.933 9.51854 107.877C9.44926 107.838 9.3885 107.786 9.33984 107.723C9.29119 107.66 9.25565 107.588 9.23532 107.511C9.21499 107.434 9.21029 107.354 9.2215 107.276C9.23271 107.197 9.25959 107.121 9.30056 107.053C10.124 105.661 10.9839 104.268 11.88 102.912C11.9747 102.794 12.1097 102.716 12.2588 102.693C12.4079 102.67 12.5603 102.703 12.686 102.787C12.8118 102.87 12.9019 102.997 12.9388 103.144C12.9756 103.29 12.9565 103.445 12.8851 103.578C12.0132 104.91 11.1534 106.29 10.342 107.659C10.2892 107.75 10.2133 107.826 10.122 107.88C10.0306 107.933 9.92696 107.961 9.82129 107.962ZM15.1618 99.8721C15.0304 99.8749 14.902 99.8321 14.7985 99.751C14.6716 99.6567 14.5867 99.5164 14.5618 99.3603C14.5369 99.2042 14.574 99.0445 14.6653 98.9154C15.6341 97.6075 16.6393 96.3117 17.6686 95.0644C17.718 95.0021 17.7794 94.9504 17.8491 94.9123C17.9188 94.8742 17.9955 94.8505 18.0746 94.8426C18.1536 94.8347 18.2335 94.8428 18.3094 94.8663C18.3852 94.8898 18.4556 94.9283 18.5163 94.9796C18.6393 95.0812 18.7172 95.2273 18.733 95.386C18.7489 95.5448 18.7015 95.7033 18.6011 95.8273C17.5839 97.0383 16.5908 98.3341 15.6463 99.6299C15.5857 99.6978 15.5108 99.7514 15.4271 99.787C15.3433 99.8226 15.2528 99.8392 15.1618 99.8358V99.8721ZM21.3017 92.388C21.228 92.3895 21.1547 92.3764 21.0861 92.3494C21.0175 92.3224 20.9549 92.282 20.902 92.2306C20.8453 92.1743 20.8002 92.1073 20.7695 92.0336C20.7388 91.9598 20.7229 91.8806 20.7229 91.8007C20.7229 91.7208 20.7388 91.6416 20.7695 91.5678C20.8002 91.494 20.8453 91.4271 20.902 91.3708C21.992 90.1598 23.1424 88.9488 24.2929 87.871C24.3481 87.8146 24.4141 87.7698 24.4868 87.7392C24.5596 87.7086 24.6378 87.6929 24.7167 87.6929C24.7957 87.6929 24.8738 87.7086 24.9466 87.7392C25.0194 87.7698 25.0853 87.8146 25.1406 87.871C25.1973 87.9273 25.2424 87.9942 25.2731 88.068C25.3039 88.1418 25.3197 88.2209 25.3197 88.3009C25.3197 88.3808 25.3039 88.46 25.2731 88.5337C25.2424 88.6075 25.1973 88.6745 25.1406 88.7308C24.0022 89.8328 22.876 90.9954 21.7861 92.1822C21.7232 92.2449 21.647 92.2927 21.5631 92.322C21.4793 92.3514 21.39 92.3615 21.3017 92.3517V92.388ZM28.2286 85.6185C28.1434 85.6191 28.0591 85.601 27.9817 85.5654C27.9043 85.5298 27.8356 85.4777 27.7806 85.4126C27.7242 85.3574 27.6794 85.2914 27.6488 85.2186C27.6182 85.1459 27.6025 85.0677 27.6025 84.9888C27.6025 84.9098 27.6182 84.8317 27.6488 84.7589C27.6794 84.6861 27.7242 84.6202 27.7806 84.5649C28.9916 83.4871 30.2753 82.4456 31.5468 81.4526C31.6763 81.3759 31.8294 81.3491 31.9773 81.3772C32.1252 81.4054 32.2576 81.4866 32.3499 81.6056C32.4421 81.7246 32.4877 81.8732 32.4781 82.0234C32.4684 82.1736 32.4043 82.3152 32.2976 82.4214C31.0866 83.3902 29.7909 84.4196 28.5798 85.4732C28.4769 85.545 28.3542 85.5831 28.2286 85.5822V85.6185ZM128.864 83.7051C128.753 83.7042 128.646 83.6733 128.552 83.6157C128.458 83.5581 128.381 83.4759 128.331 83.3781C127.538 82.0214 126.596 80.758 125.521 79.6119C125.414 79.4914 125.358 79.3332 125.367 79.1719C125.376 79.0107 125.449 78.8597 125.57 78.7521C125.69 78.6445 125.848 78.5891 126.01 78.5982C126.171 78.6073 126.322 78.6801 126.429 78.8005C127.575 80.0177 128.571 81.3675 129.396 82.8211C129.434 82.8908 129.457 82.9674 129.465 83.0463C129.473 83.1252 129.464 83.2048 129.441 83.2804C129.417 83.356 129.378 83.4262 129.327 83.4866C129.276 83.5471 129.213 83.5967 129.142 83.6324C129.054 83.6681 128.958 83.6806 128.864 83.6688V83.7051ZM35.9428 79.6482C35.844 79.6507 35.7463 79.6275 35.6593 79.5807C35.5722 79.534 35.4988 79.4655 35.4463 79.3818C35.4007 79.3169 35.3686 79.2436 35.3518 79.1662C35.3351 79.0887 35.334 79.0086 35.3487 78.9308C35.3633 78.8529 35.3935 78.7787 35.4373 78.7127C35.4811 78.6466 35.5377 78.59 35.6037 78.5462C36.9358 77.6258 38.3164 76.7418 39.6969 75.9062C39.7647 75.8628 39.8406 75.8336 39.9201 75.8204C39.9995 75.8073 40.0807 75.8105 40.1589 75.8297C40.2371 75.849 40.3105 75.8839 40.3747 75.9325C40.439 75.981 40.4927 76.0421 40.5325 76.1121C40.5743 76.1803 40.6021 76.2562 40.6143 76.3353C40.6266 76.4144 40.623 76.4951 40.6039 76.5728C40.5847 76.6505 40.5504 76.7236 40.5028 76.788C40.4552 76.8523 40.3953 76.9066 40.3266 76.9477C38.9582 77.759 37.6019 78.6431 36.2819 79.5392C36.1834 79.6109 36.0646 79.6491 35.9428 79.6482ZM122.482 76.4754C122.339 76.475 122.202 76.4234 122.094 76.33C120.867 75.3144 119.581 74.3722 118.243 73.5084C118.176 73.4647 118.119 73.4082 118.074 73.3422C118.029 73.2763 117.997 73.2021 117.981 73.1239C117.965 73.0458 117.964 72.9652 117.979 72.8867C117.994 72.8083 118.024 72.7335 118.067 72.6667C118.111 72.5999 118.168 72.5424 118.234 72.4974C118.3 72.4525 118.374 72.4209 118.452 72.4046C118.53 72.3883 118.611 72.3876 118.689 72.4024C118.768 72.4173 118.842 72.4474 118.909 72.4911C120.285 73.3863 121.607 74.3608 122.869 75.4097C122.963 75.4898 123.03 75.5966 123.061 75.7158C123.093 75.835 123.087 75.961 123.045 76.0768C123.003 76.1927 122.926 76.2929 122.825 76.3641C122.725 76.4353 122.605 76.4741 122.482 76.4754ZM44.1777 74.6588C44.0657 74.6588 43.9559 74.6284 43.8599 74.5708C43.7639 74.5132 43.6854 74.4306 43.6327 74.3319C43.56 74.1903 43.5459 74.0259 43.5935 73.874C43.6411 73.7222 43.7465 73.5952 43.887 73.5205C45.316 72.7697 46.7934 72.0552 48.283 71.3891C48.3551 71.355 48.4334 71.3358 48.5131 71.3326C48.5928 71.3294 48.6724 71.3423 48.747 71.3706C48.8216 71.3988 48.8897 71.4419 48.9473 71.4971C49.005 71.5523 49.0508 71.6185 49.0822 71.6919C49.1446 71.8384 49.1479 72.0034 49.0914 72.1523C49.035 72.3013 48.9233 72.4226 48.7795 72.4911C47.3142 73.1451 45.861 73.8475 44.4562 74.5862C44.3707 74.6329 44.2751 74.6579 44.1777 74.6588ZM114.416 71.1711C114.323 71.1697 114.231 71.1447 114.15 71.0985C112.757 70.4082 111.28 69.7543 109.778 69.173C109.629 69.1159 109.509 69.0026 109.443 68.8575C109.378 68.7125 109.372 68.5473 109.427 68.3979C109.455 68.3229 109.498 68.2541 109.553 68.1957C109.608 68.1373 109.674 68.0905 109.747 68.0578C109.82 68.0251 109.899 68.0073 109.979 68.0054C110.06 68.0035 110.139 68.0176 110.214 68.0467C111.752 68.6401 113.266 69.2577 114.695 70.0207C114.837 70.0933 114.945 70.2194 114.995 70.3714C115.045 70.5234 115.033 70.689 114.961 70.832C114.907 70.9407 114.821 71.0308 114.716 71.0912C114.61 71.1515 114.489 71.1793 114.368 71.1711H114.416ZM53.0544 70.6867C52.9317 70.6859 52.8121 70.6487 52.7108 70.5796C52.6094 70.5106 52.5309 70.413 52.4852 70.2992C52.4562 70.2254 52.4423 70.1465 52.4444 70.0671C52.4464 69.9878 52.4643 69.9098 52.4971 69.8375C52.5298 69.7652 52.5767 69.7003 52.635 69.6465C52.6933 69.5926 52.7617 69.5511 52.8364 69.5242C54.3501 68.9429 55.9002 68.41 57.4503 67.9256C57.5258 67.8997 57.6058 67.8895 57.6853 67.8958C57.7648 67.902 57.8422 67.9246 57.9127 67.9621C57.9831 67.9996 58.0451 68.0512 58.0947 68.1137C58.1443 68.1762 58.1806 68.2482 58.2012 68.3253C58.2253 68.4008 58.2341 68.4804 58.2271 68.5593C58.22 68.6383 58.1971 68.715 58.1599 68.785C58.1226 68.855 58.0717 68.9169 58.0102 68.9668C57.9486 69.0168 57.8777 69.054 57.8015 69.0761C56.2878 69.5605 54.7498 70.0812 53.2602 70.6504C53.1793 70.6817 53.0924 70.6942 53.0059 70.6867H53.0544ZM62.2823 67.7924C62.1217 67.8117 61.96 67.7664 61.8328 67.6665C61.7056 67.5665 61.6234 67.4202 61.6041 67.2596C61.5848 67.099 61.6301 66.9373 61.7301 66.8101C61.83 66.683 61.9763 66.6007 62.1369 66.5814C63.6991 66.1818 65.2977 65.8306 66.8962 65.5278C66.9741 65.5119 67.0544 65.5115 67.1325 65.5266C67.2106 65.5417 67.285 65.5721 67.3513 65.616C67.4176 65.6598 67.4747 65.7163 67.5192 65.7822C67.5637 65.8481 67.5948 65.9222 67.6107 66.0001C67.6393 66.1589 67.6046 66.3225 67.5141 66.4561C67.4235 66.5896 67.2844 66.6824 67.1263 66.7146C65.552 67.0174 63.9777 67.3686 62.4276 67.7561L62.2823 67.7924ZM105.394 67.6834H105.237C103.735 67.2596 102.173 66.8721 100.574 66.5451C100.496 66.5292 100.422 66.4981 100.357 66.4536C100.291 66.4091 100.234 66.352 100.19 66.2857C100.146 66.2193 100.116 66.145 100.101 66.0669C100.086 65.9888 100.086 65.9085 100.102 65.8306C100.137 65.6748 100.231 65.5385 100.364 65.4505C100.497 65.3624 100.66 65.3294 100.817 65.3583C102.439 65.6974 104.038 66.0849 105.564 66.5693C105.718 66.6145 105.849 66.7183 105.928 66.8585C106.008 66.9988 106.029 67.1644 105.988 67.3201C105.934 67.4417 105.843 67.5426 105.727 67.6081C105.611 67.6735 105.478 67.7 105.346 67.6834H105.394ZM71.7887 65.9638C71.7092 65.9694 71.6293 65.9592 71.5537 65.9339C71.4781 65.9086 71.4083 65.8687 71.3481 65.8164C71.2266 65.7108 71.152 65.5613 71.1408 65.4007C71.1296 65.2401 71.1826 65.0816 71.2882 64.9601C71.3938 64.8386 71.5433 64.764 71.7039 64.7528C73.3025 64.5348 74.9252 64.3531 76.548 64.2199C76.6275 64.2136 76.7075 64.2229 76.7834 64.2475C76.8593 64.272 76.9296 64.3113 76.9903 64.363C77.051 64.4148 77.101 64.4779 77.1373 64.549C77.1736 64.62 77.1955 64.6975 77.2019 64.777C77.2083 64.8565 77.1989 64.9365 77.1744 65.0124C77.1498 65.0883 77.1105 65.1586 77.0588 65.2193C77.0071 65.2801 76.9439 65.33 76.8729 65.3663C76.8018 65.4026 76.7244 65.4246 76.6448 65.4309C75.0584 65.5763 73.4478 65.7458 71.8735 65.9638H71.7887ZM95.9241 65.7458H95.8394C94.3014 65.552 92.6907 65.3825 91.068 65.2735C90.9884 65.2689 90.9105 65.2486 90.8388 65.2138C90.7671 65.179 90.703 65.1304 90.6501 65.0708C90.5972 65.0111 90.5567 64.9417 90.5307 64.8663C90.5047 64.791 90.4939 64.7112 90.4988 64.6317C90.5112 64.4699 90.5868 64.3196 90.7091 64.2131C90.8315 64.1066 90.9908 64.0525 91.1527 64.0625C92.7997 64.1836 94.4346 64.341 95.9968 64.5469C96.0763 64.5517 96.1541 64.5721 96.2257 64.6069C96.2974 64.6417 96.3615 64.6903 96.4143 64.7499C96.4672 64.8095 96.5078 64.879 96.5338 64.9543C96.5598 65.0296 96.5707 65.1092 96.566 65.1887C96.5612 65.2683 96.5408 65.3461 96.506 65.4177C96.4711 65.4893 96.4225 65.5534 96.3629 65.6063C96.3033 65.6591 96.2339 65.6997 96.1586 65.7257C96.0833 65.7518 96.0036 65.7627 95.9241 65.7579V65.7458ZM81.392 65.1282C81.2355 65.1283 81.0851 65.0679 80.9722 64.9595C80.8593 64.8511 80.7928 64.7033 80.7865 64.5469C80.7831 64.3871 80.8417 64.2323 80.9501 64.1148C81.0585 63.9974 81.2083 63.9265 81.3678 63.9172C82.9784 63.9172 84.6254 63.8445 86.2118 63.9172C86.3714 63.9234 86.5223 63.9913 86.633 64.1064C86.7436 64.2216 86.8053 64.3751 86.8052 64.5348C86.8036 64.6143 86.7864 64.6928 86.7545 64.7656C86.7226 64.8385 86.6767 64.9043 86.6193 64.9594C86.562 65.0146 86.4943 65.0578 86.4203 65.0868C86.3462 65.1157 86.2671 65.1298 86.1876 65.1282C84.6012 65.1282 82.9663 65.1282 81.3436 65.1282H81.392Z" fill="#D1D3D4"/>
</svg>
